<svg width="50" height="50" viewBox="0 0 50 50" version="1.1" xmlns="http://www.w3.org/2000/svg" xmlns:xlink="http://www.w3.org/1999/xlink">
<title>blog_vk</title>
<desc>Created using Figma</desc>
<g id="Canvas" transform="translate(-7910 -7438)">
<g id="blog_vk">
<g id="Vector">
<use xlink:href="#path0_fill" transform="translate(7910 7438)" fill="#261A12"/>
</g>
<g id="Vector">
<use xlink:href="#path1_fill" transform="translate(7924.78 7449.41)" fill="#FFFFFF"/>
</g>
</g>
</g>
<defs>
<path id="path0_fill" d="M 2.5532e-07 0L 2.5532e-07 50L 49.8047 50L 49.8047 0L 2.5532e-07 0Z"/>
<path id="path1_fill" d="M 0.158959 2.56321e-07L 11.9889 2.56321e-07C 15.8793 2.56321e-07 19.1505 1.87301 19.1505 5.7786C 19.1505 9.06266 17.9039 10.3057 15.5697 11.7168C 15.7287 11.8764 17.1258 12.3383 17.5944 12.4979C 18.3724 12.8087 18.8409 13.279 19.3095 13.7494C 20.7066 15.152 20.8656 16.4035 20.8656 18.5957C 20.8656 23.5931 16.0382 26.2557 11.3698 26.2557L 0 26.2557L 0.158959 2.56321e-07ZM 6.54246 6.87049L 6.54246 10.3057C 9.65473 10.3057 12.4574 10.7761 12.4574 7.34084C 12.4574 4.21636 9.18621 4.8379 6.54246 4.8379L 6.54246 6.87049ZM 6.54246 21.4094C 9.81369 21.4094 14.0136 22.0309 14.0136 18.1253C 14.0136 14.2197 9.81369 14.8413 6.54246 14.8413L 6.54246 21.4094Z"/>
</defs>
</svg>
