<svg xmlns="http://www.w3.org/2000/svg" viewBox="0 0 160.05 90.29"><defs><style>.a,.b{fill:#c4549a;}.a{opacity:0.5;}</style></defs><title>sector-30</title><path class="a" d="M159.86,58.29c-1-10.85-5.75-20.7-11.81-28.78h0c-8.5-11.2-19.5-19.3-26.2-22.6A69.1,69.1,0,0,0,91.16,0a86.39,86.39,0,0,0-27.5,4.7l0,0A106.83,106.83,0,0,0,38.19,17.3c-6.3,4.3-12.4,9.3-18.3,14.2-1.5,1.2-3.2,2.7-5.1,4.2l.08.12C10.08,39.72,4.39,44.21,0,46.7l.4-.1V78.3C11,76.4,21.7,68.9,31.6,60.9l-.08-.12c2.69-2,5.28-4.08,7.67-6.18C44.69,50,50,45.6,55,42.2A75.2,75.2,0,0,1,77.19,32v0a54.57,54.57,0,0,1,14.09-2,39.52,39.52,0,0,1,17.6,3.9,50.15,50.15,0,0,1,11.9,9.6h0c4.56,5,8.7,11.23,9.2,17.49a13.73,13.73,0,0,1-1.7,8.3c1.5,4.8,1.3,10.7-.7,17.9l30.1,3.1a62.14,62.14,0,0,0,1.4-18.9A41.35,41.35,0,0,0,159.86,58.29Z"/><path class="b" d="M129.92,61.15c-.5-6.1-4.5-12.3-9-17.2h0c-4.49-4.88-9.47-8.66-12.16-10a39.52,39.52,0,0,0-17.6-3.9,55.24,55.24,0,0,0-14.2,2l0,0A76.42,76.42,0,0,0,54.86,42.3a188.08,188.08,0,0,0-15.8,12.4c-2.59,2.19-5.28,4.38-8,6.57L31,61.1c-9.7,7.8-20.1,15-30.5,17L1.76,85c11.89-2.1,23.18-9.88,33.47-18.27l.13.17c8.4-6.9,16.3-14.1,23.4-18.8a67.64,67.64,0,0,1,21.5-9.6v0c8.57-2,17.54-2,25.41,1.82,2.1,1,5.4,3.6,8.6,6.8h0c6.68,6.7,12.54,16.37,5.66,21.36,3.2,4.1,2.8,10.8.5,18.2l7.2.4c1.9-7.1,2.1-12.9.6-17.6A13.73,13.73,0,0,0,129.92,61.15Z"/></svg>