<svg xmlns="http://www.w3.org/2000/svg" viewBox="0 0 61.8 65.8"><defs><style>.a,.b{fill:#c4549a;}.a{opacity:0.5;}</style></defs><title>sector-90</title><path class="a" d="M41.6,14.8c-5.8,8.5-13.5,15.1-21,21.5C15.4,40.8,10.4,45,6.3,49.8l26.3,16c2.2-2.1,4.8-4.3,7.6-6.7,6.9-5.9,14.6-12.5,21.6-21.2L48.4,6.8A55.53,55.53,0,0,0,41.6,14.8Z"/><path class="b" d="M35.9,10.8C26.3,24.7,10.7,33.7,0,46.4l6.4,3.2c4.1-4.7,9.1-8.9,14.3-13.4,7.4-6.4,15.1-13,21-21.5a59.47,59.47,0,0,1,6.6-8L45.2,0A64.55,64.55,0,0,0,35.9,10.8Z"/></svg>