<svg xmlns="http://www.w3.org/2000/svg" viewBox="0 0 83.5 87.9"><defs><style>.a,.b{fill:#efc319;}.a{opacity:0.5;}</style></defs><title>sector-240</title><path class="a" d="M12.5,67.5H13L15,71a7.71,7.71,0,0,1,.8,1.9l14.1,15L47.4,69.6a34,34,0,0,0-4.6-.6l-6-.6-.2-6a8.52,8.52,0,0,0-.4-2.3c-1-.7-2.5-1.7-3.5-2.4-4.5-3.1-5.8-3.9-6.7-5.9-2.6-5.3.3-17.3,6.2-20.4a11.86,11.86,0,0,1,5.3-1.3c6.3,0,12.4,4.8,18.1,10l.4.3C60,44,67.2,45.5,74.1,47c1.6.3,3.3.7,4.9,1.1a8.45,8.45,0,0,0,1.8-1.5l1.1-1.3L69.2,12.1C62,6.5,51.1,0,37.5,0A42,42,0,0,0,18.4,4.6a.1.1,0,0,0-.1.1c0-.2.1-.4.1-.6L0,29.9Z"/><path class="b" d="M43.7,62a15.91,15.91,0,0,0-1.6-6.4c-1.4-1.4-9.5-6.4-9.8-7.1-1.1-2.2,1-9.9,3.2-11.1,4.7-2.4,12.6,5.1,15.8,8,7,6.4,18.5,7.3,28.3,9.8a12.87,12.87,0,0,0,3.9-1.9L82,44.9l-1.2,1.5A4.28,4.28,0,0,1,79,47.9c-1.6-.4-3.3-.7-4.9-1.1-7-1.4-14.2-2.9-18.1-6.6l-.4-.3c-5.6-5.2-11.7-10-18.1-10a10.67,10.67,0,0,0-5.3,1.3c-5.9,3.1-8.9,15.2-6.2,20.4,1,2,2.2,2.8,6.7,5.9,1,.7,2.5,1.7,3.5,2.4a9.26,9.26,0,0,1,.4,2.3l.2,6,6,.6c1.4.2,2.8.3,4.2.6l3.3-6.5C48.2,62.6,45.9,62.2,43.7,62Z"/></svg>