<svg xmlns="http://www.w3.org/2000/svg" viewBox="0 0 73.4 85.1"><defs><style>.a,.b{fill:#f05a5a;}.a{opacity:0.5;}</style></defs><title>sector-80</title><path class="a" d="M47.1,6.7c-2.2,3.4-4.4,6.8-6.7,10.4-9.6,15.2-19.6,31-34.1,42.5-.8.6-1.6,1.2-2.3,1.8L22.5,85.1c.8-.6,1.6-1.2,2.4-1.9,18.7-14.7,30.5-33.5,41-50.1q3.3-5.25,6.3-9.9c.4-.6.8-1.2,1.2-1.9L49.1,3.7C48.4,4.7,47.7,5.7,47.1,6.7Z"/><path class="b" d="M41.2,2.9C29.5,20.6,18.8,40.8,1.9,54.1c-.6.5-1.3,1-1.9,1.5l4.4,5.5c.6-.5,1.3-.9,1.9-1.4C20.9,48.2,30.8,32.5,40.4,17.2c2.3-3.6,4.4-7,6.7-10.4.7-1,1.4-2.1,2-3.1L43.1,0C42.5.9,41.9,1.9,41.2,2.9Z"/></svg>