<svg xmlns="http://www.w3.org/2000/svg" viewBox="0 0 55.21 50.44"><defs><style>.a,.b{fill:#efc319;}.a{opacity:0.5;}</style></defs><title>sector-61</title><path class="a" d="M32.61,44.8l.08-.08a20.79,20.79,0,0,1-1-3.72l-1.8-10.9h0l0-.1,8.75,2.48,2.66.72a26.49,26.49,0,0,0,3.84,1c.25,0,1.1-.29,3.66-1.89a22.52,22.52,0,0,0,2-1.28L40,1.4c-.1.1-.2.2-.3.2l-1.5-.4A29.07,29.07,0,0,0,30,0,29.94,29.94,0,0,0,.16,33.06L30.54,47.35A12.45,12.45,0,0,1,32.61,44.8Z"/><path class="b" d="M48.91,32.3c-2.7,1.6-3.5,1.9-3.7,1.9h-.11a24.38,24.38,0,0,1-3.9-1l-2.55-.72L29.92,30.1l1.78,10.8a18.49,18.49,0,0,0,1,3.8l0,0,0,.08-.1.1a12.63,12.63,0,0,0-2,2.47l6.52,3.07a10.15,10.15,0,0,0,2.09-2.64c1.9-5,.4-2.6-.5-8,6.7,1.9,7.5,2.3,13.8-1.5l2.7-1.8L50.81,31l0,0,0,.08C50.21,31.5,49.51,31.9,48.91,32.3Z"/></svg>