<svg xmlns="http://www.w3.org/2000/svg" viewBox="0 0 111.1 81.12"><defs><style>.a,.b{fill:#f05a5a;}.a{opacity:0.5;}</style></defs><title>sector-40</title><path class="a" d="M103,17.62c-1.2-4.5-4.1-10.6-14.9-10.6A40.59,40.59,0,0,0,79,8.22l-.06.14a61.9,61.9,0,0,0-18.84,8.36,92.05,92.05,0,0,0-10.27,7.6h0c-1.6,1.3-3.2,2.7-4.9,4.1-12.3,10.4-25,21.1-42.2,22.8l2.7,29.9c23.9-2.3,41.2-15.1,54.5-26.1l-.2-.1,0-.08,43.2-18.91A36.61,36.61,0,0,0,103,17.62Z"/><path class="b" d="M109.75,15.72c-4.4-16-19-17.8-33.1-14.1l.06.11a68,68,0,0,0-20.56,9,119.05,119.05,0,0,0-9.81,7.34l0-.06C32.1,29.7,18.7,43.3,0,44.3L3.4,51C20.3,49.1,32.8,38.5,45,28.3c1.73-1.44,3.37-2.89,5-4.24l0,.06a113.3,113.3,0,0,1,10-7.5A61.21,61.21,0,0,1,80.35,8l-.06-.1A35.46,35.46,0,0,1,88.15,7c10.7,0,13.6,6,14.9,10.6a37,37,0,0,1,0,18.1l7,.8A45.64,45.64,0,0,0,109.75,15.72Z"/></svg>