<svg xmlns="http://www.w3.org/2000/svg" viewBox="0 0 121.57 172.4"><defs><style>.a,.b{fill:#c4549a;}.a{opacity:0.5;}</style></defs><title>sector-180</title><path class="a" d="M82.3,15.7c13.8,21.2,11.9,42.3-5,56.5-1.1.9-2.2,1.8-3.3,2.6-7.1,5.7-10.3,8.5-9.9,14.8A41.35,41.35,0,0,0,66.4,99c1.9,5.9,4.1,12.5,2.3,20.1-2.9,12.2-12.3,19.7-27.8,22.4a29.22,29.22,0,0,1-5.1.4A43.64,43.64,0,0,1,23,139.6a40.6,40.6,0,0,0-8.4-1.8H13.5a6.42,6.42,0,0,0-5.1,1.9,11,11,0,0,0-1.7,2.5l28.4,30.2v-.5h.7A58.59,58.59,0,0,0,46,171c2.8-.5,5.5-1.1,8.2-1.8l25.7-19.1,18.4-25.8c2.4-11.7.5-21.8-1.6-29.2,14.5-12.1,23-28,24.6-45.8,1.5-16.4-3.2-33.4-13.4-49.3L80.7,13.4C81.1,14,81.7,14.8,82.3,15.7Z"/><path class="b" d="M76.4,19.5c10.7,16.4,11.9,34.3-3.7,47.3C64.5,73.6,56.4,78.4,57.1,90c.6,9.3,7,18,4.7,27.4-2.6,11-12,15.4-22.2,17.1-9.5,1.6-15.6-3.1-24.7-3.8-8-.6-12.4,3.3-14.9,9l7,1.5c.4-.6.8-1.2,1.2-1.7.8-.9,2.1-1.9,5.1-1.9h1.1a40.6,40.6,0,0,1,8.4,1.8,43.64,43.64,0,0,0,12.8,2.3,29.22,29.22,0,0,0,5.1-.4c15.6-2.7,24.9-10.2,27.8-22.4,1.8-7.5-.4-14.2-2.3-20.1a40.12,40.12,0,0,1-2.3-9.4c-.4-6.3,2.8-9,9.9-14.8,1.1-.9,2.2-1.7,3.3-2.6,16.9-14.2,18.8-35.3,5-56.5-.7-1.1-1.5-2.1-2.2-3.1l-6,3.7A32.5,32.5,0,0,1,76.4,19.5Z"/></svg>