<svg xmlns="http://www.w3.org/2000/svg" viewBox="0 0 120.8 141.2"><defs><style>.a,.b{fill:#f05a5a;}.a{opacity:0.5;}</style></defs><title>sector-170</title><path class="a" d="M29.5,139.1c2.5-10.7,9.2-17,20.5-19.3a23.25,23.25,0,0,1,5.3-.5c5,0,9.5,1.4,13.4,2.7a37.76,37.76,0,0,0,9,2.1h.7c5.3,0,11.9-2.9,13.3-7.6.9-3-.5-7.1-1.9-11.5-1.4-4.2-2.8-8.5-2.9-13.1-.4-14.9,8.8-22.2,16.2-28,5.1-4,9.4-7.5,10.6-12.9,2.5-11.2-8.6-29.6-18.6-35.2a36.32,36.32,0,0,0-5.9-2.3c-4.5-1.4-10.1-3.2-14.4-8.2-.1-.1-.1-.2-.2-.3L53.4,26.2C63,36.5,74.1,40,80.1,42c.1,0,.2.1.3.1.2.3.5.6.7.9-9.4,7.8-23.6,21.8-24.2,46.3H55.4a59.08,59.08,0,0,0-11.2,1.1C21.6,95,5.6,110.3.5,132.2c-.2.8-.3,1.5-.5,2.3l29.6,4.8C29.5,139.3,29.5,139.2,29.5,139.1Z"/><path class="b" d="M36.3,140.7c1.9-8.1,6.7-12.3,15.1-14.1,9.4-1.9,16.6,3.9,25.9,4.4,8.1.4,18.5-4.1,21-12.5,2.7-8.7-4.3-18.1-4.6-26.9-.5-20.7,22.8-21.9,26.6-39.2,3.2-14.5-9.5-35.8-22-42.8C92.2,6.2,84.8,6.2,79.8.6c-.2-.2-.3-.4-.5-.6L74.5,5.2c4.4,5,9.9,6.7,14.4,8.2a36.32,36.32,0,0,1,5.9,2.3c10,5.6,21.1,24,18.6,35.2-1.2,5.4-5.6,8.9-10.6,12.9-7.4,5.9-16.5,13.2-16.2,28,.1,4.7,1.5,9,2.9,13.1,1.5,4.4,2.9,8.6,1.9,11.5-1.4,4.7-8,7.6-13.3,7.6h-.7c-2.9-.1-5.8-1.1-9-2.1-3.9-1.3-8.3-2.7-13.4-2.7a31.68,31.68,0,0,0-5.3.5c-11.3,2.3-18,8.6-20.5,19.3a1.7,1.7,0,0,0-.1.7l6.8,1.5A.51.51,0,0,0,36.3,140.7Z"/></svg>