<svg xmlns="http://www.w3.org/2000/svg" viewBox="0 0 97.5 103.56"><defs><style>.a,.b{fill:#4eb96f;}.a{opacity:0.5;}</style></defs><title>sector-190</title><path class="a" d="M82.5,10.33l-25.8,19c.2-.1.5-.1.7-.2A79.92,79.92,0,0,0,45,41.83l-.2.2c-.5.6-1.1,1.3-1.6,2-1.5,1.8-3,3.7-4.3,5.5,0-.25-.06-.5-.08-.75l.08-.05c-.5-5-.8-10.2-1.1-15.7v-.5L9.4,2.33C6.2,9.13,7,22,7.5,28.63l.1.8.3,5.4c.7,11,1.3,21.7,3.27,32.05l-.07,0a88.81,88.81,0,0,0,6.8,21.6c2.7,5.9,6,8,12.3,8a26.22,26.22,0,0,0,2.7-.1c8.4-.7,10.5-2.3,16.7-9.4a85.37,85.37,0,0,0,7.8-11.2,117.8,117.8,0,0,1,8.7-12.5c.7-.9,1.4-1.7,2-2.5,5.4-6.7,10.6-13,23.2-13h3.6Z"/><path class="b" d="M97.5,51.63c0-.1-.1-.1-.1-.2l-2-3.5h-4c-12.6,0-17.7,6.3-23.2,13-.6.8-1.3,1.6-2,2.5a117.8,117.8,0,0,0-8.7,12.5,79.16,79.16,0,0,1-7.8,11.2c-6.2,7.1-8.3,8.7-16.7,9.4a25.27,25.27,0,0,1-2.7.1c-6.3,0-9.6-2.1-12.3-8a89.18,89.18,0,0,1-6.9-22.2h0C9.19,56.26,8.49,45.78,7.9,34.9l-.3-5.4-.1-.8C7.09,21.8,6.19,8,9.9,1.5L2.9,0C-1,8.9,0,22,.49,30c.8,13.1,1.4,25.7,3.7,38h0A99.14,99.14,0,0,0,11.6,91.53c4.6,9.8,11.4,12.7,21.9,11.9,10.8-.9,14.4-3.7,21.4-11.8,6.4-7.4,10.3-16.3,16.6-23.8,6.6-7.9,9.4-12.9,19.9-12.9V55Z"/></svg>