<svg xmlns="http://www.w3.org/2000/svg" viewBox="0 0 128.7 128.42"><defs><style>.a,.b{fill:#4eb96f;}.a{opacity:0.5;}</style></defs><title>sector-150</title><path class="a" d="M122,109.72c-4.8-6.9-9-18-11.2-25.5-.6-2.1-1-4.1-1.4-6.1h0c-.19-1.43-.38-2.94-.67-4.36-1.2-7.1-2.2-13.2-6.7-17.7-4-3.9-8.9-7.2-14.1-10.7a143.79,143.79,0,0,1-13.6-10c-1.6-1.4-3.2-2.9-4.8-4.3-6.6-5.9-12.8-11.5-20.3-15.8-7-4-17.8-8.3-26.7-8.3S9.2,11,8.3,20.17c-.9,8.6-.6,17.1-.4,26.1.3,10.3.5,20.8-.9,31.4H37.2c1.2-11.4.9-22.2.6-32.1a13.41,13.41,0,0,0-.1-2,144.76,144.76,0,0,1,11.6,9.8l5.1,4.5A169.56,169.56,0,0,0,71,70.27c2.8,1.9,5.4,3.6,7.4,5.2.2,1.1.4,2.3.6,3.3a140.23,140.23,0,0,0,3,14.1c.1.4.3,1,.5,1.6l0,0c1.95,6.51,7.12,21.3,14.93,32.48.3.5.7,1,1,1.5l24.6-17.2A14.31,14.31,0,0,1,122,109.72Z"/><path class="b" d="M127.8,105.64c-3.9-5.6-7.9-15.4-10.2-23.4a76.57,76.57,0,0,1-1.73-7.85l0,0c-1.4-8.4-2.4-16.7-9-23.2-8.1-8-19.3-13.4-28-21S62.6,15,52.7,9.27C34.9-.93,4.2-8.63,1.3,19.57-.6,38.87,2.7,58.07,0,77.17H7.1c1.4-10.4,1.1-20.7.8-30.8-.2-9-.5-17.5.4-26.1.9-9.3,5.2-13.2,14.2-13.2s19.7,4.3,26.7,8.3c7.4,4.2,13.7,9.8,20.3,15.8,1.6,1.4,3.2,2.9,4.8,4.3a128.2,128.2,0,0,0,13.6,10C93.1,49,98,52.27,102,56.17c4.5,4.5,5.6,10.6,6.7,17.7.18,1.29.45,2.65.73,4l0,0c.4,2.1.9,4.2,1.5,6.4,2.2,7.5,6.4,18.6,11.2,25.5.2.3.5.7.7,1l5.9-3.8A14.62,14.62,0,0,0,127.8,105.64Z"/></svg>