<svg xmlns="http://www.w3.org/2000/svg" viewBox="0 0 53.6 81.4"><defs><style>.a,.b{fill:#f05a5a;}.a{opacity:0.5;}</style></defs><title>sector-162</title><path class="a" d="M53.2,53.7a113.41,113.41,0,0,0-7.3-18c-1.1-2.4-2.1-4.6-2.9-6.4-.6-1.4-1.1-2.9-1.6-4.4C38.8,17.9,35.5,9,29.4,0L5.4,18.1c3.5,5.5,5.7,11.4,7.8,17.1.6,1.6,1.2,3.3,1.9,4.9,1.1,2.8,2.3,5.4,3.7,8.2,2.4,5.2,5,10.5,6.4,16.7,1.4,5.9,2.7,9.9,5,12.8L53.6,53.4Z"/><path class="b" d="M8.6,42.8c3.2,8.2,7.7,15.4,9.8,24,1.3,5.4,2.7,10.4,5.6,14.6l6.4-3.2c-2.4-2.9-3.7-7-5.1-13-1.5-6.2-4-11.5-6.4-16.7-1.3-2.8-2.6-5.5-3.7-8.2-.6-1.6-1.3-3.3-1.9-4.9C11.2,29.6,9,23.7,5.5,18.2L0,22.6C3.8,28.8,5.9,35.8,8.6,42.8Z"/></svg>