<svg xmlns="http://www.w3.org/2000/svg" viewBox="0 0 71.2 101.7"><defs><style>.a,.b{fill:#945ba4;}.a{opacity:0.5;}</style></defs><title>sector-100</title><path class="a" d="M40,82.1c5.6-5.1,7.2-12.2,9.1-20.4,1.7-7.4,3.6-15.8,9-23.3A42.51,42.51,0,0,1,69.2,27.9L57.2,0A73,73,0,0,0,33.8,20.8c-9,12.4-12,25.6-13.9,34.2-.5,2.1-1.1,4.7-1.6,6.3A147.27,147.27,0,0,0,0,81.5L25.8,97.2A139.15,139.15,0,0,1,40,82.1Z"/><path class="b" d="M44.8,87.3c13.1-12,8.9-30.8,19-44.8a34.62,34.62,0,0,1,7.4-7.4l-3-6.5a42.67,42.67,0,0,0-10.1,9.8c-5.4,7.5-7.3,15.9-9,23.3C47.2,69.9,45.6,77,40,82.1A122.59,122.59,0,0,0,25,98.2l6.2,3.5A127.38,127.38,0,0,1,44.8,87.3Z"/></svg>