<svg xmlns="http://www.w3.org/2000/svg" viewBox="0 0 53.8 69.1"><defs><style>.a,.b{fill:#efc319;}.a{opacity:0.5;}</style></defs><title>sector-110</title><path class="a" d="M25.4,5.6c-3.2,4.1-5,10.6-6.7,16.8-1,3.6-2,7.3-3.3,10.7A99.78,99.78,0,0,1,5.9,51.5L30.2,69.1A133.56,133.56,0,0,0,43.4,43.9a131,131,0,0,0,4.3-13.7,66.23,66.23,0,0,1,2.1-7,50.21,50.21,0,0,1,4-4L27.5,3.2A16.41,16.41,0,0,0,25.4,5.6Z"/><path class="b" d="M19.9,1.2c-6.2,7.9-7.5,20.2-11,29.4A96.26,96.26,0,0,1,0,47.8l6,3.7a109.05,109.05,0,0,0,9.5-18.3c1.3-3.4,2.3-7.1,3.3-10.7,1.7-6.2,3.4-12.7,6.7-16.8.7-.9,1.4-1.7,2.1-2.5L21.2,0A7.41,7.41,0,0,0,19.9,1.2Z"/></svg>