<svg xmlns="http://www.w3.org/2000/svg" viewBox="0 0 58.93 49.02"><defs><style>.a,.b{fill:#f05a5a;}.a{opacity:0.5;}</style></defs><title>sector-230</title><path class="a" d="M16.83,35.8c-2.1,2.2-4.4,4.7-4.9,5.3-.1.1-.1.2-.2.3l4.8-.7c8.9-1.2,18.1-2.5,27-3.9a81.54,81.54,0,0,0,13.8-3.3l-2.8-16.9-14.1-15C42.23,7.2,37.23,14.1,16.83,35.8Z"/><path class="b" d="M6.43,36.8c-6.7,8.9-11.8,13.9,4.1,11.7,11.4-1.6,22.8-3.1,34.1-4.8a106.54,106.54,0,0,0,14.3-3.3L57,33.7a86.86,86.86,0,0,1-13.4,3.1c-9,1.4-18.1,2.6-27,3.9l-4.8.7c.1-.1.1-.2.2-.3.5-.6,2.8-3.1,4.9-5.3C39.33,11.9,43.13,6,39.83,0l-6.1,3.4C35.33,7.2,8.73,33.8,6.43,36.8Z"/></svg>