<svg xmlns="http://www.w3.org/2000/svg" viewBox="0 0 115.8 88.6"><defs><style>.a,.b{fill:#efc319;}.a{opacity:0.5;}</style></defs><title>sector-161</title><path class="a" d="M31.2,37.6c9.2,4.2,16,10.5,22.5,16.5,3.2,3,6.5,6,10,8.8A52.37,52.37,0,0,0,72.4,68c4.9,2.5,10.4,5.3,15,10.4a39.46,39.46,0,0,1,4.4,5.7l24-18.1a83,83,0,0,0-6.1-7.8c-8.3-9.1-17.5-13.8-23.5-16.9-1.4-.7-3.3-1.7-4-2.1-2.5-2-5.2-4.4-8-7.1-7.5-7-16.8-15.7-30.5-21.9C29,3.6,15.5.3,1.5,0L.2,30C10.4,30.1,20,32.5,31.2,37.6Z"/><path class="b" d="M87.4,78.5c-4.6-5.1-10.1-7.9-15-10.4A51.35,51.35,0,0,1,63.8,63a.1.1,0,0,1-.1-.1c-3.5-2.8-6.8-5.8-10-8.8-6.5-6-13.3-12.3-22.5-16.5C20.1,32.5,10.5,30.2.3,30L0,37c8.9.1,17.6,2.1,28.2,7,12.1,5.5,19.6,15.2,30.1,23.6.4.3.7.6,1.1.9,7.4,5.8,16.3,7.6,22.9,14.7a34.26,34.26,0,0,1,4,5.4l5.5-4.4A39.46,39.46,0,0,0,87.4,78.5Z"/></svg>