<svg xmlns="http://www.w3.org/2000/svg" viewBox="0 0 114.3 80.1"><defs><style>.a,.b{fill:#c4549a;}.a{opacity:0.5;}</style></defs><title>sector-220</title><path class="a" d="M99.6,46.5C91.1,48.1,81.4,50,72.1,50,57.7,50,47,45.3,40.4,36.2S30.9,14.6,29.3,2.6L0,9.9C2.2,24.5,6.4,40.3,16,53.8c8.7,12,25.4,26.3,56,26.3,12.1,0,23.8-2.2,33.1-4,3.5-.7,6.8-1.3,9.2-1.6L99.8,46.4C99.7,46.4,99.7,46.5,99.6,46.5Z"/><path class="b" d="M46.1,32c-6-8.4-8.6-20.4-10-32L29.2,1.6c1.6,12.3,4.4,25.1,11.2,34.5C47,45.3,57.7,49.9,72.1,49.9c9.3,0,19-1.8,27.5-3.5l-3.3-6.5C78.5,43.3,56.8,46.9,46.1,32Z"/></svg>