<svg xmlns="http://www.w3.org/2000/svg" viewBox="0 0 39.48 88.4"><defs><style>.a,.b{fill:#efc319;}.a{opacity:0.5;}</style></defs><title>sector-200</title><path class="a" d="M30.78,66c-.2-1.8-.3-3.6-.5-5.3-.8-8.9-.3-16.4.3-24.4l.2-2.6c.2-3,.2-6,.3-9.2,0-6.3.1-12.8,1.7-19.7L3.18,0a117.41,117.41,0,0,0-2,24.3c0,2.8,0,5.2-.2,7.2L.78,34c-.6,8.4-1.3,18-.2,29.4.1,1.5.3,3.1.4,4.7v.3c.5,6.1,1.1,12.9,2.2,20l29.3-7.3C31.68,76,31.28,70.8,30.78,66Z"/><path class="b" d="M37.28,60c-.9-9.2-.1-17.1.5-25.8.7-9.1-.4-18.2,1.7-27.4l-6.8-1.5c-1.5,6.7-1.5,13.1-1.6,19.2,0,3.2,0,6.2-.3,9.2l-.2,2.6c-.6,8-1.1,15.5-.3,24.4.2,1.7.3,3.5.5,5.3.4,4.6.8,9.5,1.5,14.4l6.9-1.6C38.28,72.2,37.88,65.7,37.28,60Z"/></svg>