<svg xmlns="http://www.w3.org/2000/svg" viewBox="0 0 80.9 121.6"><defs><style>.a,.b{fill:#efc319;}.a{opacity:0.5;}</style></defs><title>sector-130</title><path class="a" d="M13.2,32.7c9.1,12.7,14.5,29,19,44.7.4,1.3.8,2.7,1.1,4,2.2,7.9,4.5,16.1,8.5,22.9a49,49,0,0,0,6.3,7.8,71.21,71.21,0,0,1,5.6,6.4l27.2-13.4a2.09,2.09,0,0,0-.4-.6,90.71,90.71,0,0,0-10.6-13c-.9-.9-2-2.1-2.5-2.7-1.9-3.5-3.6-9.6-5.3-15.4l-1.2-4.2C55.6,50.9,49.2,31.7,37.5,15.3A91.67,91.67,0,0,0,23.9,0L4.6,23.1A53,53,0,0,1,13.2,32.7Z"/><path class="b" d="M25.5,79.4c2.7,9.5,5.2,19.7,10.3,28.5,3.1,5.3,7.7,9.1,11.4,13.7l6-3.7a71.06,71.06,0,0,0-5.1-5.7,44.91,44.91,0,0,1-6.3-7.8c-3.9-6.8-6.2-14.9-8.5-22.9-.4-1.3-.8-2.7-1.1-4-4.5-15.7-10-32-19-44.7A60.12,60.12,0,0,0,4.1,22.6L0,28.3C13.3,40.5,20.1,60.4,25.5,79.4Z"/></svg>