<svg xmlns="http://www.w3.org/2000/svg" viewBox="0 0 86.4 85.9"><defs><style>.a,.b{fill:#4eb96f;}.a{opacity:0.5;}</style></defs><title>sector-50</title><path class="a" d="M36,19.3,79.4.3C75.3,18.7,61,36.9,53.7,45.4c-5.5,6.3-12.9,11.8-20.1,17.1-2.8,2.1-5.7,4.2-8.4,6.4-1.9,1.5-3.8,3.1-5.7,4.7-2.9,2.4-5.8,4.9-8.7,7L0,50.9l.1-.1c2-1.7,4.2-3.6,6.6-5.5,3.1-2.4,6.2-4.7,9.1-6.9,5.9-4.4,12-8.9,15.3-12.7,1.9-2.2,3.6-4.3,5.2-6.3Z"/><path class="b" d="M29.4,74.3c9.8-7.7,21.3-15,29.5-24.4C69.8,37.3,82.6,19,86.4.8l-7-.8C75.4,18.4,61,36.8,53.6,45.3c-5.5,6.3-12.9,11.8-20.1,17.1-2.8,2.1-5.7,4.2-8.4,6.4-1.9,1.5-3.8,3.1-5.7,4.7-2.9,2.4-5.8,4.9-8.7,6.9l4.4,5.5C20.1,82.5,24.8,78,29.4,74.3Z"/></svg>