<svg width="131" height="43" viewBox="0 0 131 43" version="1.1" xmlns="http://www.w3.org/2000/svg" xmlns:xlink="http://www.w3.org/1999/xlink">
  <g data-name="Accio" fill="#FFFFFF">
    <path d="M 17.4 0L 34.8 30.1857L 0 30.1857L 17.4 0Z" transform="translate(0 12.5449)" />
    <path d="M 15.3777 15.4095L 24.8571 27.6104C 23.6213 28.5955 22.2169 29.3836 20.6441 29.9746C 19.0712 30.5375 17.3157 30.819 15.3777 30.819C 13.2712 30.819 11.277 30.4109 9.39515 29.5947C 7.5414 28.7785 5.91235 27.6808 4.50799 26.3017C 3.13172 24.8944 2.03632 23.262 1.22179 21.4044C 0.407263 19.5187 0 17.5204 0 15.4095C 0 13.2986 0.407263 11.3144 1.22179 9.45679C 2.03632 7.57106 3.13172 5.93864 4.50799 4.55952C 5.91235 3.15226 7.5414 2.04053 9.39515 1.22432C 11.277 0.408105 13.2712 0 15.3777 0C 16.9787 0 18.5375 0.253307 20.0542 0.75992C 21.5709 1.23839 22.9753 1.94202 24.2673 2.87081L 15.3777 15.4095Z"
      transform="translate(35.5859 12.1807)" />
    <path d="M 15.3777 15.4095L 24.8571 27.6104C 23.6213 28.5955 22.2169 29.3836 20.6441 29.9746C 19.0712 30.5375 17.3157 30.819 15.3777 30.819C 13.2712 30.819 11.277 30.4109 9.39515 29.5947C 7.5414 28.7785 5.91235 27.6808 4.50799 26.3017C 3.13172 24.8944 2.03632 23.262 1.22179 21.4044C 0.407263 19.5187 0 17.5204 0 15.4095C 0 13.2986 0.407263 11.3144 1.22179 9.45679C 2.03632 7.57106 3.13172 5.93864 4.50799 4.55952C 5.91235 3.15226 7.5414 2.04053 9.39515 1.22432C 11.277 0.408105 13.2712 0 15.3777 0C 16.9787 0 18.5375 0.253307 20.0542 0.75992C 21.5709 1.23839 22.9753 1.94202 24.2673 2.87081L 15.3777 15.4095Z"
      transform="translate(61.875 12.1807)" />
    <path d="M 2.6121 42.0912L 0.842617 42.0912L 0.842617 14.7762L 2.6121 14.7762L 2.6121 42.0912ZM 3.45471 10.4278L 0 10.4278L 0 0L 3.45471 0L 3.45471 10.4278Z"
      transform="translate(90.998 0)" />
    <path d="M 0 15.4095C 0 13.2986 0.393224 11.3144 1.17966 9.45679C 1.99419 7.57106 3.08959 5.93864 4.46586 4.55952C 5.87022 3.15226 7.49928 2.04053 9.35303 1.22432C 11.2349 0.408106 13.2431 0 15.3777 0C 17.5124 0 19.5065 0.408106 21.3603 1.22432C 23.2421 2.04053 24.8712 3.15226 26.2475 4.55952C 27.6518 5.93864 28.7472 7.57106 29.5337 9.45679C 30.3482 11.3144 30.7554 13.2986 30.7554 15.4095C 30.7554 17.5485 30.3482 19.5609 29.5337 21.4466C 28.7472 23.3042 27.6518 24.9366 26.2475 26.3439C 24.8712 27.723 23.2421 28.8207 21.3603 29.6369C 19.5065 30.425 17.5124 30.819 15.3777 30.819C 13.2431 30.819 11.2349 30.425 9.35303 29.6369C 7.49928 28.8207 5.87022 27.723 4.46586 26.3439C 3.08959 24.9366 1.99419 23.3042 1.17966 21.4466C 0.393224 19.5609 0 17.5485 0 15.4095Z"
      transform="translate(99.8896 12.1807)" />
  </g>
</svg>