<svg width="16" height="26" viewBox="0 0 16 26" version="1.1" xmlns="http://www.w3.org/2000/svg" xmlns:xlink="http://www.w3.org/1999/xlink">
  <g id="Canvas" transform="translate(8 26)">
    <use xlink:href="#path0_stroke" transform="matrix(6.12323e-17 -1 1 6.12323e-17 0 0)" fill="#00BBF1" />
  </g>
  <defs>
    <path id="path0_stroke" d="M 25.7071 0.707107C 26.0976 0.316582 26.0976 -0.316582 25.7071 -0.707107L 19.3431 -7.07107C 18.9526 -7.46159 18.3195 -7.46159 17.9289 -7.07107C 17.5384 -6.68054 17.5384 -6.04738 17.9289 -5.65685L 23.5858 0L 17.9289 5.65685C 17.5384 6.04738 17.5384 6.68054 17.9289 7.07107C 18.3195 7.46159 18.9526 7.46159 19.3431 7.07107L 25.7071 0.707107ZM 0 1L 25 1L 25 -1L 0 -1L 0 1Z"
    />
  </defs>
</svg>