<svg width="50" height="50" viewBox="0 0 50 50" fill="none" xmlns="http://www.w3.org/2000/svg">
  <mask id="mask0" mask-type="alpha" maskUnits="userSpaceOnUse" x="0" y="0" width="50" height="50">
    <circle cx="25" cy="25" r="25" fill="#C4C4C4" />
  </mask>
  <g mask="url(#mask0)">
    <path d="M36.9792 42.9816C35.1167 39.867 31.7082 37.7813 27.8118 37.7813C23.9154 37.7813 20.5068 39.867 18.6444 42.9816C16.8374 46.3029 13.3732 48.4375 9.3222 48.4375C5.27116 48.4375 1.807 46.3029 0 42.9816V5.20029C1.807 8.52164 5.27116 10.6562 9.3222 10.6562C13.3732 10.6562 16.8374 8.52164 18.6444 5.20029C20.5068 2.08576 23.9154 0 27.8118 0C31.7082 0 35.1167 2.08576 36.9792 5.20029C38.7862 8.52164 42.2503 10.6562 46.3014 10.6562C50.3524 10.6562 53.8166 8.52164 55.6236 5.20029V42.9816C53.8166 46.3029 50.3524 48.4375 46.3014 48.4375C42.2503 48.4375 38.7862 46.3029 36.9792 42.9816Z"
      transform="translate(-2.81177 17.625)" fill="white" />
    <path id="lines" d="M0 30.3878C1.807 33.7092 5.27116 35.8437 9.3222 35.8437C13.3732 35.8437 16.8374 33.7092 18.6444 30.3878C20.5068 27.2733 23.9154 25.1875 27.8118 25.1875C31.7082 25.1875 35.1167 27.2733 36.9792 30.3878C38.7862 33.7092 42.2503 35.8437 46.3014 35.8437C50.3524 35.8437 53.8166 33.7092 55.6236 30.3878M0 24.0909C1.807 27.4123 5.27116 29.5469 9.3222 29.5469C13.3732 29.5469 16.8374 27.4123 18.6444 24.0909C20.5068 20.9764 23.9154 18.8906 27.8118 18.8906C31.7082 18.8906 35.1167 20.9764 36.9792 24.0909C38.7862 27.4123 42.2503 29.5469 46.3014 29.5469C50.3524 29.5469 53.8166 27.4123 55.6236 24.0909M0 17.794C1.807 21.1154 5.27116 23.25 9.3222 23.25C13.3732 23.25 16.8374 21.1154 18.6444 17.794C20.5068 14.6795 23.9154 12.5938 27.8118 12.5938C31.7082 12.5938 35.1167 14.6795 36.9792 17.794C38.7862 21.1154 42.2503 23.25 46.3014 23.25C50.3524 23.25 53.8166 21.1154 55.6236 17.794M0 11.4972C1.807 14.8185 5.27116 16.9531 9.3222 16.9531C13.3732 16.9531 16.8374 14.8185 18.6444 11.4972C20.5068 8.38264 23.9154 6.29688 27.8118 6.29688C31.7082 6.29688 35.1167 8.38264 36.9792 11.4972C38.7862 14.8185 42.2503 16.9531 46.3014 16.9531C50.3524 16.9531 53.8166 14.8185 55.6236 11.4972M0 5.20029C1.807 8.52164 5.27116 10.6562 9.3222 10.6562C13.3732 10.6562 16.8374 8.52164 18.6444 5.20029C20.5068 2.08576 23.9154 0 27.8118 0C31.7082 0 35.1167 2.08576 36.9792 5.20029C38.7862 8.52164 42.2503 10.6562 46.3014 10.6562C50.3524 10.6562 53.8166 8.52164 55.6236 5.20029"
      transform="translate(-2.81177 17.625)" stroke="#5A5A5A" />
    <circle cx="25" cy="25" r="24" stroke="#5A5A5A" stroke-width="2" />
  </g>
</svg>