<svg width="13" height="20" viewBox="0 0 13 20" fill="none" xmlns="http://www.w3.org/2000/svg">
  <path fill-rule="evenodd" clip-rule="evenodd" d="M1.88679 6.79245L0.535632 5.44129C0.239811 5.14547 0 4.56848 0 4.1499V0.755758C0 0.338365 0.334992 0 0.754717 0C1.17154 0 1.50943 0.339689 1.50943 0.751705V3.77525C1.50943 3.98274 1.67693 4.15094 1.88679 4.15094C2.0952 4.15094 2.26415 3.98308 2.26415 3.77525V0.751705C2.26415 0.33655 2.59914 0 3.01887 0C3.43569 0 3.77358 0.339689 3.77358 0.751705V3.77525C3.77358 3.98274 3.94108 4.15094 4.15094 4.15094C4.35935 4.15094 4.5283 3.98308 4.5283 3.77525V0.751705C4.5283 0.33655 4.86329 0 5.28302 0C5.69984 0 6.03774 0.337186 6.03774 0.755758V4.1499C6.03774 4.5673 5.79877 5.14462 5.5021 5.44129L4.15094 6.79245V18.8682C4.15094 19.4933 3.64282 20 3.01887 20C2.39364 20 1.88679 19.4903 1.88679 18.8682V6.79245Z"
    fill="#261A12" />
  <path fill-rule="evenodd" clip-rule="evenodd" d="M10.1887 12.0755C9.56345 12.0755 9.0566 11.4004 9.0566 10.5644V1.51104C9.0566 0.676516 9.73572 0 10.566 0H10.9434C11.777 0 12.4528 0.676896 12.4528 1.51145V18.8674C12.4528 19.4929 11.9447 20 11.3208 20C10.6955 20 10.1887 19.4922 10.1887 18.8646V12.0755Z"
    fill="#261A12" />
</svg>