<svg width="20" height="15" viewBox="0 0 20 15" fill="none" xmlns="http://www.w3.org/2000/svg">
  <path d="M9.5 1.41538V12.941C6.94563 11.826 4.79953 11.8581 2.25 12.9727C2.25 8.75044 2.25 4.49783 2.25 0.289006C2.97642 0.127686 3.64922 0.0251453 4.25782 0.00345279C6.12232 -0.0587197 8.11682 0.730577 9.5 1.41538ZM15.5078 0.0113568C16.1858 0.0185818 16.9258 0.105955 17.75 0.28899C17.7455 4.6659 17.7503 9.20653 17.75 12.9727C15.2005 11.8581 13.0544 11.8259 10.5 12.941V1.42328C12.2757 0.680993 13.4688 0.00810184 15.5078 0.0113568ZM1.25 1.39158C1.25 5.7702 1.25 10.1488 1.25 14.5275C4.46875 12.9995 7.21875 12.9995 9.5 14.0357V14.9796H0V1.50263C0.43395 1.23883 0.8117 1.24305 1.25 1.39158ZM20 1.50263V14.9796H10.5V14.0357C12.7188 12.9995 15.9568 13.1403 18.75 14.5275C18.75 10.1488 18.75 5.7702 18.75 1.39158C19.1742 1.21964 19.636 1.25499 20 1.50263Z"
    fill="#261A12" />
</svg>