<svg width="20" height="19" viewBox="0 0 20 19" fill="none" xmlns="http://www.w3.org/2000/svg">
  <path d="M19.3752 17.2646C19.373 17.778 18.9476 18.1922 18.4364 18.1898H3.18101V18.819H18.4344C19.294 18.8234 19.9954 18.1356 20 17.2714L19.3752 17.2646Z"
    fill="#261A12" />
  <path d="M14.8145 3.06556C15.6605 3.06556 16.3461 2.37797 16.3461 1.53178C16.3461 0.685591 15.6605 0 14.8145 0C13.9683 0 13.2805 0.685391 13.2805 1.53158C13.2805 2.37777 13.9681 3.06556 14.8145 3.06556Z"
    fill="#261A12" />
  <path d="M5.09953 16.2597L0 11.1446L0.00219997 12.0382L4.74874 16.8029C5.29393 17.3933 6.22832 16.7101 6.22832 16.7101L5.78033 16.2305C5.78033 16.2305 5.33913 16.5201 5.11053 16.2735L5.09953 16.2597Z"
    fill="#261A12" />
  <path d="M5.2623 6.61183H0.0429682V7.23502H5.2623V6.61183Z" fill="#261A12" />
  <path d="M19.3707 5.12318L19.9659 5.37317L14.0406 17.3006H13.3844L19.3707 5.12318Z" fill="#261A12" />
  <path d="M9.53826 4.20356L7.15369 6.95692C7.01349 7.13112 6.7985 7.23872 6.5587 7.23872C6.1311 7.23872 5.78731 6.89372 5.78731 6.46833C5.78731 6.23753 5.88691 6.03173 6.04751 5.89033L8.61767 2.92997C8.76007 2.76037 8.97287 2.65058 9.21267 2.65058L12.9342 2.64958C13.208 2.64958 13.4522 2.75937 13.6334 2.93337L16.0066 5.30554L17.9726 3.34297C18.1106 3.22657 18.2893 3.15637 18.4839 3.15637C18.9251 3.15637 19.2803 3.51396 19.2803 3.95276C19.2803 4.14516 19.2147 4.31935 19.1015 4.45715L16.7306 6.84592C16.011 7.56431 15.432 6.95452 15.432 6.95452L13.9774 5.49294L11.7034 8.12211L13.7872 10.2057C13.7872 10.2057 14.226 10.6131 13.9748 11.4253L12.8074 16.629C12.7146 17.0814 12.3142 17.4208 11.8368 17.4208C11.2892 17.4208 10.8458 16.9772 10.8458 16.4298C10.8458 16.3438 10.8548 16.26 10.8774 16.181L11.8366 11.9107L9.47046 9.60949L7.43429 11.8799C7.43429 11.8799 7.10409 12.2873 6.2307 12.2555L2.10176 12.2623C1.64016 12.2713 1.22157 11.9547 1.11757 11.4875C0.99537 10.9535 1.32577 10.4309 1.85956 10.3121C1.94336 10.2927 2.02696 10.2861 2.10856 10.2883L5.66051 10.2985L10.9116 4.21036L9.53826 4.20356Z"
    fill="#261A12" />
</svg>