<svg width="17" height="20" viewBox="0 0 17 20" fill="none" xmlns="http://www.w3.org/2000/svg">
  <path fill-rule="evenodd" clip-rule="evenodd" d="M16.1477 12.8298C15.9656 13.0063 15.7517 13.0988 15.5064 13.108V13.1214H9.38121V10.0225H9.26467L7.4485 11.8384V15.3632C7.45141 15.3933 7.45287 15.4246 7.45287 15.4574C7.45287 15.4872 7.45141 15.5171 7.4485 15.547V15.5785C7.42154 15.7876 7.33195 15.9702 7.17947 16.1256C6.99397 16.3079 6.77132 16.3992 6.51127 16.3992C6.25123 16.3992 6.02688 16.3079 5.83871 16.1256C5.68622 15.9702 5.59639 15.7876 5.56944 15.5785H5.56045V11.1571L7.69518 9.01822L5.52913 6.79827L5.52015 9.52957H1.00909C0.982142 9.53248 0.95519 9.53394 0.928239 9.53394C0.67111 9.54001 0.451615 9.45187 0.269027 9.26928C0.0895946 9.09009 4.63112e-08 8.87181 4.63112e-08 8.61468C4.63112e-08 8.36047 0.0895946 8.14218 0.269027 7.95984C0.451372 7.77167 0.67111 7.6743 0.928239 7.66848C0.973158 7.66848 1.01808 7.67163 1.06275 7.6777H3.66804V4.87914L6.38987 2.15731H11.0447L13.4479 4.56083C13.4659 4.57564 13.4839 4.59191 13.5018 4.61012C13.5198 4.63124 13.5378 4.65188 13.556 4.673L13.5963 4.7087L13.5914 4.71331C13.7143 4.87769 13.7755 5.06732 13.7755 5.28268C13.7755 5.54006 13.6844 5.76271 13.5018 5.95088C13.3166 6.13323 13.0922 6.22452 12.8293 6.22452C12.5721 6.22452 12.3492 6.13323 12.1611 5.95088C12.1159 5.90329 12.0759 5.85376 12.0402 5.80301L10.3223 4.08542H8.31798V4.12135L11.2688 7.07191V11.1928H15.3807C15.4105 11.1899 15.4406 11.1882 15.4705 11.1882C15.7334 11.1882 15.9593 11.2824 16.1474 11.4708C16.3327 11.656 16.4257 11.8819 16.4257 12.148C16.4257 12.4112 16.3327 12.6384 16.1477 12.8298ZM1.84749 0.560877C2.22141 0.186959 2.67109 4.53849e-08 3.19724 4.53849e-08C3.7234 4.53849e-08 4.17331 0.186959 4.54723 0.560877C4.92091 0.934552 5.10762 1.38447 5.10762 1.91038C5.10762 2.43654 4.92066 2.88645 4.54723 3.26037C4.17331 3.63405 3.7234 3.821 3.19724 3.821C2.67109 3.821 2.22117 3.63405 1.84749 3.26037C1.47382 2.88645 1.2871 2.43654 1.2871 1.91038C1.2871 1.38447 1.47382 0.934552 1.84749 0.560877ZM14.1477 16.0404C14.3393 16.0612 14.4973 16.1494 14.6229 16.305C14.7457 16.4604 14.7965 16.6367 14.7753 16.8343C14.7545 17.0283 14.6663 17.1883 14.5109 17.3139L13.4708 18.1438C13.3389 18.2482 13.191 18.3004 13.0267 18.3004H4.98646C4.80412 18.3004 4.64411 18.2389 4.50644 18.1168L3.47064 17.184C3.32131 17.0492 3.24337 16.8851 3.23755 16.6906C3.22249 16.4932 3.28247 16.3198 3.41674 16.1705C3.54834 16.0209 3.71271 15.9432 3.91011 15.9372C4.1046 15.9221 4.27796 15.9821 4.4302 16.1164L5.25986 16.8654H12.7756L13.6186 16.1926C13.774 16.0675 13.9505 16.0166 14.1477 16.0404ZM12.2553 19.7936C12.1208 19.6591 12.0538 19.4918 12.0538 19.2915C12.0538 19.0941 12.1208 18.9251 12.2553 18.785C12.393 18.65 12.5617 18.583 12.762 18.583C12.9563 18.583 13.1219 18.65 13.2598 18.785C13.4003 18.9251 13.4708 19.0941 13.4708 19.2915C13.4708 19.4918 13.4003 19.6593 13.2598 19.7936C13.1221 19.931 12.9563 20 12.762 20C12.5617 20 12.3932 19.9313 12.2553 19.7936ZM5.22854 20C5.02823 20 4.85924 19.9313 4.72181 19.7936C4.58729 19.6591 4.52004 19.4918 4.52004 19.2915C4.52004 19.0941 4.58729 18.9251 4.72181 18.785C4.85924 18.65 5.02823 18.583 5.22854 18.583C5.42278 18.583 5.58862 18.65 5.72629 18.785C5.86687 18.9251 5.93704 19.0941 5.93704 19.2915C5.93704 19.4918 5.86663 19.6593 5.72629 19.7936C5.58886 19.9313 5.42303 20 5.22854 20Z"
    fill="#261A12" />
</svg>