<svg width="20" height="12" viewBox="0 0 20 12" fill="none" xmlns="http://www.w3.org/2000/svg">
  <path fill-rule="evenodd" clip-rule="evenodd" d="M13.0921 1.76236C12.4253 1.02334 11.6168 0.408417 10.5711 0C8.80009 1.08844 6.76842 1.56731 5.25884 3.26558L6.2977 3.99698C5.65328 4.20907 4.9875 4.32122 4.28077 4.24518C3.25718 2.72899 2.15323 1.8323 0.369252 1.38522C0.273378 2.77756 0.582363 3.99723 1.39285 5.14569C0.514973 6.2916 0.156398 7.29485 0 8.71085C1.53298 8.31845 2.86784 7.83501 4.11014 6.81142C4.3881 7.038 4.67089 7.24679 4.958 7.4393C4.77846 8.05371 4.39191 9.48801 4.73421 9.86211C5.60191 9.35832 6.54184 8.96287 7.58146 8.71823C8.25944 8.94075 8.95345 9.09486 9.65865 9.18971L9.69807 11.3834C10.5955 10.5213 11.8902 9.80438 12.7419 9.25762C13.6861 9.18387 14.6395 9.03154 15.5929 8.82046C15.1232 8.18164 14.8572 7.72337 14.7695 6.90247C15.0584 7.66667 15.4994 8.22385 16.2038 8.64295C17.5178 8.54657 18.7421 8.16053 19.8923 7.52171C20.1057 7.34598 19.0376 6.99097 19.0386 6.74301C19.0396 6.50167 20.1161 6.36638 19.9897 6.15836C18.1434 4.16559 15.8096 2.05177 13.0921 1.76237L13.0921 1.76236ZM17.1249 4.87917C17.472 4.87917 17.753 5.15408 17.753 5.49384C17.753 5.83232 17.472 6.10723 17.1249 6.10723C16.7773 6.10723 16.4968 5.83232 16.4968 5.49384C16.4968 5.15408 16.7773 4.87917 17.1249 4.87917Z"
    fill="#261A12" />
</svg>