<svg width="15" height="20" viewBox="0 0 15 20" fill="none" xmlns="http://www.w3.org/2000/svg">
<path d="M1.65938 3.31896C2.57557 3.31936 3.31956 2.57557 3.31896 1.65898C3.31956 0.740994 2.57557 -0.00199595 1.65938 4.02817e-06C0.741596 -0.00199595 -0.00239409 0.740994 5.88164e-06 1.65898C-0.00219409 2.57557 0.741796 3.31936 1.65938 3.31896Z" transform="translate(9.25391)" fill="black"/>
<path d="M5.5483 2.58677L5.5583 15.267C5.5615 16.5326 7.42687 16.5212 7.42247 15.2376L7.43227 7.8585H7.79347V15.2282C7.78947 16.518 9.67664 16.5504 9.67784 15.2672V2.52797H10.0096V7.07711C10.0054 8.17049 11.4866 8.17049 11.4832 7.09671V2.12797C11.4866 0.78679 10.4914 -0.000599505 9.44325 4.87181e-07H6.48548C5.78469 -0.000399508 5.2763 0.276797 4.84551 0.888389L3.35173 3.06516H0.76516C-0.280826 3.06496 -0.222627 4.54294 0.74576 4.53934H3.73272C3.96512 4.54294 4.24971 4.45594 4.41611 4.20714L5.5483 2.58677Z" transform="translate(3.22754 3.78711)" fill="black"/>
<path d="M1.21058 1.20998V-4.76068e-07H-5.64568e-08V1.20998H1.21058Z" transform="translate(2.69336 12.9336)" fill="black"/>
<path d="M1.77658 0.878188L0.888388 3.41792e-07L-7.32412e-08 0.878188L0.888388 1.76678L1.77658 0.878188Z" transform="translate(2.79102 10.5723)" fill="black"/>
<path d="M1.76718 0.878188L0.878588 9.7655e-08L4.11982e-08 0.878188L0.878588 1.76658L1.76718 0.878188Z" transform="translate(1.97168 8.90234)" fill="black"/>
<path d="M5.57393 8.38529L7.1553 -3.53999e-07H5.96472L4.58794 7.2139H2.53797L1.18138 -3.53999e-07H0L1.54258 8.38529H5.57393Z" transform="translate(0 11.6064)" fill="black"/>
</svg>
