<svg width="25" height="21" viewBox="0 0 25 21" fill="none" xmlns="http://www.w3.org/2000/svg">
<path fill-rule="evenodd" clip-rule="evenodd" d="M6.99725 5.08517C7.79239 5.08517 8.58753 5.16463 9.30316 5.403L11.6886 0C11.6886 0.0794558 11.6886 0.158912 11.7681 0.158912L11.9271 0.397279L12.1657 0.317823C12.2452 0.317823 12.2452 0.317823 12.3247 0.317823L9.93927 5.64136C11.6886 6.35647 13.1198 7.62776 13.756 9.29633C13.5174 9.37579 13.2789 9.5347 13.1198 9.77307C13.0403 9.85252 12.9608 10.0114 12.8018 10.0909C12.6428 10.1703 12.3247 10.1703 12.0862 10.0909C12.0066 10.0114 11.9271 9.85252 11.8476 9.77307C11.45 9.05796 10.5754 9.05796 10.1778 9.77307C10.0983 9.85252 10.0188 10.0114 9.85976 10.0909C9.70073 10.1703 9.38267 10.1703 9.14413 10.0909C9.06462 10.0114 8.90559 9.85252 8.82607 9.77307C8.50802 9.05796 7.55385 9.05796 7.23579 9.77307C7.15628 9.85252 7.07676 10.0114 6.91773 10.0909C6.67919 10.1703 6.44065 10.1703 6.20211 10.0909C6.04308 10.0114 5.96356 9.85252 5.88405 9.77307C5.56599 9.05796 4.61182 9.05796 4.29377 9.77307C4.21425 9.85252 4.05522 10.0114 3.97571 10.0909C3.73717 10.1703 3.49862 10.1703 3.26008 10.0909C3.10105 10.0114 3.02154 9.85252 2.94202 9.77307C2.62397 9.05796 1.6698 9.05796 1.27223 9.77307C1.27223 9.85252 1.1132 10.0114 1.03368 10.0909C0.795142 10.1703 0.556599 10.1703 0.318057 10.0909C0.159028 10.0114 0.0795142 9.93198 0 9.77307C0.795142 7.07157 3.65765 5.08517 6.99725 5.08517Z" transform="translate(4.1416 8.50488)" fill="black"/>
<path d="M0.086684 0.674205C-0.231373 0.19747 0.404741 -0.279265 0.722797 0.19747C0.802312 0.435838 0.96134 0.594749 1.19988 0.753661C1.59745 0.992028 2.07454 0.992028 2.55162 0.753661C2.71065 0.594749 2.86968 0.435838 3.02871 0.19747C3.18774 -0.0408974 3.50579 -0.0408974 3.66482 0.19747C3.74434 0.435838 3.98288 0.594749 4.14191 0.753661C4.53948 0.992028 5.09608 0.992028 5.49365 0.753661C5.65268 0.594749 5.81171 0.435838 5.97073 0.19747C6.12976 -0.0408974 6.44782 -0.0408974 6.60685 0.19747C6.68636 0.435838 6.9249 0.594749 7.08393 0.753661C7.4815 0.992028 8.0381 0.992028 8.43567 0.753661C8.5947 0.594749 8.75373 0.435838 8.91276 0.19747C9.07179 -0.0408974 9.38984 -0.0408974 9.54887 0.19747C9.62839 0.435838 9.86693 0.594749 10.026 0.753661C10.4235 0.992028 10.9801 0.992028 11.3777 0.753661C11.5367 0.594749 11.6958 0.435838 11.8548 0.19747C12.0138 -0.0408974 12.3319 -0.0408974 12.4909 0.19747C12.6499 0.435838 12.809 0.594749 12.968 0.753661C13.4451 0.992028 13.9222 0.992028 14.3197 0.753661C14.5583 0.594749 14.7173 0.435838 14.7968 0.19747C14.9558 -0.0408974 15.3534 -0.0408974 15.4329 0.19747C15.5919 0.435838 15.751 0.594749 15.9895 0.753661C16.3871 0.992028 16.8642 0.992028 17.2617 0.753661C17.5003 0.594749 17.6593 0.435838 17.7388 0.19747C17.8979 -0.0408974 18.2954 -0.0408974 18.3749 0.19747C18.534 0.435838 18.693 0.594749 18.9315 0.753661C19.3291 0.992028 19.8062 0.992028 20.2038 0.753661C20.4423 0.594749 20.6013 0.435838 20.6809 0.19747C20.8399 -0.0408974 21.2375 -0.0408974 21.317 0.19747C21.476 0.435838 21.635 0.594749 21.8736 0.753661C22.2711 0.992028 22.7482 0.992028 23.1458 0.753661C23.3843 0.594749 23.5434 0.435838 23.7024 0.19747C23.9409 -0.279265 24.5771 0.19747 24.259 0.674205C24.1 0.992028 23.8614 1.30985 23.5434 1.46876C22.9073 1.86604 22.1121 1.86604 21.476 1.46876C21.317 1.38931 21.1579 1.2304 20.9989 1.07148C20.9194 1.2304 20.7604 1.38931 20.6013 1.46876C19.9652 1.86604 19.1701 1.86604 18.534 1.46876C18.3749 1.38931 18.2159 1.2304 18.0569 1.07148C17.9774 1.2304 17.8183 1.38931 17.6593 1.46876C17.0232 1.86604 16.2281 1.86604 15.5919 1.46876C15.4329 1.38931 15.2739 1.2304 15.1149 1.07148C15.0353 1.2304 14.8763 1.38931 14.7173 1.46876C14.0812 1.86604 13.286 1.86604 12.6499 1.46876C12.4909 1.38931 12.3319 1.2304 12.1728 1.07148C12.0138 1.2304 11.8548 1.38931 11.6958 1.46876C11.0596 1.86604 10.344 1.86604 9.7079 1.46876C9.54887 1.38931 9.38984 1.2304 9.23081 1.07148C9.07179 1.2304 8.91276 1.38931 8.75373 1.46876C8.11762 1.86604 7.40199 1.86604 6.76588 1.46876C6.52733 1.38931 6.44782 1.2304 6.28879 1.07148C6.12976 1.2304 5.97073 1.38931 5.81171 1.46876C5.17559 1.86604 4.45996 1.86604 3.82385 1.46876C3.58531 1.38931 3.50579 1.2304 3.34677 1.07148C3.18774 1.2304 3.02871 1.38931 2.86968 1.46876C2.23357 1.86604 1.43843 1.86604 0.802312 1.46876C0.563769 1.30985 0.245712 0.992028 0.086684 0.674205Z" transform="translate(0 18.3193)" fill="black"/>
<path fill-rule="evenodd" clip-rule="evenodd" d="M3.89619 6.43922C3.81668 6.28031 3.65765 6.20085 3.57814 6.04194C2.86251 5.32684 1.82883 4.8501 0.795142 4.8501C0.556599 4.8501 0.318057 4.8501 0 4.92956V4.8501C1.74931 0.956765 6.28162 -0.870719 10.4164 0.400574C9.14413 0.638941 8.03093 1.19513 7.07676 1.91023C5.80454 2.94316 4.69134 4.61173 3.89619 6.43922Z" transform="translate(8.11719)" fill="black"/>
<path fill-rule="evenodd" clip-rule="evenodd" d="M0.0795142 0C3.81668 2.22476 5.40696 6.8332 3.73717 10.7265C3.57814 10.4882 3.41911 10.3293 3.26008 10.0909C2.54445 9.37579 1.51077 8.89905 0.477085 8.8196C0.318057 8.8196 0.159028 8.89905 0 8.89905C0.795142 7.07157 1.27223 5.08517 1.19271 3.57551C1.1132 2.30422 0.715628 1.11238 0.0795142 0Z" transform="translate(20.6016 1.35449)" fill="black"/>
<path fill-rule="evenodd" clip-rule="evenodd" d="M7.15628 0C8.11045 1.27129 8.66705 2.62204 8.74656 4.1317C8.82607 5.64136 8.34899 7.46885 7.63336 9.21688C7.47433 9.05797 7.39482 8.97851 7.3153 8.89905C6.59968 8.1045 5.56599 7.62776 4.53231 7.62776C4.29377 7.62776 3.97571 7.62776 3.73717 7.70722C3.57814 7.46885 3.41911 7.23048 3.26008 7.07157C2.54445 6.27701 1.51077 5.87973 0.477085 5.80028C0.318057 5.80028 0.159028 5.80028 0 5.80028C0.795142 4.1317 1.82883 2.54259 3.02154 1.58912C4.21425 0.635647 5.56599 0.158912 7.15628 0Z" transform="translate(12.4912 0.797852)" fill="black"/>
</svg>
