<svg width="24" height="20" viewBox="0 0 24 20" fill="none" xmlns="http://www.w3.org/2000/svg">
<path d="M23.0385 9.61538C22.4231 6.92308 20.9615 5.23077 18.3462 3.84615C19.0385 7.30769 15.4231 8.84615 13.0385 8.07692C13.5 7.30769 13.7308 6.38462 13.7308 5.38462C13.7308 2.38462 11.3462 0 8.34615 0C5.73077 0 3.57692 1.84615 3.03846 4.38462C2.26923 4.53846 1.5 4.61538 0.730769 4.61538C0.5 4.61538 0.269231 4.76923 0.115385 4.92308C-0.0384615 5.07692 -0.0384615 5.46154 0.115385 5.69231C0.576923 6.92308 1.96154 7.46154 3.5 7.69231C3.65385 8.07692 3.88462 8.46154 4.19231 8.76923C2.57692 9.84615 1.5 11.7692 1.5 13.8462C1.5 17.2308 4.26923 20 7.65385 20H14.8846C17.5 20 19.8846 18.8462 21.5 16.7692C23.0385 14.7692 23.6538 12.1538 23.0385 9.61538ZM7.57692 3.07692C8.03846 3.07692 8.34615 3.38462 8.34615 3.84615C8.34615 4.30769 8.03846 4.61538 7.57692 4.61538C7.11538 4.61538 6.80769 4.30769 6.80769 3.84615C6.80769 3.38462 7.19231 3.07692 7.57692 3.07692Z" fill="black"/>
</svg>
