<svg width="18" height="20" viewBox="0 0 18 20" fill="none" xmlns="http://www.w3.org/2000/svg">
<path d="M4.35657 0.0244097C4.61812 0.0498069 4.88339 0.097964 5.1482 0.162584C6.56052 0.507225 7.99126 1.39106 9.14788 2.73771C9.88412 3.59491 10.4241 4.54004 10.7494 5.48569C10.7534 5.49389 10.7588 5.49935 10.7619 5.50793C11.3782 7.15633 11.4662 8.61139 11.5511 9.7914C11.6361 10.9714 11.7264 11.8467 12.2438 12.4491C12.6945 12.9632 13.0928 13.429 13.4438 13.8463H13.4509C13.7004 13.632 14.0835 13.6611 14.2978 13.9106L17.8197 18.0111C18.034 18.2606 18.0044 18.6507 17.7549 18.8651L16.6006 19.8564C16.3511 20.0708 15.968 20.0417 15.7537 19.7921L12.2324 15.6846C12.0181 15.4351 12.0471 15.052 12.2967 14.8376L12.3195 14.8182C11.8938 14.3302 11.4379 13.8148 11.1048 13.427C10.5874 12.8246 9.7287 12.6026 8.57503 12.3405C7.47999 12.0917 6.14535 11.8008 4.69877 11.0383C4.6829 11.0299 4.66688 11.0218 4.65098 11.0134C4.58832 10.9831 4.5292 10.9466 4.46685 10.9142C3.57188 10.4494 2.70779 9.77255 1.96441 8.90703C0.807791 7.56038 0.150067 6.01263 0.022576 4.56447C-0.104899 3.11629 0.304918 1.7555 1.31687 0.886356C2.13908 0.180163 3.22317 -0.0861447 4.35657 0.0239535L4.35657 0.0244097ZM4.24474 0.562493C3.96083 0.538193 3.68723 0.540983 3.42068 0.570926C3.4471 0.600215 3.464 0.613967 3.49296 0.647389C3.56268 0.727856 3.68763 0.873995 3.7734 0.973919C3.92125 0.846498 4.17108 0.625963 4.24474 0.562493V0.562493ZM4.8627 0.744283C4.82782 0.774543 4.35575 1.18455 4.12559 1.38398C4.21928 1.49325 4.27641 1.5598 4.37995 1.68012C4.48645 1.80389 4.64922 1.99382 4.76474 2.12814C5.05797 1.8778 5.3305 1.64113 5.5089 1.48899C5.33733 1.28874 5.15609 1.07666 5.03932 0.942247C4.96604 0.857902 4.9096 0.796871 4.8627 0.744283V0.744283ZM2.80845 0.687714C2.47744 0.785636 2.17282 0.938274 1.89418 1.13649C1.96178 1.2135 2.05576 1.31804 2.16864 1.44836C2.27934 1.57618 2.46488 1.79294 2.61213 1.96472C2.98217 1.64573 3.05135 1.58839 3.35629 1.32557C3.27299 1.22853 3.15073 1.08554 3.08237 1.00664C2.97251 0.879841 2.88491 0.775191 2.82149 0.702893C2.81307 0.693312 2.81669 0.696629 2.80845 0.687728L2.80845 0.687714ZM5.73688 0.917115C5.79585 0.985938 5.85285 1.05196 5.91949 1.12973C5.93371 1.11762 6.02318 1.04062 6.03339 1.03191C5.93444 0.988078 5.83592 0.955182 5.73688 0.917115ZM6.56675 1.29955C6.55771 1.30725 6.31392 1.51693 6.2782 1.54738C6.46307 1.76219 6.70589 2.04549 6.91735 2.29154C7.01315 2.20981 7.40212 1.87504 7.42612 1.85457C7.14522 1.64486 6.85823 1.4603 6.56675 1.29955V1.29955ZM1.47707 1.48814C1.2417 1.73142 1.04891 2.01561 0.902476 2.32472C0.910041 2.33396 0.907549 2.33043 0.915522 2.3399C0.977415 2.41351 1.06764 2.5159 1.1764 2.64365C1.24463 2.72379 1.3657 2.87074 1.44979 2.96962C1.69504 2.75925 1.93165 2.55632 2.20155 2.32396C2.0518 2.15111 1.86177 1.93495 1.75099 1.80706C1.63578 1.67403 1.54361 1.56406 1.47707 1.48813L1.47707 1.48814ZM5.86109 1.89903C5.68337 2.0506 5.40972 2.28822 5.11693 2.53818C5.32036 2.77484 5.53691 3.02717 5.75608 3.28234C6.06291 3.02021 6.289 2.82349 6.50024 2.64319C6.28896 2.39735 6.04551 2.11331 5.86109 1.89903ZM3.715 1.74321C3.41041 2.00684 3.34139 2.0626 2.97084 2.38237C3.01921 2.4387 3.04409 2.46776 3.09476 2.52664C3.23538 2.69008 3.44799 2.93812 3.60347 3.11894C3.97614 2.79994 4.01214 2.76642 4.34763 2.47979C4.23214 2.3455 4.06928 2.15547 3.96284 2.03177C3.86128 1.91374 3.80649 1.84991 3.715 1.74321V1.74321ZM7.8537 2.20647C7.83984 2.21829 7.37838 2.60873 7.26954 2.7016C7.49075 2.95919 7.6787 3.17751 7.90869 3.44576C8.05054 3.32469 8.53018 2.91179 8.56173 2.88487C8.33652 2.63896 8.09621 2.41537 7.8537 2.20647ZM4.69982 2.88983C4.36464 3.17619 4.32819 3.21011 3.95565 3.52898C4.16159 3.76858 4.37453 4.01667 4.59481 4.27315C4.96787 3.9537 4.99693 3.9264 5.33897 3.63399C5.11977 3.37878 4.90325 3.12648 4.69982 2.88983ZM6.85895 3.06084C6.64828 3.24065 6.42125 3.43818 6.11479 3.69999C6.33983 3.96213 6.52371 4.1757 6.75394 4.44415C7.06705 4.17656 7.27185 3.99819 7.49811 3.805C7.26811 3.53674 7.08022 3.3185 6.85895 3.06084ZM2.5532 2.74108C2.28617 2.97096 2.05175 3.17202 1.80903 3.38022C1.9014 3.48847 1.95402 3.55651 2.05633 3.67584C2.16074 3.79763 2.32138 3.98426 2.4346 4.11625C2.68996 3.89565 2.91591 3.70297 3.18636 3.47059C3.03303 3.29227 2.82325 3.04754 2.68417 2.88589C2.63238 2.8257 2.60285 2.79866 2.5532 2.74108V2.74108ZM8.92044 3.30251C8.8896 3.32883 8.4087 3.7428 8.2674 3.86341C8.58376 4.23279 8.60686 4.25717 8.90003 4.59997C9.00952 4.5053 9.47085 4.10979 9.48473 4.09779C9.31557 3.82754 9.12822 3.56119 8.92044 3.30251ZM0.687548 2.91177C0.61568 3.17518 0.57275 3.44977 0.553749 3.73924C0.662599 3.64574 0.767825 3.55489 0.918238 3.42617C0.951832 3.39743 1.00453 3.35197 1.03974 3.32183C0.954502 3.22159 0.828563 3.07668 0.759291 2.99531C0.729276 2.96006 0.714347 2.94287 0.687548 2.91177V2.91177ZM3.54561 3.88117C3.27187 4.11581 3.0446 4.31144 2.78625 4.53338C2.98938 4.77008 3.20627 5.02239 3.42541 5.27754C3.68663 5.05317 3.91128 4.85978 4.18476 4.62534C3.96467 4.36908 3.75134 4.12054 3.54561 3.88117ZM7.85029 4.21506C7.62455 4.40781 7.4189 4.58691 7.10613 4.85421C7.42671 5.22824 7.43867 5.24033 7.74528 5.59837C8.05074 5.33461 8.2793 5.14085 8.48945 4.95922C8.19293 4.61318 8.17032 4.58857 7.85029 4.21506ZM5.69768 4.05164C5.35591 4.34381 5.32645 4.37146 4.95351 4.69079C5.17909 4.95356 5.36256 5.16667 5.59267 5.43496C5.96595 5.11527 5.99173 5.09092 6.33683 4.7958C6.1066 4.52735 5.92276 4.31382 5.69768 4.05164ZM1.39138 3.73893C1.35842 3.76716 1.30905 3.80976 1.27748 3.83677C1.06704 4.01685 0.883423 4.17056 0.754066 4.27973C0.708791 4.31794 0.679383 4.34372 0.647757 4.37104C0.693616 4.42476 0.747522 4.48625 0.817329 4.56846C0.932322 4.70389 1.11035 4.91553 1.27985 5.11466C1.34242 5.06104 1.37891 5.02974 1.44691 4.97118C1.60619 4.83399 1.84036 4.63423 2.02402 4.47551C1.90857 4.3412 1.74537 4.1513 1.63922 4.02749C1.53819 3.90964 1.48262 3.84585 1.39138 3.73893V3.73893ZM9.76045 4.58012C9.73601 4.60125 9.34742 4.9343 9.25168 5.01707C9.38381 5.17166 9.44789 5.2448 9.56474 5.38157C9.68645 5.52403 9.78973 5.64286 9.89083 5.76125C9.92633 5.73053 10.1704 5.52118 10.1794 5.51341C10.064 5.20022 9.9259 4.89022 9.76045 4.58012V4.58012ZM8.84163 5.36926C8.63151 5.55086 8.40291 5.74467 8.09747 6.00842C8.39008 6.35027 8.48615 6.46749 8.73608 6.75964C9.02767 6.50769 9.30352 6.27336 9.48025 6.12049C9.38115 6.00485 9.27966 5.88727 9.16067 5.74841C9.04046 5.60813 8.97816 5.52859 8.84163 5.36926ZM6.68902 5.20586C6.34417 5.50076 6.31803 5.52542 5.94485 5.84501C6.26881 6.22294 6.27951 6.23363 6.59053 6.59677C6.96256 6.27626 6.99401 6.25159 7.3347 5.95761C7.02506 5.59645 7.01264 5.58334 6.68902 5.20586V5.20586ZM4.53641 5.04244C4.26525 5.27489 4.04306 5.46618 3.78465 5.68812C4.00976 5.95009 4.1932 6.16419 4.4238 6.43228C4.68363 6.20915 4.90479 6.01874 5.17556 5.78661C4.94515 5.51796 4.76186 5.30506 4.53641 5.04244ZM2.3762 4.88555C2.19223 5.04377 1.95846 5.24396 1.7991 5.38122C1.73081 5.44003 1.69436 5.47068 1.63204 5.5247C1.81602 5.73936 2.06006 6.02291 2.27119 6.26888C2.47773 6.09104 2.77261 5.8384 3.01536 5.62973C2.79564 5.37484 2.57985 5.1221 2.3762 4.88555ZM0.674144 5.23904C0.697797 5.34872 0.718247 5.46063 0.748306 5.57119C0.757275 5.56329 0.761647 5.55984 0.771087 5.55162C0.795467 5.5304 0.842644 5.49028 0.869802 5.46683C0.798206 5.38368 0.73687 5.31192 0.674144 5.23904V5.23904ZM10.3564 6.08052C10.3461 6.0894 10.2568 6.16605 10.2425 6.17836C10.2869 6.23035 10.404 6.36612 10.4381 6.40616C10.4144 6.2969 10.3865 6.19068 10.3564 6.08052V6.08052ZM9.83243 6.53053C9.65472 6.68356 9.38057 6.91797 9.08827 7.16969C9.30585 7.42409 9.58037 7.74185 9.72742 7.91386C9.96145 7.71354 10.4351 7.30594 10.4716 7.27471C10.4462 7.24507 9.9778 6.70015 9.83243 6.53053ZM7.68688 6.36767C7.34619 6.66165 7.31481 6.68626 6.94272 7.00682C7.23798 7.3517 7.32494 7.4584 7.58133 7.75803C7.95369 7.43714 7.99135 7.40739 8.3255 7.11888C8.07558 6.8274 7.97946 6.70892 7.68688 6.36767ZM5.52721 6.20371C5.25878 6.43385 5.04006 6.62215 4.78305 6.84287C5.10602 7.21813 5.11245 7.23514 5.42166 7.59409C5.68076 7.37268 5.9027 7.18091 6.17342 6.94841C5.86387 6.58738 5.84928 6.57936 5.52721 6.20371ZM3.3746 6.04031C3.13082 6.24987 2.8312 6.49998 2.62338 6.67892C2.84454 6.93638 3.0321 7.15527 3.26253 7.42309C3.47577 7.23954 3.76732 6.99628 4.01375 6.78447C3.78315 6.51669 3.60018 6.30199 3.3746 6.04031ZM1.22199 5.87689C1.19613 5.89943 1.15372 5.94186 1.13033 5.96222C1.04756 6.03427 0.979404 6.09053 0.932899 6.13178C1.04825 6.44634 1.18526 6.76067 1.3513 7.07214C1.39779 7.02856 1.44243 6.98142 1.51184 6.92107C1.59858 6.84565 1.74538 6.72019 1.86114 6.62105C1.65005 6.37512 1.4061 6.09169 1.22199 5.87689V5.87689ZM4.373 7.19505C4.12553 7.40775 3.83567 7.65616 3.62124 7.84073C3.94357 8.21497 3.96849 8.23883 4.26745 8.58543C4.47456 8.40804 4.76827 8.15408 5.01161 7.94628C4.70266 7.58721 4.69572 7.57011 4.373 7.19505ZM2.21333 7.03111C2.09894 7.12908 1.9563 7.25756 1.87108 7.33165C1.78025 7.41063 1.70918 7.47599 1.65793 7.52132C1.63743 7.53946 1.64434 7.53198 1.62755 7.54742C1.79801 7.81988 1.98839 8.08942 2.19837 8.35028C2.24753 8.30624 2.29519 8.26123 2.36596 8.19974C2.48727 8.09433 2.67777 7.9249 2.85248 7.77527C2.62206 7.50747 2.43442 7.2885 2.21333 7.03111V7.03111ZM8.67768 7.52894C8.34308 7.8171 8.30567 7.84756 7.93352 8.16809C8.15915 8.43185 8.40348 8.72211 8.56561 8.91172C8.94106 8.59043 9.00787 8.53094 9.31737 8.26604C9.17083 8.09513 8.89412 7.78136 8.67768 7.52894V7.52894ZM6.52507 7.36552C6.25757 7.59617 6.03631 7.78419 5.78091 8.00467C6.073 8.34361 6.17025 8.45914 6.42006 8.74884C6.6756 8.53064 6.90209 8.34134 7.17128 8.11022C6.91466 7.81094 6.82045 7.71001 6.52507 7.36552ZM10.5645 7.92062C10.4893 7.98463 10.2312 8.20148 10.0791 8.33097C10.1341 8.39541 10.405 8.71023 10.4313 8.74101C10.5024 8.48111 10.5452 8.20637 10.5645 7.92062V7.92062ZM9.66902 8.68316C9.36029 8.9463 9.29185 9.00201 8.9178 9.32177C9.05313 9.48006 9.61427 10.1325 9.63522 10.1571C9.87424 9.91194 10.0689 9.63288 10.2169 9.32101C10.2028 9.30464 9.75486 8.78326 9.66902 8.68316V8.68316ZM7.52347 8.52028C7.25483 8.75201 7.033 8.94693 6.77877 9.16648C6.99457 9.41667 7.26505 9.73346 7.4114 9.90306C7.65385 9.69454 7.88801 9.49317 8.15556 9.2639C7.99318 9.07453 7.74936 8.78372 7.52347 8.52028V8.52028ZM3.21119 8.19292C3.03794 8.3413 2.84482 8.50638 2.7252 8.61032C2.65334 8.67276 2.60013 8.71592 2.55055 8.76033C2.77835 9.00914 3.01945 9.23515 3.2651 9.44633C3.28069 9.43478 3.27135 9.44056 3.28788 9.42677C3.34043 9.38295 3.41632 9.3155 3.5081 9.23762C3.59515 9.16377 3.74174 9.03723 3.8574 8.93761C3.55843 8.59099 3.53357 8.56721 3.21119 8.19291V8.19292ZM5.37032 8.36393C5.12802 8.57288 4.83345 8.82544 4.62616 9.00308C4.89548 9.31513 5.0678 9.51093 5.26585 9.74019C5.3258 9.6886 5.36034 9.65887 5.42531 9.60322C5.58685 9.46486 5.82268 9.26091 6.01001 9.10103C5.76162 8.81233 5.66052 8.70121 5.37032 8.36393V8.36393ZM8.50775 9.67396C8.24014 9.90327 8.0061 10.1046 7.76359 10.3131C7.85066 10.414 8.30432 10.9351 8.31849 10.9515C8.64637 10.8525 8.94887 10.7061 9.22517 10.5092C9.20417 10.4848 8.64331 9.83206 8.50775 9.67396ZM6.36872 9.51867C6.18218 9.67949 5.94578 9.88232 5.78402 10.0209C5.7174 10.0779 5.67925 10.1053 5.6175 10.1573C5.76226 10.3248 6.23178 10.865 6.25718 10.8944C6.28863 10.8656 6.32 10.8411 6.36349 10.8031C6.49093 10.6917 6.67006 10.5404 6.87985 10.3596C6.91342 10.3307 6.96618 10.2856 7.00135 10.2552C6.85488 10.085 6.58445 9.76943 6.36872 9.51867V9.51867ZM4.21611 9.35525C4.09814 9.4553 3.9479 9.57994 3.85975 9.65473C3.79283 9.71151 3.7473 9.75121 3.70028 9.79169C3.98029 10.0005 4.26213 10.1858 4.55259 10.3462C4.60039 10.3064 4.66577 10.2546 4.74949 10.1837C4.77582 10.1615 4.8263 10.1176 4.85579 10.0924C4.65778 9.86313 4.48542 9.6673 4.21611 9.35525V9.35525ZM7.35354 10.6653C7.31842 10.6956 7.26553 10.7408 7.23204 10.7696C7.08165 10.8993 6.97621 10.9941 6.86701 11.0897C7.15829 11.1146 7.43922 11.1154 7.71224 11.083C7.68535 11.0517 7.41035 10.7314 7.35354 10.6653V10.6653ZM5.20798 10.5024C5.17814 10.5274 5.12823 10.5712 5.10167 10.5937C5.09531 10.5992 5.09261 10.6014 5.08647 10.6069C5.19782 10.6563 5.30526 10.7034 5.41667 10.7455C5.38072 10.7039 5.25565 10.5577 5.20797 10.5025L5.20798 10.5024Z" fill="black"/>
</svg>
