<svg width="18" height="20" viewBox="0 0 18 20" fill="none" xmlns="http://www.w3.org/2000/svg">
  <path d="M17.697 18.7394L16.097 9.697C16 8.70306 15.903 7.68488 15.8061 6.86064L16.7758 5.01822C16.9455 4.70307 16.9212 4.33943 16.7515 4.04852C16.5818 3.75761 16.2424 3.56368 15.903 3.56368H10.9334C10.6424 3.56368 10.3758 3.68489 10.1818 3.90307C9.9879 4.12125 9.91518 4.41216 9.93942 4.67882L10.5455 9.11518C10.3031 9.11518 10.0364 9.11518 9.79396 9.13942C9.69699 9.13942 9.62427 9.23639 9.62427 9.33336C9.62427 9.43033 9.72124 9.50306 9.81821 9.50306C9.81821 9.50306 9.81821 9.50306 9.84245 9.50306C10.0849 9.47881 10.3273 9.47881 10.5697 9.47881C10.594 9.47881 10.594 9.47881 10.6182 9.47881L10.6909 9.96366C10.7394 10.3515 11.0303 10.6667 11.3697 10.7637L11.6364 18.8364C11.6606 19.4424 12.1697 19.9273 12.7758 19.903C13.3818 19.8788 13.8667 19.3697 13.8424 18.7636L13.6 11.3212C13.7697 11.3212 13.9394 11.3212 14.1091 11.297L15.4909 19.0788C15.5879 19.6121 16.0485 20 16.5818 20C16.6546 20 16.703 20 16.7758 19.9758C17.4061 19.9273 17.7939 19.3455 17.697 18.7394Z"
    fill="#261A12" />
  <path d="M13.6726 3.44242C14.6232 3.44242 15.3939 2.67181 15.3939 1.72121C15.3939 0.770611 14.6232 0 13.6726 0C12.7221 0 11.9514 0.770611 11.9514 1.72121C11.9514 2.67181 12.7221 3.44242 13.6726 3.44242Z"
    fill="#261A12" />
  <path d="M0.218181 18.812C0.121212 18.812 0.0242425 18.8847 0.0242425 18.9817C9.21161e-08 19.2241 0 19.4908 0 19.7332C0 19.8302 0.0727272 19.9271 0.193939 19.9271C0.290908 19.9271 0.387878 19.8544 0.387878 19.7332C0.387878 19.4908 0.387878 19.2483 0.41212 19.0059C0.387878 18.909 0.315151 18.812 0.218181 18.812Z"
    fill="#261A12" />
  <path d="M3.58794 11.7818C3.24854 12.0727 2.90915 12.4121 2.61824 12.7515C2.54552 12.8242 2.56976 12.9454 2.64249 13.0182C2.66673 13.0424 2.71521 13.0666 2.7637 13.0666C2.81218 13.0666 2.86067 13.0424 2.90915 12.9939C3.20006 12.6545 3.51521 12.3394 3.8546 12.0485C3.92733 11.9757 3.92733 11.8545 3.87885 11.7818C3.78188 11.7091 3.66067 11.7091 3.58794 11.7818Z"
    fill="#261A12" />
  <path d="M5.86668 10.2546C5.45456 10.4485 5.06668 10.6909 4.67881 10.9333C4.58184 10.9818 4.58184 11.103 4.63032 11.2C4.65456 11.2485 4.72729 11.2727 4.77578 11.2727C4.80002 11.2727 4.8485 11.2727 4.87275 11.2485C5.23638 11.0061 5.62426 10.7879 6.01214 10.5939C6.10911 10.5455 6.13335 10.4485 6.08486 10.3515C6.06062 10.2546 5.96365 10.2061 5.86668 10.2546Z"
    fill="#261A12" />
  <path d="M8.4607 9.35761C8.02434 9.45458 7.56374 9.57579 7.12737 9.72124C7.0304 9.74548 6.98192 9.8667 7.00616 9.96366C7.0304 10.0364 7.10313 10.0849 7.17586 10.0849C7.2001 10.0849 7.22434 10.0849 7.22434 10.0849C7.63646 9.93942 8.07283 9.81821 8.50919 9.74548C8.60616 9.72124 8.67889 9.62427 8.65464 9.5273C8.65464 9.40609 8.55767 9.33336 8.4607 9.35761Z"
    fill="#261A12" />
  <path d="M0.799915 16.1697C0.702945 16.1455 0.605976 16.194 0.557491 16.2909C0.412037 16.7273 0.290825 17.1637 0.193855 17.6243C0.169613 17.7212 0.24234 17.8182 0.339309 17.8425C0.363552 17.8425 0.363552 17.8425 0.387794 17.8425C0.484764 17.8425 0.557491 17.7697 0.557491 17.697C0.65446 17.2606 0.75143 16.8243 0.896884 16.4122C0.945369 16.3152 0.896884 16.2182 0.799915 16.1697Z"
    fill="#261A12" />
  <path d="M2.03646 13.7939C1.93949 13.7454 1.84252 13.7697 1.7698 13.8424C1.50313 14.2303 1.28495 14.6181 1.09101 15.0303C1.04253 15.1272 1.09101 15.2242 1.16374 15.2727C1.18798 15.2969 1.21222 15.2969 1.23646 15.2969C1.30919 15.2969 1.38192 15.2484 1.40616 15.2C1.6001 14.8121 1.81828 14.4242 2.06071 14.0606C2.13343 13.9636 2.13343 13.8424 2.03646 13.7939Z"
    fill="#261A12" />
</svg>