<svg width="20" height="20" viewBox="0 0 20 20" fill="none" xmlns="http://www.w3.org/2000/svg">
  <path d="M19.2835 2.06182L17.9382 0.716542C17.7742 0.552611 17.7742 0.286879 17.9382 0.122948C18.1021 -0.0409827 18.3678 -0.0409827 18.5318 0.122948L19.8771 1.46823C20.041 1.63216 20.041 1.89789 19.8771 2.06182C19.7131 2.22575 19.4474 2.22575 19.2835 2.06182Z"
    fill="#261A12" />
  <path d="M15.0055 7.9041C14.7203 6.87718 15.0951 6.36847 15.4192 6.00717C15.5021 5.91477 17.7408 3.68019 19.028 2.39605C19.0139 2.38378 18.9999 2.37191 18.9866 2.35865L17.6413 1.01337C17.628 1.00001 17.6161 0.985964 17.6039 0.972015C16.3198 2.25932 14.0851 4.49796 13.9928 4.58077C13.6315 4.90487 13.1227 5.27972 12.0959 4.9945C11.0689 4.70908 10.5269 4.82325 9.65689 5.69326C9.14047 6.20969 0.715789 14.6344 0.715789 14.6344C0.715789 14.6344 -0.514929 15.9005 0.251202 16.6666C0.634268 17.0497 2.95027 19.3657 3.33334 19.7488C4.09947 20.5149 5.36551 19.2843 5.36551 19.2843C5.36551 19.2843 13.7902 10.8596 14.3066 10.3432C15.1766 9.47316 15.2908 8.93121 15.0055 7.9041Z"
    fill="#261A12" />
</svg>