<svg width="23" height="20" viewBox="0 0 23 20" fill="none" xmlns="http://www.w3.org/2000/svg">
<path d="M6.91495 19.9999H5.60828C4.70193 19.2398 5.71425 17.2426 4.98193 15.7886C7.27078 18.1367 6.91495 19.9999 6.91495 19.9999Z" transform="translate(22.0625) scale(-1 1)" fill="black"/>
<path d="M6.46969 19.9999H7.8731C8.77994 19.2397 7.23872 18.0262 7.97129 16.5719C7.28466 17.3849 6.88945 17.8363 6.66851 18.3398L6.46969 19.9999Z" transform="translate(22.0625) scale(-1 1)" fill="black"/>
<path d="M6.07967 19.9999H3.93568C3.93568 19.9999 3.21137 18.2954 4.62231 17.3204C4.91276 17.6352 5.10356 17.9326 5.22776 18.1907L6.07967 19.9999Z" transform="translate(22.0625) scale(-1 1)" fill="black"/>
<path d="M10.8661 20H9.1659C8.25881 19.2398 9.51128 16.9126 8.7792 15.4577C11.0688 17.8062 10.8661 20 10.8661 20Z" transform="translate(22.0625) scale(-1 1)" fill="black"/>
<path d="M3.97145 18.0414C3.76315 17.251 3.54707 16.3822 3.90534 15.6721C1.616 18.0204 2.77683 19.9999 2.77683 19.9999L3.93568 19.9999L3.97145 18.0414Z" transform="translate(22.0625) scale(-1 1)" fill="black"/>
<path d="M3.01796 20H1.6148C0.707712 19.2398 2.24893 17.8664 1.5166 16.4114C1.98546 16.9665 2.3182 17.5134 2.5525 17.863L3.01796 20Z" transform="translate(22.0625) scale(-1 1)" fill="black"/>
<path d="M2.23065 19.9999H0.324125C0.324125 19.9999 -0.588063 19.6909 0.648118 17.001C0.688708 17.7661 1.02753 18.3 1.36635 18.8648L2.23065 19.9999Z" transform="translate(22.0625) scale(-1 1)" fill="black"/>
<path d="M15.4004 19.9999H14.094C13.1876 19.2398 14.4581 17.2426 13.726 15.7886C16.0153 18.1367 15.4004 19.9999 15.4004 19.9999Z" transform="translate(22.0625) scale(-1 1)" fill="black"/>
<path d="M14.9553 19.9999H16.4525C17.6415 19.1966 15.4431 17.7996 16.1752 16.3452C15.4888 17.158 15.0481 17.628 15.2482 18.1529L14.9553 19.9999Z" transform="translate(22.0625) scale(-1 1)" fill="black"/>
<path d="M14.5658 19.9999H12.4218C12.4218 19.9999 11.7697 18.2818 13.1814 17.3076C14.2195 18.0337 13.8807 18.1908 13.8807 18.1908L14.5658 19.9999Z" transform="translate(22.0625) scale(-1 1)" fill="black"/>
<path d="M19.116 19.9999H17.6516C16.7445 19.2398 18.2332 16.7672 17.5009 15.3125C19.7902 17.6615 19.116 19.9999 19.116 19.9999Z" transform="translate(22.0625) scale(-1 1)" fill="black"/>
<path d="M18.6714 20H20.2862C21.1931 19.2398 19.3954 17.7731 20.1285 16.3181C19.6392 16.8974 19.3211 17.5465 19.0987 17.9085L18.6714 20Z" transform="translate(22.0625) scale(-1 1)" fill="black"/>
<path d="M19.4589 20H21.459C21.459 20 22.6308 19.3972 21.041 16.9477C21.0001 17.7129 20.7792 18.3001 20.4399 18.8649L19.4589 20Z" transform="translate(22.0625) scale(-1 1)" fill="black"/>
<path d="M11.5319 16.0124C10.8847 16.6766 10.1577 19.0899 10.3893 19.9971L10.7284 19.9979L10.7279 20L11.5319 19.9991L12.3364 20L12.3359 19.9979L12.6752 19.9971C12.9064 19.0899 12.1789 16.6766 11.5319 16.0124Z" transform="translate(22.0625) scale(-1 1)" fill="black"/>
<path d="M6.90952 19.9999H9.29657C9.29657 19.9999 9.77782 18.2954 8.36688 17.3204C8.07643 17.6352 7.88563 17.9326 7.76143 18.1907L6.90952 19.9999Z" transform="translate(22.0625) scale(-1 1)" fill="black"/>
<path d="M15.4165 19.9999H17.8035C17.8035 19.9999 18.1875 18.0594 16.7761 17.0844C16.4859 17.3992 16.1889 17.7239 16.1709 18.1907L15.4165 19.9999Z" transform="translate(22.0625) scale(-1 1)" fill="black"/>
<path d="M17.6869 15.5493C17.5379 15.2181 16.1965 12.2922 15.0974 11.1145C14.967 10.9673 14.7993 10.8569 14.6316 10.7833C14.8738 10.728 15.0974 10.6728 15.2837 10.636C15.9171 10.4704 16.3083 9.82636 16.1406 9.20071C15.973 8.57505 15.3209 8.18861 14.6875 8.35423C13.3462 8.70386 11.6695 8.79587 11.3342 8.55665C11.2411 8.44624 11.1106 8.26222 10.9802 8.0598C10.5145 7.34214 9.75068 6.12762 8.01813 6.12762H6.43462C5.80121 6.12762 5.27958 6.62447 5.24232 7.23173C5.24232 7.25013 5.22369 7.26853 5.22369 7.28693C5.22369 7.28693 5.33547 14.9788 5.39136 15.5861C5.44725 16.1933 5.72669 16.6718 6.15517 16.9294C7.08665 17.4999 9.13591 17.3711 10.086 16.8926C11.2411 16.3038 12.3588 15.1813 13.253 14.298C13.3835 14.1692 13.5325 14.0219 13.6815 13.8747C14.2032 14.7396 14.7993 15.9173 15.1533 16.6902C15.3768 17.2054 15.8984 17.4999 16.4201 17.4999C16.6064 17.4999 16.8113 17.4631 16.979 17.3711C17.7055 17.0582 18.0036 16.2301 17.6869 15.5493ZM11.2783 12.3658C10.9616 12.6786 10.6263 13.0099 10.2909 13.3227L10.1792 10.5808C10.7939 10.9121 11.5578 11.0225 12.3402 11.0225C12.4892 11.0225 12.6196 11.0225 12.7687 11.0041C12.3216 11.3169 11.8558 11.7769 11.2783 12.3658Z" transform="translate(22.0625) scale(-1 1)" fill="black"/>
<path d="M7.68266 5.29968C9.16425 5.29968 10.3653 4.11331 10.3653 2.64984C10.3653 1.18637 9.16425 0 7.68266 0C6.20107 0 5 1.18637 5 2.64984C5 4.11331 6.20107 5.29968 7.68266 5.29968Z" transform="translate(22.0625) scale(-1 1)" fill="black"/>
</svg>
