<svg width="18" height="20" viewBox="0 0 18 20" fill="none" xmlns="http://www.w3.org/2000/svg">
  <path d="M9.80605 2.93759C9.22739 2.93759 3.55202 2.93759 2.57274 2.93759C1.59346 2.93759 1.39316 4.51779 2.57274 4.51779H7.8475C8.0478 4.51779 8.11457 4.65133 8.02555 4.80712C8.02555 4.80712 6.69017 7.21081 6.17827 7.98978C5.66637 8.76875 5.93345 9.99285 6.55663 10.438C8.2036 11.6621 10.7408 13.5761 10.7408 13.5761C10.8966 13.6874 11.0079 13.9322 11.0079 14.1103C11.0079 14.1103 11.0079 17.4932 11.0079 18.9399C11.0079 20.3866 13.1445 20.3198 13.1445 18.9399C13.1445 17.8493 13.1445 12.9084 13.1445 12.9084C13.1445 12.7304 13.0332 12.4856 12.8774 12.352L9.24964 9.68126C9.11611 9.56998 9.07159 9.34741 9.16062 9.19162L11.4308 5.20773C11.4085 5.20773 10.3847 2.93759 9.80605 2.93759ZM5.7554 10.8608L3.84136 13.5539C3.84136 13.5539 2.86208 12.8639 1.727 11.9514C0.614186 11.0389 -0.698938 12.5746 0.436135 13.4648C1.0148 13.91 1.94957 14.6222 2.72854 15.2453C3.52977 15.8685 4.73161 15.9575 5.53284 14.778C6.69017 13.042 7.35786 12.1072 7.35786 12.1072L5.7554 10.8608ZM10.8966 7.74496C10.8966 7.74496 11.9649 9.3029 12.41 9.99285C12.8774 10.6605 13.9012 10.5047 14.5912 9.99285C15.2811 9.48095 15.9488 9.03582 16.4384 8.65747C17.2397 8.05655 16.4162 6.74342 15.5704 7.32209C14.5244 8.05655 13.8567 8.5907 13.8567 8.5907C13.7232 8.70198 13.5229 8.67972 13.4116 8.50167L11.9427 6.00896L10.8966 7.74496ZM11.0302 0.55616C10.2067 1.93605 11.2305 3.38272 11.8759 3.76107C12.3433 4.05041 13.011 4.33974 13.7232 3.16015C14.4354 1.98057 14.4576 1.20159 13.0555 0.355853C12.5881 0.0887772 11.5866 -0.378606 11.0302 0.55616Z"
    fill="#261A12" />
</svg>