<svg width="25" height="18" viewBox="0 0 25 18" fill="none" xmlns="http://www.w3.org/2000/svg">
  <path d="M24.7988 2.11249C24.5351 2.05976 23.7178 1.82249 23.6387 1.79612C23.5597 1.7434 23.4015 1.69067 23.3487 1.40066C23.296 1.11066 23.3224 0.820656 22.9006 0.530652C22.4524 0.214284 22.2678 0.240648 22.136 0.135192C21.7669 0.0033716 21.2396 -0.0493562 20.7123 0.0560998C20.1587 0.161556 20.0005 0.425196 19.7105 0.58338C19.4205 0.741564 18.9987 1.34794 18.7614 1.58521C18.5241 1.82249 17.575 3.03523 17.1532 3.24614C16.7577 3.45706 15.9141 3.82615 15.5186 3.85252C15.1232 3.90524 14.7277 3.93161 14.4114 4.14252C14.095 4.32707 13.8577 4.48525 12.9877 4.56434C12.1177 4.64344 10.0086 4.53798 9.6131 4.48525C9.24401 4.43252 8.37399 4.27434 7.82035 4.3798C7.24034 4.51161 7.00307 4.61707 6.79216 4.53798C6.58124 4.45889 6.0276 4.37979 5.6585 4.40616C5.28941 4.43252 4.52485 4.74889 4.20848 4.80162C3.89212 4.85435 3.18029 4.74889 2.75846 4.53798C2.38937 4.35343 1.20299 3.87888 0.88662 3.79979C0.570253 3.74706 0.280249 3.69433 0.122065 3.79979C-0.0097554 3.87888 -0.115211 4.27434 0.253885 4.64343C0.62298 4.98617 1.51936 5.82981 1.83572 6.04073C2.15209 6.25164 2.83756 6.6471 3.44393 6.6471C4.07666 6.67346 4.55122 6.54164 4.73576 6.48891C4.92031 6.43619 5.10486 6.35709 5.0785 6.40982C5.05213 6.46255 4.76213 7.70166 4.55122 8.14985C4.3403 8.57167 3.91848 10.1271 3.7603 10.7599C3.60211 11.3926 3.36484 12.3417 3.04847 12.579C2.7321 12.8163 2.41573 12.9217 2.17846 13.6072C1.91482 14.2663 1.75663 16.0063 1.65118 16.2436C1.51936 16.4809 1.49299 16.9027 1.62481 17.0345C1.75663 17.1663 1.91482 17.2454 2.04664 17.2454C2.20482 17.2718 2.28391 17.2982 2.41573 17.2982C2.54755 17.2982 2.70574 17.3245 2.86392 17.2454C2.99574 17.1663 3.12756 17.0345 3.07483 16.9291C3.0221 16.7972 2.67937 16.6654 2.65301 16.3227C2.60028 15.98 2.83756 14.9254 2.91665 14.7672C2.99574 14.609 3.28574 14.029 3.49666 13.8181C3.70757 13.6072 3.86575 13.2645 4.02394 13.1854C4.18212 13.1063 5.47396 11.999 5.47396 11.999C5.47396 11.999 4.47212 13.8181 4.55122 14.3717C4.63031 14.9254 4.86758 15.5845 4.92031 15.7427C4.9994 15.9272 5.05213 16.349 5.42123 16.4018C5.79032 16.4545 6.34397 16.4545 6.52852 16.4018C6.71306 16.349 6.84488 15.9536 6.6867 15.8218C6.52852 15.6636 6.13306 15.6372 5.97487 15.6372C5.81669 15.6109 5.7376 15.5845 5.68487 15.0572C5.63214 14.5563 5.55305 14.0817 5.6585 13.8972C5.76396 13.7126 6.13306 13.1063 6.3176 13.0008C6.50215 12.8954 7.47762 12.2099 8.0049 11.6299C8.53218 11.0499 8.90128 10.5753 8.954 10.5226C9.00673 10.4699 9.29674 9.91623 9.6131 9.96896C9.92947 10.0481 10.984 10.3381 10.984 10.3381C11.1422 10.3644 11.854 10.5226 12.3022 10.8653C12.7504 11.2344 13.515 11.419 14.2532 11.4981C15.0177 11.5772 15.545 11.6035 15.545 11.6035C15.545 11.6035 16.0196 12.0254 16.0723 12.5263C16.125 13.0272 16.2305 13.4754 16.2305 13.739C16.2305 13.9499 16.2832 14.4772 16.3096 14.609C16.3359 14.7408 16.3623 15.6899 16.3887 15.8218C16.415 15.9272 16.4414 16.4545 16.4941 16.6127C16.5205 16.7709 16.7577 17.3509 16.8368 17.4563C16.9159 17.5618 17.285 17.6672 17.5487 17.6936C17.7859 17.72 18.0232 17.6672 18.1287 17.6145C18.2078 17.5618 18.2605 17.3509 18.2605 17.2718C18.2341 17.1927 18.1287 17.1136 18.1287 17.1136C18.1287 17.1136 18.4714 17.2191 18.7614 17.2191C19.0251 17.2191 19.2887 17.1663 19.3414 17.1136C19.4205 17.0345 19.6051 16.7709 19.3414 16.5336C19.1041 16.3227 18.8669 16.2963 18.656 16.3227C18.445 16.349 18.1023 15.9009 18.1023 15.5845C18.1023 15.2945 18.1814 14.4245 18.2078 14.2399C18.2341 14.0554 18.3923 12.869 18.6032 12.1308C18.8141 11.3926 18.656 11.3926 19.0778 10.9444C19.4732 10.4962 20.5014 9.17804 20.5542 8.41349C20.6069 7.67529 20.5278 7.04256 20.8442 6.43619C21.1605 5.82981 21.6087 4.72253 21.6615 4.64343C21.7142 4.56434 21.846 3.87888 21.9251 3.87888C22.0042 3.87888 23.296 4.11616 23.6651 4.03706C24.0342 3.95797 24.3242 3.7207 24.456 3.69433C24.6406 3.66797 24.7988 3.40433 24.8515 3.11432C24.9306 2.79796 24.9306 2.77159 24.9569 2.48159C25.0097 2.37613 25.0624 2.13886 24.7988 2.11249Z"
    fill="#261A12" />
</svg>