<svg width="21" height="20" viewBox="0 0 21 20" fill="none" xmlns="http://www.w3.org/2000/svg">
  <path d="M5.052 8.98065L4.42075 6.50634C4.30925 6.07036 3.84275 5.71472 3.3845 5.71472H0V7.34769H2.91675L4.5965 13.9271C4.81775 14.7993 5.75025 15.512 6.66675 15.512H16.6668C17.583 15.512 18.5157 14.7993 18.7377 13.9271L20 8.98065H5.052Z"
    transform="translate(0.666992)" fill="#261A12" />
  <path d="M15.4169 19.5944C16.1072 19.5944 16.6669 19.0461 16.6669 18.3697C16.6669 17.6934 16.1072 17.1451 15.4169 17.1451C14.7265 17.1451 14.1669 17.6934 14.1669 18.3697C14.1669 19.0461 14.7265 19.5944 15.4169 19.5944Z"
    transform="translate(0.666992)" fill="#261A12" />
  <path d="M7.91687 19.5944C8.60723 19.5944 9.16687 19.0461 9.16687 18.3697C9.16687 17.6934 8.60723 17.1451 7.91687 17.1451C7.22651 17.1451 6.66687 17.6934 6.66687 18.3697C6.66687 19.0461 7.22651 19.5944 7.91687 19.5944Z"
    transform="translate(0.666992)" fill="#261A12" />
  <path d="M19.8405 7.34797C19.056 3.16992 15.3255 0 10.8325 0V7.34797H19.8405Z" transform="translate(0.666992)" fill="#261A12"
  />
</svg>