<svg width="25" height="15" viewBox="0 0 25 15" fill="none" xmlns="http://www.w3.org/2000/svg">
<path d="M24.2232 12.8468H20.315L19.2702 11.1829H19.3863C20.315 11.1442 21.1275 10.5638 21.4371 9.67379L24.9584 -1.4761e-07H20.818C17.9545 -1.4761e-07 14.8976 2.24432 13.8529 5.06906L13.4272 6.26861H8.93858L8.28076 4.44994C7.85511 3.28909 6.53948 2.66996 5.37863 3.09561C4.7982 3.28909 4.33386 3.71473 4.10169 4.25647C3.83082 4.7982 3.83082 5.41732 4.0243 5.99775L5.33993 9.63509C5.68819 10.5638 6.57817 11.1442 7.66164 11.1442H9.24814L8.20337 12.7694H4.60472C2.94083 12.7694 1.5865 11.4151 1.5865 9.75118C1.5865 8.97727 1.85737 8.24207 2.3991 7.70033C2.70866 7.39077 2.66997 6.88774 2.3604 6.57818C2.05084 6.26861 1.54781 6.30731 1.23824 6.61687C0.425647 7.46816 1.84513e-08 8.59032 1.84513e-08 9.75118C1.84513e-08 12.3051 2.05084 14.3559 4.60472 14.3559H24.2232C24.6488 14.3559 24.9971 14.0076 24.9971 13.582C25.0358 13.195 24.6875 12.8468 24.2232 12.8468ZM11.1055 11.2216H17.4128L18.4576 12.8468H10.0607L11.1055 11.2216Z" fill="black"/>
</svg>
