<svg width="25" height="20" viewBox="0 0 25 20" fill="none" xmlns="http://www.w3.org/2000/svg">
  <path d="M1.25933 0.000197107C0.910192 -4.73059e-06 0.620136 0.269467 0.594919 0.617735C0.527303 1.39922 0.401195 2.01687 0.321497 2.57738C0.241803 3.13788 0.191939 3.6843 0.430867 4.22845C0.669811 4.77258 1.1651 5.17095 1.855 5.49518C2.17269 5.64449 2.54954 5.78659 2.98461 5.93069C2.20584 8.3098 2.85339 9.90302 3.47599 11.5124C3.61622 11.8798 3.62442 11.9432 3.62442 12.3139V14.7942L0.268376 18.269C-0.0961794 18.6463 -0.088751 19.2431 0.287108 19.6064C0.664424 19.9711 1.26607 19.9587 1.63077 19.5813L4.61847 16.4867L4.62251 16.4826C5.51815 15.5553 5.51816 15.5519 5.51816 13.9379V12.8707C5.51816 11.6816 5.51816 11.6817 5.94313 11.638C6.3681 11.5942 6.36802 11.5941 6.74074 12.6145L7.63052 15.0503V19.05C7.63052 19.5748 8.04945 20 8.57422 20C9.09696 20 9.52416 19.5748 9.52416 19.05V16.399C9.52416 14.7068 9.52335 14.6929 8.99606 13.2547C8.99283 13.2454 8.99009 13.2389 8.9867 13.2292L8.31174 11.388C7.69178 9.93767 6.55455 8.60915 6.84738 6.94841L7.11377 7.00153C8.15816 7.1857 8.90926 7.16881 9.57768 6.83825C10.1175 6.57127 10.4883 6.11365 10.7995 5.58011C11.1106 5.04657 11.3897 4.40887 11.7662 3.61813C12.1632 2.81142 10.9402 2.22914 10.5643 3.0459C10.1795 3.85419 9.89873 4.4826 9.64955 4.90985C9.40038 5.33709 9.21064 5.5346 8.98748 5.64496C8.54114 5.86569 7.49938 5.79101 5.14163 5.17156C3.84487 4.83086 2.96418 4.54559 2.42109 4.29036C1.87801 4.03514 1.71889 3.8508 1.64966 3.69313C1.58024 3.53546 1.56857 3.2607 1.63912 2.76468C1.70964 2.26866 1.84656 1.5945 1.92113 0.732377C1.96061 0.340723 1.65342 0.000601477 1.25985 0L1.25933 0.000197107ZM15.9701 1.40557C15.8427 1.40453 15.7177 1.44003 15.6099 1.5079C14.6279 2.10607 13.999 2.55922 13.6163 3.09764C13.425 3.36685 13.2863 3.70347 13.3308 4.06633C13.3753 4.42918 13.5973 4.72066 13.8354 4.91433C14.3118 5.30167 14.9254 5.49646 15.7232 5.72405C16.0575 5.81943 16.4296 5.91538 16.8235 6.01387L14.2909 12.9642L14.1143 13.4486C13.6694 14.7106 13.6683 14.718 13.6577 15.9683V19.0462C13.6577 19.571 14.0849 19.9962 14.6076 19.9962C15.1324 19.9962 15.5514 19.571 15.5513 19.0462V15.0465L16.7243 11.8217L16.7279 11.8116C16.9687 11.1499 16.9719 11.1474 17.2943 11.2316H17.2986C17.6634 11.3269 17.6638 11.3297 17.6638 12.08V13.9732C17.6638 15.5522 17.6638 15.5518 18.5876 16.5082L21.5511 19.5764C21.9158 19.9537 22.5174 19.9661 22.8948 19.6014C23.2706 19.2381 23.278 18.6413 22.9135 18.264L19.5574 14.7892V11.8331C19.63 11.0162 20.2906 8.63306 20.8296 7.08577C20.9389 7.11923 21.0667 7.1588 21.1702 7.18967C21.8823 7.40199 22.433 7.59322 23.058 7.47091C23.3705 7.40977 23.7156 7.19702 23.8951 6.89164C24.0746 6.58626 24.1149 6.25748 24.1095 5.90226C24.0987 5.19181 23.8893 4.2905 23.5049 2.96336C23.4819 2.87785 23.4422 2.79778 23.3879 2.72782C23.3337 2.65786 23.266 2.59945 23.1889 2.55597C23.1118 2.51248 23.0268 2.48481 22.9388 2.47459C22.8509 2.46436 22.7618 2.47179 22.6768 2.49642C22.5917 2.52104 22.5125 2.56239 22.4436 2.61803C22.3747 2.67367 22.3177 2.74249 22.2757 2.82046C22.2338 2.89843 22.2078 2.98397 22.1994 3.07209C22.1909 3.16022 22.2001 3.24913 22.2264 3.33365C22.5995 4.62168 22.7717 5.48638 22.7783 5.92256C22.7808 6.09437 22.7613 6.12969 22.7541 6.15458C22.6523 6.16266 22.2031 6.10853 21.5507 5.91396C20.8721 5.71163 19.9885 5.41756 18.9298 5.1566C17.8056 4.87952 16.8341 4.65351 16.0893 4.44103C15.3521 4.23072 14.8348 4.00141 14.6847 3.88324C14.6867 3.88405 14.6887 3.88405 14.7019 3.86565C14.8484 3.65948 15.3799 3.20404 16.3034 2.64151C16.4287 2.5676 16.5264 2.45464 16.5815 2.31993C16.6365 2.18522 16.6459 2.03618 16.6082 1.89563C16.5705 1.75508 16.4878 1.63076 16.3727 1.5417C16.2576 1.45264 16.1165 1.40376 15.971 1.40252H15.9702L15.9701 1.40557ZM19.1816 1.43056C18.2444 1.43056 17.4817 2.18659 17.4817 3.11794C17.4817 4.0551 18.2444 4.81159 19.1816 4.81159C20.1127 4.81159 20.8688 4.0551 20.869 3.11794C20.869 2.18659 20.1129 1.43056 19.1816 1.43056ZM5.74928 1.49504C4.81212 1.49504 4.05564 2.25107 4.05564 3.18242C4.05564 4.11958 4.81212 4.87607 5.74928 4.87607C6.68039 4.87607 7.44293 4.11958 7.44293 3.18242C7.44293 2.25107 6.68063 1.49504 5.74928 1.49504Z"
    fill="#261A12" />
</svg>