<svg width="25" height="24" viewBox="0 0 25 24" fill="none" xmlns="http://www.w3.org/2000/svg">
<path d="M0.086684 0.674205C-0.231373 0.19747 0.404741 -0.279265 0.722797 0.19747C0.802312 0.435838 0.96134 0.594749 1.19988 0.753661C1.59745 0.992028 2.07454 0.992028 2.55162 0.753661C2.71065 0.594749 2.86968 0.435838 3.02871 0.19747C3.18774 -0.0408974 3.50579 -0.0408974 3.66482 0.19747C3.74434 0.435838 3.98288 0.594749 4.14191 0.753661C4.53948 0.992028 5.09608 0.992028 5.49365 0.753661C5.65268 0.594749 5.81171 0.435838 5.97073 0.19747C6.12976 -0.0408974 6.44782 -0.0408974 6.60685 0.19747C6.68636 0.435838 6.9249 0.594749 7.08393 0.753661C7.4815 0.992028 8.0381 0.992028 8.43567 0.753661C8.5947 0.594749 8.75373 0.435838 8.91276 0.19747C9.07179 -0.0408974 9.38984 -0.0408974 9.54887 0.19747C9.62839 0.435838 9.86693 0.594749 10.026 0.753661C10.4235 0.992028 10.9801 0.992028 11.3777 0.753661C11.5367 0.594749 11.6958 0.435838 11.8548 0.19747C12.0138 -0.0408974 12.3319 -0.0408974 12.4909 0.19747C12.6499 0.435838 12.809 0.594749 12.968 0.753661C13.4451 0.992028 13.9222 0.992028 14.3197 0.753661C14.5583 0.594749 14.7173 0.435838 14.7968 0.19747C14.9558 -0.0408974 15.3534 -0.0408974 15.4329 0.19747C15.5919 0.435838 15.751 0.594749 15.9895 0.753661C16.3871 0.992028 16.8642 0.992028 17.2617 0.753661C17.5003 0.594749 17.6593 0.435838 17.7388 0.19747C17.8979 -0.0408974 18.2954 -0.0408974 18.3749 0.19747C18.534 0.435838 18.693 0.594749 18.9315 0.753661C19.3291 0.992028 19.8062 0.992028 20.2038 0.753661C20.4423 0.594749 20.6013 0.435838 20.6809 0.19747C20.8399 -0.0408974 21.2375 -0.0408974 21.317 0.19747C21.476 0.435838 21.635 0.594749 21.8736 0.753661C22.2711 0.992028 22.7482 0.992028 23.1458 0.753661C23.3843 0.594749 23.5434 0.435838 23.7024 0.19747C23.9409 -0.279265 24.5771 0.19747 24.259 0.674205C24.1 0.992028 23.8614 1.30985 23.5434 1.46876C22.9073 1.86604 22.1121 1.86604 21.476 1.46876C21.317 1.38931 21.1579 1.2304 20.9989 1.07148C20.9194 1.2304 20.7604 1.38931 20.6013 1.46876C19.9652 1.86604 19.1701 1.86604 18.534 1.46876C18.3749 1.38931 18.2159 1.2304 18.0569 1.07148C17.9774 1.2304 17.8183 1.38931 17.6593 1.46876C17.0232 1.86604 16.2281 1.86604 15.5919 1.46876C15.4329 1.38931 15.2739 1.2304 15.1149 1.07148C15.0353 1.2304 14.8763 1.38931 14.7173 1.46876C14.0812 1.86604 13.286 1.86604 12.6499 1.46876C12.4909 1.38931 12.3319 1.2304 12.1728 1.07148C12.0138 1.2304 11.8548 1.38931 11.6958 1.46876C11.0596 1.86604 10.344 1.86604 9.7079 1.46876C9.54887 1.38931 9.38984 1.2304 9.23081 1.07148C9.07179 1.2304 8.91276 1.38931 8.75373 1.46876C8.11762 1.86604 7.40199 1.86604 6.76588 1.46876C6.52733 1.38931 6.44782 1.2304 6.28879 1.07148C6.12976 1.2304 5.97073 1.38931 5.81171 1.46876C5.17559 1.86604 4.45996 1.86604 3.82385 1.46876C3.58531 1.38931 3.50579 1.2304 3.34677 1.07148C3.18774 1.2304 3.02871 1.38931 2.86968 1.46876C2.23357 1.86604 1.43843 1.86604 0.802312 1.46876C0.563769 1.30985 0.245712 0.992028 0.086684 0.674205Z" transform="translate(0 21.3193)" fill="black"/>
<path d="M0.086684 0.674205C-0.231373 0.19747 0.404741 -0.279265 0.722797 0.19747C0.802312 0.435838 0.96134 0.594749 1.19988 0.753661C1.59745 0.992028 2.07454 0.992028 2.55162 0.753661C2.71065 0.594749 2.86968 0.435838 3.02871 0.19747C3.18774 -0.0408974 3.50579 -0.0408974 3.66482 0.19747C3.74434 0.435838 3.98288 0.594749 4.14191 0.753661C4.53948 0.992028 5.09608 0.992028 5.49365 0.753661C5.65268 0.594749 5.81171 0.435838 5.97073 0.19747C6.12976 -0.0408974 6.44782 -0.0408974 6.60685 0.19747C6.68636 0.435838 6.9249 0.594749 7.08393 0.753661C7.4815 0.992028 8.0381 0.992028 8.43567 0.753661C8.5947 0.594749 8.75373 0.435838 8.91276 0.19747C9.07179 -0.0408974 9.38984 -0.0408974 9.54887 0.19747C9.62839 0.435838 9.86693 0.594749 10.026 0.753661C10.4235 0.992028 10.9801 0.992028 11.3777 0.753661C11.5367 0.594749 11.6958 0.435838 11.8548 0.19747C12.0138 -0.0408974 12.3319 -0.0408974 12.4909 0.19747C12.6499 0.435838 12.809 0.594749 12.968 0.753661C13.4451 0.992028 13.9222 0.992028 14.3197 0.753661C14.5583 0.594749 14.7173 0.435838 14.7968 0.19747C14.9558 -0.0408974 15.3534 -0.0408974 15.4329 0.19747C15.5919 0.435838 15.751 0.594749 15.9895 0.753661C16.3871 0.992028 16.8642 0.992028 17.2617 0.753661C17.5003 0.594749 17.6593 0.435838 17.7388 0.19747C17.8979 -0.0408974 18.2954 -0.0408974 18.3749 0.19747C18.534 0.435838 18.693 0.594749 18.9315 0.753661C19.3291 0.992028 19.8062 0.992028 20.2038 0.753661C20.4423 0.594749 20.6013 0.435838 20.6809 0.19747C20.8399 -0.0408974 21.2375 -0.0408974 21.317 0.19747C21.476 0.435838 21.635 0.594749 21.8736 0.753661C22.2711 0.992028 22.7482 0.992028 23.1458 0.753661C23.3843 0.594749 23.5434 0.435838 23.7024 0.19747C23.9409 -0.279265 24.5771 0.19747 24.259 0.674205C24.1 0.992028 23.8614 1.30985 23.5434 1.46876C22.9073 1.86604 22.1121 1.86604 21.476 1.46876C21.317 1.38931 21.1579 1.2304 20.9989 1.07148C20.9194 1.2304 20.7604 1.38931 20.6013 1.46876C19.9652 1.86604 19.1701 1.86604 18.534 1.46876C18.3749 1.38931 18.2159 1.2304 18.0569 1.07148C17.9774 1.2304 17.8183 1.38931 17.6593 1.46876C17.0232 1.86604 16.2281 1.86604 15.5919 1.46876C15.4329 1.38931 15.2739 1.2304 15.1149 1.07148C15.0353 1.2304 14.8763 1.38931 14.7173 1.46876C14.0812 1.86604 13.286 1.86604 12.6499 1.46876C12.4909 1.38931 12.3319 1.2304 12.1728 1.07148C12.0138 1.2304 11.8548 1.38931 11.6958 1.46876C11.0596 1.86604 10.344 1.86604 9.7079 1.46876C9.54887 1.38931 9.38984 1.2304 9.23081 1.07148C9.07179 1.2304 8.91276 1.38931 8.75373 1.46876C8.11762 1.86604 7.40199 1.86604 6.76588 1.46876C6.52733 1.38931 6.44782 1.2304 6.28879 1.07148C6.12976 1.2304 5.97073 1.38931 5.81171 1.46876C5.17559 1.86604 4.45996 1.86604 3.82385 1.46876C3.58531 1.38931 3.50579 1.2304 3.34677 1.07148C3.18774 1.2304 3.02871 1.38931 2.86968 1.46876C2.23357 1.86604 1.43843 1.86604 0.802312 1.46876C0.563769 1.30985 0.245712 0.992028 0.086684 0.674205Z" transform="translate(24.3467 18.2559) scale(-1 1)" fill="black"/>
<circle cx="5" cy="5" r="5" transform="translate(9.10352)" fill="black"/>
<path fill-rule="evenodd" clip-rule="evenodd" d="M0 0.5C0 0.223858 0.223858 0 0.5 0H3.74264C4.01878 0 4.24264 0.223858 4.24264 0.5C4.24264 0.776142 4.01878 1 3.74264 1H0.5C0.223858 1 0 0.776142 0 0.5Z" transform="translate(10.1816 9.70703) rotate(135)" fill="black"/>
<path fill-rule="evenodd" clip-rule="evenodd" d="M0 0.5C0 0.223858 0.223858 0 0.5 0H3.74264C4.01878 0 4.24264 0.223858 4.24264 0.5C4.24264 0.776142 4.01878 1 3.74264 1H0.5C0.223858 1 0 0.776142 0 0.5Z" transform="translate(18.0254 9.70703) scale(1 -1) rotate(-45)" fill="black"/>
<path fill-rule="evenodd" clip-rule="evenodd" d="M0 0.5C0 0.223858 0.223858 0 0.5 0H3.74264C4.01878 0 4.24264 0.223858 4.24264 0.5C4.24264 0.776142 4.01878 1 3.74264 1H0.5C0.223858 1 0 0.776142 0 0.5Z" transform="translate(8.10352 5.52539) rotate(180)" fill="black"/>
<path fill-rule="evenodd" clip-rule="evenodd" d="M0 0.5C0 0.223858 0.223858 0 0.5 0H3.74264C4.01878 0 4.24264 0.223858 4.24264 0.5C4.24264 0.776142 4.01878 1 3.74264 1H0.5C0.223858 1 0 0.776142 0 0.5Z" transform="translate(24.3457 5.52539) rotate(180)" fill="black"/>
<path fill-rule="evenodd" clip-rule="evenodd" d="M0 0.5C0 0.223858 0.223858 0 0.5 0H3.74264C4.01878 0 4.24264 0.223858 4.24264 0.5C4.24264 0.776142 4.01878 1 3.74264 1H0.5C0.223858 1 0 0.776142 0 0.5Z" transform="translate(13.6035 15.2402) rotate(-90)" fill="black"/>
</svg>
