<svg width="26" height="15" viewBox="0 0 26 15" fill="none" xmlns="http://www.w3.org/2000/svg">
  <path fill-rule="evenodd" clip-rule="evenodd" d="M14.6309 10.4293L14.8502 9.88117L16.6623 5.35329L17.6663 2.84453L16.7379 2.47298L15.8292 4.74349L13.8573 9.67094L13.7025 10.0578L14.6309 10.4293Z"
    transform="translate(0.5)" fill="#261A12" />
  <path fill-rule="evenodd" clip-rule="evenodd" d="M14.5544 3.24349H17.6266C17.9028 3.24349 18.1266 3.01963 18.1266 2.74349C18.1266 2.46735 17.9028 2.24349 17.6266 2.24349H14.5544C14.2782 2.24349 14.0544 2.46735 14.0544 2.74349C14.0544 3.01963 14.2782 3.24349 14.5544 3.24349Z"
    transform="translate(0.5)" fill="#261A12" />
  <path fill-rule="evenodd" clip-rule="evenodd" d="M4.5 14.7435C6.98528 14.7435 9 12.7288 9 10.2435C9 8.95195 8.4559 7.78749 7.58441 6.96682C7.3375 6.73431 7.06431 6.5294 6.76977 6.35701C6.10343 5.96702 5.32782 5.74349 4.5 5.74349C2.01472 5.74349 0 7.75821 0 10.2435C0 12.7288 2.01472 14.7435 4.5 14.7435ZM4.5 13.7435C2.567 13.7435 1 12.1765 1 10.2435C1 8.31049 2.567 6.74349 4.5 6.74349C5.16983 6.74349 5.79571 6.93165 6.32767 7.25801C6.62249 7.43888 6.88846 7.66219 7.11707 7.91944C7.66636 8.53754 8 9.35155 8 10.2435C8 12.1765 6.433 13.7435 4.5 13.7435Z"
    transform="translate(0.5)" fill="#261A12" />
  <path fill-rule="evenodd" clip-rule="evenodd" d="M20.5 14.7435C22.9853 14.7435 25 12.7288 25 10.2435C25 7.75821 22.9853 5.74349 20.5 5.74349C19.4266 5.74349 18.441 6.11932 17.6675 6.74658C16.7381 7.50034 16.1151 8.61717 16.0144 9.88117C16.0049 10.0007 16 10.1215 16 10.2435C16 12.7288 18.0147 14.7435 20.5 14.7435ZM20.5 13.7435C18.567 13.7435 17 12.1765 17 10.2435C17 10.1211 17.0063 10.0003 17.0185 9.88117C17.1142 8.95076 17.5744 8.1284 18.2538 7.55923C18.8617 7.05004 19.645 6.74349 20.5 6.74349C22.433 6.74349 24 8.31049 24 10.2435C24 12.1765 22.433 13.7435 20.5 13.7435Z"
    transform="translate(0.5)" fill="#261A12" />
  <path fill-rule="evenodd" clip-rule="evenodd" d="M8.07253 3.74349H9.07765H16.734L21.1158 9.81698C21.4624 10.2973 21.1635 10.8812 20.5723 10.8812H14.3155C14.0254 10.8812 13.6514 10.7592 13.4181 10.5886L7.81682 6.49344L7.00651 5.90101L8.07253 3.74349ZM13.8573 9.67094L8.27555 5.59006L8.69384 4.74349H15.8292L13.8573 9.67094ZM16.6623 5.35329L14.8502 9.88117H16.0144C16.1151 8.61717 16.7381 7.50034 17.6675 6.74658L16.6623 5.35329ZM17.0185 9.88117C17.1142 8.95076 17.5744 8.1284 18.2538 7.55923L19.929 9.88117H17.0185Z"
    transform="translate(0.5)" fill="#261A12" />
  <path d="M6.32767 7.25801C6.11062 7.70054 5.88656 8.15763 5.6626 8.61471L5.34946 9.25393C5.25231 9.45232 5.31438 9.31838 5.29279 9.36249L4.29341 9.94036C4.05436 10.0786 3.97263 10.3844 4.11086 10.6235C4.24909 10.8626 4.55494 10.9443 4.79399 10.8061L6.06189 10.0729L6.12885 9.93615L6.24754 9.69377L6.5606 9.05471C6.7474 8.67347 6.93427 8.29223 7.11707 7.91944C6.88846 7.66219 6.62249 7.43888 6.32767 7.25801Z"
    transform="translate(0.5)" fill="#261A12" />
  <path d="M10.396 0H8.25721C6.8219 0 6.10952 2.06239 7.40759 2.86936C8.19511 3.35894 8.22217 3.41744 7.92124 4.01997C7.75098 4.36089 7.34528 5.18469 6.76977 6.35701C7.06431 6.5294 7.3375 6.73431 7.58441 6.96682C7.66503 6.80256 7.74256 6.64465 7.81682 6.49344L7.00651 5.90101L8.07253 3.74349H9.07765C9.20518 3.04853 8.83628 2.58005 7.93556 2.0201C7.52603 1.76551 7.79045 1 8.25721 1H10.396C10.6721 1 10.896 0.776142 10.896 0.5C10.896 0.223858 10.6721 0 10.396 0Z"
    transform="translate(0.5)" fill="#261A12" />
</svg>