<svg width="17" height="20" viewBox="0 0 17 20" fill="none" xmlns="http://www.w3.org/2000/svg">
<path d="M15.1605 0.000427637H8.13724H1.11377C1.11377 0.000427637 6.76374e-08 -0.065596 6.76374e-08 1.45132V6.78547V8.8693C6.76374e-08 8.8693 0.166809 20 8.13748 20C16.1079 20 16.275 8.8693 16.275 8.8693V6.78547V1.45108C16.2747 -0.0658292 15.1605 0.000427637 15.1605 0.000427637ZM1.8552 5.77132C2.17108 4.85655 3.03942 4.19981 4.06151 4.19981C5.09875 4.19981 5.97783 4.87638 6.28158 5.81238C4.07877 5.42767 2.67128 5.56928 1.8552 5.77132ZM8.14518 15.1534C5.6799 15.1534 3.6432 13.8752 3.32661 12.2181C4.93474 13.0297 8.78278 14.4598 12.9476 12.2946C12.5839 13.9142 10.5724 15.1534 8.14518 15.1534ZM9.99267 5.81238C10.2964 4.87638 11.1755 4.19981 12.213 4.19981C13.2348 4.19981 14.1034 4.85655 14.4193 5.77132C13.6032 5.56928 12.1957 5.42767 9.99267 5.81238Z" fill="black"/>
</svg>
