<svg width="20" height="17" viewBox="0 0 20 17" fill="none" xmlns="http://www.w3.org/2000/svg">
<path fill-rule="evenodd" clip-rule="evenodd" d="M3.92158 2.35294L4.43772 0.804438C4.59786 0.324035 5.04745 0 5.55384 0H14.4462C14.9525 0 15.4021 0.324035 15.5623 0.804438L16.0784 2.35294H17.6471C18.9466 2.35294 20 3.40639 20 4.70588V14.1176C20 15.4171 18.9466 16.4706 17.6471 16.4706H2.35294C1.05345 16.4706 0 15.4171 0 14.1176V4.70588C0 3.40639 1.05345 2.35294 2.35294 2.35294H3.92158ZM10 13.8235C12.7614 13.8235 15 11.585 15 8.82353C15 6.06211 12.7614 3.82353 10 3.82353C7.23858 3.82353 5 6.06211 5 8.82353C5 11.585 7.23858 13.8235 10 13.8235ZM10 12.0588C8.2132 12.0588 6.76471 10.6103 6.76471 8.82353C6.76471 7.03673 8.2132 5.58824 10 5.58824C11.7868 5.58824 13.2353 7.03673 13.2353 8.82353C13.2353 10.6103 11.7868 12.0588 10 12.0588ZM16.4706 5.88235V7.05882H17.6471V5.88235H16.4706Z" fill="black"/>
</svg>
