<svg width="20" height="15" viewBox="0 0 20 15" fill="none" xmlns="http://www.w3.org/2000/svg">
  <path d="M20 2.38884e-07H-9.02816e-08V14.2857H20V2.38884e-07ZM9.04761 13.3333V11.4286H10.9524V13.3333H9.04761ZM12.8572 13.3333V11.4286H14.7619V13.3333H12.8572ZM16.6667 13.3333V11.4286H18.5714V13.3333H16.6667ZM5.23809 13.3333V11.4286H7.14285V13.3333H5.23809ZM1.42857 13.3333V11.4286H3.33333V13.3333H1.42857ZM9.04761 2.85715V0.952393H10.9524V2.85715H9.04761ZM12.8572 2.85715V0.952393H14.7619V2.85715H12.8572ZM16.6667 2.85715V0.952393H18.5714V2.85715H16.6667ZM5.23809 2.85715V0.952393H7.14285V2.85715H5.23809ZM1.42857 2.85715V0.952393H3.33333V2.85715H1.42857Z"
    fill="#261A12" />
</svg>