<svg width="26" height="16" viewBox="0 0 26 16" fill="none" xmlns="http://www.w3.org/2000/svg">
<path d="M5.75305 1.57558C5.7536 1.58133 5.75661 1.58597 5.75825 1.59199C5.75961 1.59636 5.75907 1.60101 5.76098 1.60593L5.87389 1.88204C5.87553 1.88532 5.87853 1.88669 5.88017 1.88942C5.88373 1.89626 5.88564 1.90446 5.89083 1.91075L6.07646 2.14804C6.07892 2.15159 6.08329 2.15296 6.0863 2.15624C6.09095 2.16061 6.09313 2.16635 6.0986 2.17018L6.33453 2.34979C6.33726 2.3517 6.34027 2.35061 6.34245 2.35252C6.34874 2.3569 6.35448 2.36236 6.36214 2.36565L6.63551 2.47828C6.64043 2.48046 6.64536 2.47992 6.65028 2.48128C6.65602 2.4832 6.66012 2.4862 6.66613 2.48702L6.96138 2.52666C6.96685 2.52721 6.97204 2.52748 6.97751 2.52748H6.9786C6.9838 2.52748 6.98899 2.52721 6.99446 2.52666L7.28971 2.48702C7.2949 2.4862 7.29927 2.4832 7.30447 2.48183C7.30994 2.48046 7.31513 2.48101 7.32032 2.47882L7.59479 2.36592C7.60245 2.36291 7.60846 2.3569 7.61475 2.35225C7.61749 2.35061 7.62022 2.35143 7.62213 2.34979L7.85806 2.17018C7.86352 2.16581 7.86626 2.16061 7.87063 2.15569C7.87419 2.15241 7.87829 2.15077 7.88102 2.14722L8.06364 1.9102C8.0691 1.90336 8.07074 1.89571 8.0743 1.8886C8.07594 1.88587 8.07922 1.8845 8.08004 1.88177L8.19267 1.60538C8.19431 1.60156 8.19376 1.59773 8.19486 1.59363C8.19705 1.58789 8.19978 1.58297 8.2006 1.57695L8.24352 1.28116C8.24434 1.27487 8.24243 1.2694 8.24243 1.26311C8.24243 1.25737 8.24434 1.25163 8.24352 1.24562L8.2006 0.949551C8.19978 0.944083 8.19677 0.940256 8.19513 0.935062C8.19349 0.929868 8.19404 0.924947 8.19212 0.920026L8.07949 0.647469C8.07731 0.642001 8.07293 0.638447 8.0702 0.633527C8.06746 0.628879 8.06637 0.623958 8.06336 0.619311L7.88075 0.382566C7.87719 0.378192 7.87255 0.376279 7.86899 0.372451C7.86517 0.368624 7.8627 0.363977 7.85833 0.360423L7.62241 0.179174C7.61803 0.175893 7.61284 0.174799 7.60792 0.172339C7.60327 0.169605 7.59999 0.165778 7.59507 0.163591L7.3206 0.0482261C7.3154 0.0460391 7.31021 0.0463122 7.30502 0.0449453C7.29955 0.0435784 7.2949 0.0400246 7.28889 0.0392044L6.99391 0.000111587C6.98817 -0.000435168 6.98325 0.00120502 6.97778 0.00120502C6.97231 0.00120502 6.96712 -0.000435168 6.96165 0.000111587L6.66613 0.0392044C6.66012 0.0400246 6.6552 0.0435784 6.64946 0.0449453C6.64426 0.0460388 6.63961 0.0460388 6.63415 0.0479524L6.36077 0.163318C6.35585 0.165505 6.3523 0.169332 6.34737 0.172066C6.343 0.1748 6.33781 0.175893 6.33343 0.1789L6.09751 0.360149C6.09368 0.363156 6.09177 0.367804 6.08794 0.371631C6.08411 0.375458 6.07947 0.377372 6.07591 0.381746L5.89029 0.618217C5.88646 0.623138 5.88537 0.628332 5.88263 0.633527C5.88017 0.638447 5.8758 0.641728 5.87361 0.647196L5.76071 0.919753C5.75879 0.924674 5.75907 0.929594 5.7577 0.934515C5.75633 0.939982 5.75305 0.94463 5.75251 0.950644L5.71232 1.24671C5.7115 1.25245 5.71314 1.25765 5.71314 1.26339C5.71314 1.26913 5.7115 1.27432 5.71232 1.28006L5.75305 1.57558Z" transform="translate(0 0.271484)" fill="black"/>
<path d="M20.2992 5.07995C20.2997 5.08569 20.3028 5.09034 20.3041 5.09608C20.3058 5.101 20.3052 5.10565 20.3071 5.11057L20.4258 5.39926C20.4271 5.40226 20.4304 5.4039 20.4318 5.40636C20.4356 5.41375 20.4375 5.4214 20.4424 5.42796L20.6324 5.67291C20.6352 5.67619 20.639 5.67755 20.642 5.68029C20.6461 5.68494 20.6486 5.6904 20.6538 5.69423L20.8965 5.88423C20.899 5.88614 20.9023 5.88532 20.9042 5.88696C20.9116 5.89188 20.9176 5.8979 20.9261 5.90145L21.2156 6.01955C21.2208 6.02174 21.2257 6.02119 21.2311 6.02283C21.2366 6.02392 21.2407 6.0272 21.2462 6.02775L21.5548 6.06876C21.5603 6.0693 21.5649 6.06958 21.5704 6.06958H21.5715C21.577 6.06958 21.5816 6.0693 21.5871 6.06876L21.896 6.02775C21.9015 6.0272 21.9056 6.02392 21.911 6.02283C21.9162 6.02119 21.9214 6.02174 21.9263 6.01955L22.2167 5.90145C22.2251 5.8979 22.2312 5.89188 22.2385 5.88696C22.2407 5.88532 22.244 5.88614 22.2462 5.88423L22.4884 5.69423C22.4933 5.6904 22.4958 5.68494 22.5002 5.68029C22.5029 5.67728 22.507 5.67591 22.5097 5.67263L22.6986 5.42769C22.7036 5.4214 22.7052 5.41375 22.7087 5.40691C22.7104 5.4039 22.7137 5.40254 22.715 5.39953L22.8337 5.11084C22.8359 5.1062 22.8353 5.10155 22.8364 5.09717C22.8383 5.09143 22.8413 5.08624 22.8422 5.08023L22.8832 4.77268C22.884 4.76694 22.8823 4.76174 22.8818 4.756C22.8823 4.75053 22.884 4.74534 22.8832 4.7396L22.8422 4.43177C22.8413 4.42603 22.8381 4.42166 22.8364 4.41619C22.835 4.411 22.8356 4.40608 22.8337 4.40116L22.7148 4.11329C22.7126 4.1081 22.7085 4.10482 22.7057 4.0999C22.703 4.09497 22.7022 4.08978 22.6989 4.08541L22.5097 3.83882C22.5067 3.83445 22.5023 3.83308 22.4988 3.82925C22.4947 3.82488 22.4928 3.82023 22.4879 3.8164L22.2459 3.62805C22.2413 3.62449 22.2363 3.62312 22.2314 3.62094C22.2265 3.61793 22.223 3.61383 22.2175 3.61164L21.9272 3.49081C21.922 3.4889 21.917 3.48944 21.9121 3.4878C21.9064 3.48644 21.9015 3.48288 21.8954 3.48234L21.5868 3.44242C21.5811 3.44188 21.5764 3.44352 21.5709 3.44352C21.5652 3.44352 21.5606 3.44188 21.5548 3.44242L21.2459 3.48234C21.2402 3.48288 21.235 3.48644 21.2292 3.48808C21.2243 3.48944 21.2191 3.4889 21.2142 3.49108L20.9247 3.61164C20.9195 3.61383 20.9162 3.61766 20.9118 3.62039C20.9069 3.6234 20.9012 3.62449 20.8963 3.62805L20.6538 3.8164C20.6494 3.81996 20.6475 3.82433 20.6437 3.82816C20.6398 3.83198 20.6352 3.8339 20.6319 3.83827L20.4416 4.08486C20.4381 4.08978 20.437 4.09497 20.4345 4.0999C20.4315 4.10482 20.4277 4.1081 20.4255 4.11329L20.3069 4.40116C20.3047 4.40635 20.3052 4.41182 20.3036 4.41674C20.3025 4.42221 20.2992 4.42631 20.2987 4.43177L20.2576 4.7396C20.2568 4.74534 20.2585 4.75053 20.2585 4.756C20.2585 4.76174 20.2568 4.76694 20.2576 4.77268L20.2992 5.07995Z" transform="translate(0 0.271484)" fill="black"/>
<path d="M25.9973 10.4709C25.9957 10.463 25.9919 10.4562 25.9889 10.4488C25.9856 10.4419 25.9834 10.4346 25.9793 10.428C25.9744 10.4217 25.9684 10.4162 25.9626 10.411C25.9569 10.4053 25.952 10.3998 25.9457 10.3955C25.9391 10.3911 25.9312 10.3889 25.9243 10.3859C25.9178 10.3832 25.912 10.3791 25.9052 10.3774L25.4101 10.2675L25.4842 10.1694C25.4891 10.1634 25.4905 10.1557 25.4938 10.1492C25.4954 10.1461 25.4987 10.1448 25.4995 10.1423L25.5941 9.91378C25.5963 9.90886 25.5957 9.90393 25.5974 9.89874C25.599 9.893 25.6023 9.88753 25.6029 9.88124L25.6321 9.63411C25.6332 9.62837 25.631 9.62318 25.631 9.61744C25.631 9.61115 25.6326 9.60513 25.6316 9.59912L25.5905 9.35417C25.5895 9.34816 25.5862 9.34351 25.5843 9.33777C25.5826 9.33203 25.5826 9.32656 25.5799 9.32082L25.4727 9.09884C25.4714 9.0961 25.4692 9.09474 25.4675 9.09228C25.4662 9.08982 25.4662 9.08681 25.4642 9.08462L23.3437 5.88119C23.3423 5.87928 23.3401 5.87791 23.3385 5.87627C23.333 5.86889 23.3267 5.86342 23.3202 5.85768C23.3147 5.85303 23.31 5.84838 23.3037 5.84483C23.2964 5.83991 23.2879 5.83745 23.2797 5.83471C23.2729 5.83253 23.2668 5.82979 23.26 5.8287C23.2524 5.82733 23.2444 5.82843 23.237 5.82843C23.228 5.8287 23.2195 5.82897 23.2111 5.83116C23.2089 5.83198 23.207 5.83116 23.2051 5.83198L22.2854 6.11383H21.7723C21.7723 6.11383 21.7723 6.11383 21.7717 6.11383C21.7616 6.11383 21.7515 6.11739 21.7414 6.11985C21.7357 6.12149 21.7291 6.12149 21.7234 6.12422C21.7231 6.12449 21.7225 6.12422 21.722 6.12449L21.3245 6.30274C21.3201 6.30492 21.3171 6.30848 21.3133 6.31094C21.3086 6.31367 21.304 6.31449 21.2999 6.3175L19.9308 7.36781C19.9281 7.37 19.927 7.37301 19.9248 7.3752C19.9226 7.37684 19.9196 7.37793 19.9177 7.38012L19.4445 7.87192C19.4423 7.87411 19.4415 7.87739 19.4396 7.8793C19.4338 7.88614 19.4297 7.89379 19.4253 7.90172C19.4215 7.90855 19.4188 7.91566 19.4166 7.92304C19.4155 7.9266 19.413 7.92878 19.4125 7.93261L19.223 8.85827L8.07855 6.55998V5.58922L8.2125 5.42164C8.21633 5.41699 8.21715 5.41207 8.21988 5.40715C8.22426 5.39977 8.22836 5.39266 8.23137 5.38474C8.2341 5.37708 8.23492 5.36915 8.23629 5.36122C8.23711 5.35384 8.23847 5.34619 8.23793 5.33881C8.23765 5.32979 8.23547 5.32186 8.23273 5.31311C8.23164 5.30764 8.23219 5.303 8.23 5.2978L8.06925 4.90742C8.06734 4.90332 8.06433 4.90113 8.06242 4.89703C8.06023 4.89348 8.05996 4.88965 8.0575 4.88582L7.10751 3.47027L6.7472 2.81472C6.7472 2.81417 6.74665 2.81417 6.74665 2.81362C6.74392 2.80925 6.73982 2.80624 6.73654 2.80241C6.72998 2.79312 6.72314 2.78382 6.71467 2.77699C6.71439 2.77699 6.71439 2.77672 6.71412 2.77644L5.50115 1.84723C5.49705 1.84423 5.49295 1.84341 5.48857 1.84095C5.48119 1.83657 5.47408 1.83274 5.46561 1.82974C5.45713 1.827 5.44893 1.82564 5.44046 1.82482C5.43554 1.82372 5.43144 1.82154 5.42624 1.82154H5.20535C5.20071 1.82154 5.19688 1.82372 5.1925 1.82427C5.18512 1.82509 5.17747 1.82646 5.17063 1.82864C5.16189 1.83138 5.15396 1.83466 5.14603 1.83876C5.14275 1.84095 5.13919 1.84149 5.13564 1.84368L2.70122 3.51429L1.6971 4.1611C1.69683 4.16137 1.69683 4.16192 1.69628 4.16192C1.68835 4.16739 1.68179 4.17504 1.67551 4.18242C1.67058 4.18734 1.66539 4.19117 1.66156 4.19636C1.66102 4.19718 1.66047 4.19746 1.65992 4.19773L1.42919 4.55832C1.42701 4.5616 1.42701 4.56488 1.42537 4.56843C1.42126 4.57526 1.41908 4.58292 1.41662 4.5903C1.41416 4.59878 1.41224 4.60698 1.41142 4.61545C1.41142 4.61873 1.40951 4.62174 1.40951 4.62502V5.0329C1.40951 5.03864 1.41197 5.04356 1.41306 5.04958C1.41361 5.05477 1.41252 5.05996 1.41388 5.06516L1.44505 5.17998L0.460343 4.98178C0.394733 4.96866 0.329122 5.0113 0.315727 5.07855L0.00243659 6.63626C-0.0109589 6.70269 0.0322347 6.76748 0.0986654 6.78115L3.98527 7.56218L5.75785 10.5043C5.76414 10.5144 5.77398 10.5199 5.7819 10.5278C5.78765 10.533 5.79147 10.539 5.79803 10.5431C5.81826 10.5557 5.84013 10.5639 5.86364 10.5639C5.87622 10.5639 5.88934 10.562 5.90219 10.5579L7.3664 10.0742C7.36941 10.0734 7.37159 10.0707 7.3746 10.0693C7.37733 10.0685 7.37952 10.0688 7.38198 10.0674C7.3869 10.0652 7.38936 10.0611 7.39374 10.0584C7.40112 10.0535 7.40823 10.0488 7.41397 10.0428C7.41944 10.0373 7.42381 10.0311 7.42791 10.0248C7.43283 10.0185 7.43638 10.0119 7.43966 10.0045C7.44295 9.99743 7.44459 9.98977 7.44595 9.98212C7.44759 9.97474 7.44923 9.96708 7.44923 9.95888C7.44923 9.95123 7.44787 9.94303 7.44595 9.9351C7.44513 9.92936 7.44595 9.92444 7.44431 9.91842C7.44322 9.91569 7.44076 9.9135 7.43966 9.91077C7.4383 9.90831 7.43884 9.9053 7.43748 9.90311L6.57169 8.14311L12.139 9.33176V9.60595L11.0061 10.5193C11.0042 10.5209 11.0037 10.5231 11.002 10.5248C10.9955 10.5305 10.9906 10.5376 10.9854 10.5445C10.9807 10.5502 10.9761 10.5562 10.9731 10.5625C10.9695 10.5691 10.9681 10.5764 10.9665 10.5836C10.964 10.5918 10.9616 10.6002 10.9613 10.609C10.9613 10.6112 10.9599 10.6133 10.9599 10.6153V14.9199C10.9599 14.9877 11.0149 15.0426 11.083 15.0426H13.6661C13.7342 15.0426 13.7894 14.9877 13.7894 14.9199V10.6153C13.7894 10.6144 13.7889 10.6136 13.7889 10.6128C13.7883 10.603 13.7853 10.5939 13.7831 10.5844C13.7815 10.5784 13.7809 10.5718 13.7787 10.5663C13.776 10.5606 13.7714 10.5557 13.7678 10.5499C13.7626 10.5423 13.758 10.5335 13.7511 10.5267C13.7509 10.5264 13.7503 10.5253 13.7498 10.525L12.8304 9.6732V9.50371L19.5235 10.8616L18.205 12.267C18.2047 12.2676 18.2044 12.2676 18.2042 12.2676C18.1872 12.2856 18.1787 12.3083 18.1752 12.3315C18.1708 12.3564 18.173 12.3818 18.1842 12.4048C18.1902 12.4182 18.1987 12.431 18.2102 12.4417L19.146 13.3181C19.1517 13.3239 19.1591 13.3263 19.1654 13.3307C19.1703 13.3335 19.1741 13.337 19.1796 13.3392C19.1957 13.3463 19.2127 13.3512 19.2299 13.3512C19.252 13.3512 19.2731 13.343 19.2928 13.3313C19.2952 13.3299 19.2985 13.3304 19.301 13.3285L22.0366 11.393L25.6348 12.0997C25.6362 12.1 25.6376 12.1 25.6392 12.1002C25.6398 12.1002 25.6403 12.1005 25.6409 12.1005C25.6466 12.1016 25.6529 12.1022 25.6589 12.1022C25.6734 12.1022 25.6876 12.0994 25.7007 12.0948C25.7056 12.0929 25.7089 12.0893 25.7138 12.0874C25.7218 12.083 25.7302 12.0795 25.7371 12.0735C25.7417 12.0696 25.7447 12.065 25.7486 12.0601C25.7543 12.0543 25.7603 12.0483 25.7644 12.0415C25.768 12.0357 25.7691 12.0297 25.7713 12.0237C25.774 12.0171 25.7775 12.0106 25.7789 12.0032C25.7795 12.0024 25.7789 12.0013 25.7789 12.0005C25.7795 11.9994 25.78 11.9983 25.78 11.9975L25.9998 10.516C26.0006 10.5095 25.9987 10.5037 25.9987 10.4974C25.9987 10.4881 25.9992 10.4791 25.9973 10.4709ZM21.7201 7.69997L22.2988 9.05483L21.462 9.32465L19.769 8.98183L19.7911 8.85526L21.7201 7.69997ZM5.85271 4.0512L7.35574 5.87982C7.35683 5.88119 7.35875 5.88174 7.36011 5.8831C7.36886 5.89267 7.37925 5.90005 7.39046 5.90661C7.39428 5.9088 7.39702 5.91208 7.40057 5.91345C7.40959 5.91782 7.41971 5.91891 7.42982 5.92028V6.41783L5.4421 6.08895L4.80622 5.0627L5.85271 4.0512Z" transform="translate(0 0.271484)" fill="black"/>
</svg>
