<svg width="20" height="16" viewBox="0 0 20 16" fill="none" xmlns="http://www.w3.org/2000/svg">
<path fill-rule="evenodd" clip-rule="evenodd" d="M14.6065 6.31647C14.6065 7.62508 15.6678 8.6861 16.9762 8.6861C18.2852 8.6861 19.3462 7.62508 19.3462 6.31647C19.3462 5.00766 18.2852 3.94685 16.9762 3.94685C15.6678 3.94705 14.6065 5.00786 14.6065 6.31647Z" fill="black"/>
<path d="M4.45604 12.2249C5.08885 12.2249 5.37045 11.9725 5.79646 11.5901L5.79738 11.5893C6.30563 11.1338 6.9378 10.5673 8.15168 10.5673C9.36671 10.5673 9.99871 11.1343 10.5065 11.5899L10.5067 11.5901C10.9327 11.9725 11.2143 12.2249 11.8475 12.2249C12.4811 12.2249 12.7623 11.9725 13.1881 11.5901L13.1896 11.5888C13.698 11.1334 14.3299 10.5673 15.544 10.5673C15.6616 10.5673 15.7722 10.5741 15.8794 10.5843L11.6927 3.54484L15.8986 2.59263C16.6058 2.43263 17.0488 1.72983 16.8886 1.02282C16.7288 0.315812 16.0258 -0.127193 15.319 0.0326088L9.40529 1.37162C9.00249 1.46282 8.66589 1.73863 8.49748 2.11563C8.32848 2.49323 8.34748 2.92784 8.54829 3.28884L10.1149 6.10947L1.86682 10.7571C2.41342 10.9621 2.79063 11.2989 3.11563 11.5903C3.54144 11.9727 3.82304 12.2249 4.45604 12.2249Z" fill="#261A12"/>
<path d="M16.8852 14.3506C16.459 13.9683 16.1772 13.7157 15.5442 13.7157C14.9109 13.7157 14.6293 13.9683 14.2033 14.3506L14.2027 14.3511C13.6944 14.8066 13.0622 15.3732 11.8477 15.3732C10.6333 15.3732 10.0005 14.8062 9.49249 14.3506C9.06669 13.9683 8.78489 13.7157 8.15168 13.7157C7.51915 13.7157 7.23808 13.9678 6.81264 14.3493L6.81127 14.3506L6.81063 14.3511C6.30233 14.8066 5.67015 15.3732 4.45604 15.3732C3.24199 15.3732 2.61002 14.8071 2.10162 14.3516L2.10042 14.3506L2.09972 14.3499C1.67411 13.9681 1.39287 13.7157 0.760008 13.7157C0.340203 13.7157 0 13.3755 0 12.9559C0 12.5363 0.340203 12.1961 0.760008 12.1961C1.97462 12.1961 2.60723 12.7633 3.11523 13.2191L3.11542 13.2193C3.54132 13.6012 3.82293 13.8537 4.45584 13.8537C5.08856 13.8537 5.37017 13.6012 5.79607 13.2193L5.79626 13.2191L5.79683 13.2186C6.30514 12.7629 6.93733 12.1961 8.15148 12.1961C9.36669 12.1961 9.9987 12.7633 10.5065 13.2191L10.5067 13.2193C10.9326 13.6012 11.2142 13.8537 11.8473 13.8537C12.4806 13.8537 12.7618 13.6014 13.1872 13.2198L13.1879 13.2191L13.1891 13.2181C13.6975 12.7625 14.3294 12.1961 15.5438 12.1961C16.7586 12.1961 17.391 12.7633 17.8992 13.2191L17.8996 13.2195C18.3256 13.6013 18.6072 13.8537 19.2402 13.8537C19.6596 13.8537 20 14.1938 20 14.6138C20.0004 15.0332 19.66 15.3732 19.2406 15.3732C18.0258 15.3732 17.3939 14.8066 16.8858 14.3511L16.8852 14.3506Z" fill="#261A12"/>
</svg>
