<svg width="21" height="20" viewBox="0 0 21 20" fill="none" xmlns="http://www.w3.org/2000/svg">
  <path d="M3.51703 2.05619C3.45155 1.16125 4.10638 0.375452 5.02315 0.288141C5.91809 0.222658 6.70389 0.877492 6.79121 1.79426C6.85669 2.6892 6.18003 3.475 5.28509 3.56231C4.39015 3.6278 3.60434 2.97296 3.51703 2.05619ZM14.1254 3.27855C15.0203 3.21307 15.697 2.42727 15.6315 1.5105C15.566 0.615559 14.7802 -0.061104 13.8634 0.00437949C12.9685 0.069863 12.2918 0.855665 12.3573 1.77243C12.4228 2.66737 13.2086 3.34404 14.1254 3.27855ZM20.5209 18.2743L18.4254 14.7382L16.6792 6.96745L17.8143 7.90605L18.4254 10.6782C18.5127 11.0274 18.8402 11.3112 19.2112 11.2894C19.626 11.2675 19.9316 10.8965 19.8879 10.5036C19.8879 10.4817 19.8879 10.4381 19.8661 10.4163L19.1458 7.1639C19.1021 7.01111 19.0366 6.90197 18.9275 6.81466L15.6315 4.15167C15.3041 3.93339 14.9112 3.78059 14.4746 3.80242C13.9071 3.84608 13.4487 4.19532 13.1649 4.63188L11.506 7.90605L9.9999 9.21572L9.38872 7.53498C9.34506 7.38218 9.27958 7.27304 9.17044 7.18573L6.18003 4.50091C5.85261 4.28263 5.65616 4.12984 5.24143 4.15167C4.67391 4.19532 4.21552 4.54457 3.93176 4.98112L2.0764 8.2553L0.286516 9.80507C0.0900656 9.95787 -0.0190735 10.198 0.00275429 10.4599C-0.0190735 10.7655 0.177377 11.0274 0.351999 11.1147C0.54845 11.1584 0.875867 11.2239 1.1378 11.0274L3.12413 9.34669C3.18962 9.2812 3.2551 9.21572 3.29875 9.12841L3.93176 7.77508L3.95359 11.3767L0.526622 18.4489C0.264688 18.9946 0.482966 19.6494 1.02866 19.8895C1.57436 20.1515 2.22919 19.9332 2.4693 19.3875L5.59068 12.9701L7.66432 19.2783C7.83894 19.824 8.42829 20.1078 8.97399 19.9332C9.51968 19.7586 9.80345 19.1692 9.62882 18.6235L7.11862 10.9401L6.944 7.33853L8.07905 8.27712L8.95216 10.569C9.03947 10.8965 9.32323 11.1802 9.69431 11.1802C9.71613 11.1802 9.75979 11.1802 9.78162 11.1802C9.89076 11.1802 9.9999 11.1366 10.109 11.0711L12.5756 8.97561C12.6411 8.91013 12.7065 8.84465 12.7502 8.75734L13.3614 7.53498L14.1035 10.8092L11.2223 14.2143C11.1568 14.3234 11.1131 14.4326 11.0913 14.5635L10.3055 18.7108C10.3055 18.7981 10.3055 18.8636 10.3055 18.9291C10.3491 19.5403 10.8948 19.9987 11.506 19.9332C12.0081 19.8895 12.3791 19.5184 12.5101 19.0601L13.2522 15.1747L15.5878 12.6209L16.1335 15.1311C16.1553 15.2402 16.3081 15.5021 16.3518 15.6113L18.6219 19.4311C18.862 19.7804 19.2331 19.9987 19.6696 19.9768C20.2808 19.9332 20.7392 19.3875 20.6955 18.7763C20.6737 18.5799 20.5864 18.4052 20.5209 18.2743Z"
    fill="#261A12" />
</svg>