<svg width="23" height="17" viewBox="0 0 23 17" fill="none" xmlns="http://www.w3.org/2000/svg">
<path fill-rule="evenodd" clip-rule="evenodd" d="M3.7944 5.91952C4.26096 4.89891 4.69836 3.84915 5.28157 2.68274C5.60233 2.12869 5.95225 1.63297 6.59378 1.57465H16.4208C17.0623 1.63297 17.4122 2.12869 17.733 2.68274C18.3162 3.84915 18.7536 4.89891 19.2201 5.91952H3.7944ZM8.40171 10.1186H14.5837C14.9628 10.1186 15.2544 10.4394 15.2544 10.8184C15.2544 11.1684 14.9628 11.4891 14.5837 11.4891H8.40171C8.05179 11.4891 7.73102 11.1684 7.73102 10.8184C7.73102 10.4394 8.05179 10.1186 8.40171 10.1186ZM6.59378 0C5.54401 0 4.90248 0.379083 4.02768 1.60381L2.56967 4.89891H0.353493C0.00357063 4.89891 -0.637954 6.70685 1.69486 6.76517L0.907537 8.66058C0.936697 11.0809 0.936697 13.472 0.936697 15.8631C0.936697 16.3589 1.34494 16.7671 1.84066 16.7671H4.87332C5.36905 16.7671 5.74813 16.3589 5.74813 15.8631V13.8803H17.2372V15.8631C17.2372 16.3589 17.6455 16.7671 18.1412 16.7671H21.1739C21.6696 16.7671 22.0487 16.3589 22.0487 15.8631C22.0487 13.472 22.0778 11.0809 22.0778 8.66058L21.2905 6.76517C23.6525 6.70685 22.9818 4.89891 22.661 4.89891H20.4449L18.9869 1.60381C18.1121 0.379083 17.4705 0 16.4208 0H6.59378ZM18.7827 8.83554C17.9954 8.83554 17.3247 9.47706 17.3247 10.2936C17.3247 11.0809 17.9954 11.7516 18.7827 11.7516C19.5992 11.7516 20.2407 11.0809 20.2407 10.2936C20.2407 9.47706 19.5992 8.83554 18.7827 8.83554ZM4.2318 8.83554C5.01912 8.83554 5.68981 9.47706 5.68981 10.2936C5.68981 11.0809 5.01912 11.7516 4.2318 11.7516C3.41531 11.7516 2.77379 11.0809 2.77379 10.2936C2.77379 9.47706 3.41531 8.83554 4.2318 8.83554Z" fill="black"/>
</svg>
