<svg width="25" height="16" viewBox="0 0 25 16" fill="none" xmlns="http://www.w3.org/2000/svg">
<path d="M0 0V15.5H7L2.09975 0H0Z" fill="black"/>
<path d="M18 15.5H25V0H22.9005L18 15.5Z" fill="black"/>
<path d="M12.4997 15.3391C13.5395 15.3391 14.2332 14.5889 15.273 14.5889C15.7905 14.5889 16.3463 14.8286 16.7778 15.0146L17.3752 12.9861C16.6695 12.7819 16.0735 12.3391 15.2733 12.3391C14.2335 12.3391 13.54 13.0889 12.5 13.0889C11.4598 13.0889 10.7668 12.3391 9.72675 12.3391C8.9265 12.3391 8.33075 12.7819 7.625 12.9861L8.2225 15.0146C8.6535 14.8286 9.2095 14.5889 9.72675 14.5889C10.7668 14.5889 11.4602 15.3391 12.4997 15.3391Z" fill="black"/>
<path d="M12.5002 4.30493C13.5327 4.30493 14.221 3.55493 15.2535 3.55493C16.2862 3.55493 16.9745 4.30493 18.007 4.30493C18.8593 4.30493 19.4797 3.79943 20.2502 3.62093L19.4778 6.22819C19.2238 6.31494 18.3008 6.55518 18.0065 6.55518C16.9743 6.55518 16.286 5.80493 15.2533 5.80493C14.2208 5.80493 13.5323 6.55518 12.5 6.55518C11.4675 6.55518 10.7792 5.80493 9.74675 5.80493C8.71425 5.80493 8.02575 6.55518 6.99325 6.55518C6.69925 6.55518 5.77625 6.31519 5.52225 6.22819L4.75 3.62093C5.5205 3.79943 6.1405 4.30493 6.993 4.30493C8.0255 4.30493 8.71375 3.55493 9.7465 3.55493C10.779 3.55493 11.467 4.30493 12.4997 4.30493H12.5002Z" fill="black"/>
<path d="M12.5002 8.69703C13.54 8.69703 14.233 7.94677 15.2725 7.94677C16.3123 7.94677 17.0055 8.69703 18.0453 8.69703C18.2973 8.69703 18.5287 8.65328 18.75 8.58728L18.0447 10.9468C17.0052 10.9468 16.3122 10.197 15.2722 10.197C14.2327 10.197 13.5395 10.9468 12.5 10.9468C11.4605 10.9468 10.7675 10.197 9.72775 10.197C8.688 10.197 7.995 10.9468 6.95525 10.9468L6.25025 8.58728C6.4715 8.65353 6.70325 8.69703 6.955 8.69703C7.99475 8.69703 8.68775 7.94677 9.7275 7.94677C10.7672 7.94677 11.4602 8.69703 12.4997 8.69703H12.5002Z" fill="black"/>
</svg>
