<svg width="18" height="18" viewBox="0 0 18 18" fill="none" xmlns="http://www.w3.org/2000/svg">
<path fill-rule="evenodd" clip-rule="evenodd" d="M10.8519 0.185185C14.5556 0.962963 17.4259 4.01852 17.9259 7.83333C17.9444 8.03704 17.9815 8.25926 17.9815 8.46296C16.9444 9.11111 15.7963 9.51852 14.6111 9.66667C14.3704 9.7037 14.1481 9.72222 13.9074 9.74074C14.4259 7.7037 14.2407 5.62963 13.4815 3.7963C12.9074 2.40741 12.0185 1.16667 10.8519 0.185185ZM12.963 9.72222C11.7593 9.64815 10.5741 9.31481 9.46296 8.72222C9.40741 6.68519 8.68519 4.77778 7.5 3.24074C6.81481 2.33333 5.96296 1.55556 4.98148 0.944444C6.18519 0.351852 7.53704 0 8.96296 0C8.98148 0 9 0.0185185 9 0.0185185C10.6852 0.981481 11.9259 2.44444 12.6296 4.14815C13.3148 5.83333 13.4815 7.75926 12.9815 9.62963C12.963 9.66667 12.963 9.68519 12.963 9.72222ZM8.53704 8.74074C6.7963 9.81481 5.5 11.3889 4.75926 13.1667C4.33333 14.2222 4.07407 15.3519 4.05556 16.5185C2.90741 15.7593 1.96296 14.7593 1.25926 13.5926C1.27778 13.537 1.27778 13.5 1.27778 13.4444C1.27778 11.5 1.92593 9.68519 3.05556 8.24074C4.16667 6.77778 5.74074 5.68519 7.61111 5.18519H7.62963C8.18519 6.25926 8.5 7.48148 8.53704 8.74074ZM0.481481 11.9074C0.166667 11 0 10.0185 0 9C0 5.85185 1.61111 3.09259 4.05556 1.48148C5.12963 2.05556 6.05556 2.85185 6.77778 3.7963C6.90741 3.98148 7.03704 4.16667 7.16667 4.35185C5.18519 4.94444 3.5 6.12963 2.31481 7.68519C1.37037 8.90741 0.740741 10.3519 0.481481 11.9074ZM9 9.53704C8.03704 10.1296 7.24074 10.8889 6.59259 11.7778C6.61111 11.7963 6.64815 11.8148 6.66667 11.8333C8.01852 13.2037 9.75926 14.0185 11.5926 14.2593C13.4074 14.5 15.2963 14.1481 16.963 13.1852C17.5556 12.0926 17.9074 10.8519 17.9815 9.53704C16.963 10.0741 15.8704 10.4259 14.7222 10.5926C12.7963 10.8333 10.7963 10.5 9 9.53704ZM6.09259 12.5741C5.90741 12.8704 5.75926 13.2037 5.61111 13.5185C5.16667 14.6296 4.92593 15.8333 4.96296 17.0556C6.18519 17.6667 7.55556 18 9 18C11.8148 18 14.3519 16.7037 16 14.6667C14.537 15.2037 12.9815 15.3704 11.463 15.1667C9.48148 14.9074 7.59259 14.037 6.09259 12.5741Z" fill="black"/>
</svg>
