<svg width="13" height="20" viewBox="0 0 13 20" fill="none" xmlns="http://www.w3.org/2000/svg">
  <path d="M5.33161 5.0444C5.33161 5.71107 5.33161 10.4666 5.33161 10.4666L2.15386 13.0888C2.02053 13.1999 1.86497 13.4221 1.79831 13.5999C1.79831 13.5999 0.309429 17.7776 0.0649866 18.5776C-0.357232 19.9554 1.39831 20.5332 1.86497 19.1776C2.33164 17.8221 3.42052 14.7332 3.42052 14.7332C3.48718 14.5554 3.64274 14.3332 3.77607 14.2221L7.79826 10.9777C7.93159 10.8666 8.0427 10.6444 8.0427 10.4444V6.15551C8.0427 5.97773 8.15381 5.91106 8.28714 6.02217L10.0649 7.42216C10.1982 7.53327 10.3094 7.75549 10.3094 7.93327C10.3094 7.93327 10.3094 9.39993 10.3094 10.3999C10.3094 11.3999 11.7316 11.4666 11.7316 10.4221C11.7316 9.3777 11.7316 6.99994 11.7316 6.99994C11.7316 6.82217 11.6205 6.59995 11.4649 6.48884C11.4649 6.48884 8.10937 3.9333 7.77604 3.62219C7.50937 3.33331 5.33161 4.35552 5.33161 5.0444ZM6.50938 13.0888C6.50938 13.0888 9.86491 18.3776 10.6205 19.511C11.376 20.6443 13.1093 19.6221 12.2204 18.3332C11.3316 17.0443 7.99826 11.9332 7.99826 11.9332L6.50938 13.0888ZM6.42049 0C4.86495 0 4.5094 0.644439 4.5094 1.95554C4.5094 3.26664 5.17606 3.33331 5.70939 3.33331C6.42049 3.33331 7.95381 2.66665 7.95381 1.13332C7.97604 0.133332 6.9316 0 6.42049 0Z"
    fill="#261A12" />
  <path d="M1.27899 8.71697C2.17623 8.16063 4.61856 6.47838 4.61856 6.47838V8.22698C4.61856 8.22698 2.87494 9.44016 1.99966 9.99995C1.12782 10.5378 0.38175 9.27331 1.27899 8.71697Z"
    fill="#261A12" />
  <path d="M2.12451 7.83063C2.0433 7.5667 1.76351 7.41857 1.49957 7.49978C1.23564 7.58099 1.08752 7.86078 1.16873 8.12471L2.44354 11.6951L3.27398 10.9936L2.12451 7.83063Z"
    fill="#261A12" />
  <path d="M5.47494 19.8469C5.73887 19.7657 5.88699 19.4859 5.80578 19.222L4.49685 14.968L3.64677 15.6056L4.85 19.5161C4.93121 19.78 5.211 19.9281 5.47494 19.8469Z"
    fill="#261A12" />
</svg>