<svg width="25" height="10" viewBox="0 0 25 10" fill="none" xmlns="http://www.w3.org/2000/svg">
<path d="M14.3243 6.54201C11.1968 6.54201 9.63992 5.0476 7.99101 3.46451C6.21625 1.76166 4.38145 1.85994e-07 0.695401 1.85994e-07C0.311437 1.85994e-07 2.65042e-07 0.311132 2.65042e-07 0.695095C2.65042e-07 1.07906 0.311437 1.39019 0.695401 1.39019C3.82287 1.39019 5.37975 2.8846 7.02866 4.46708C8.80251 6.17054 10.6373 7.93189 14.3243 7.93189C14.7082 7.93189 15.0197 7.62076 15.0197 7.2368C15.0197 6.85283 14.7082 6.54201 14.3243 6.54201Z" transform="translate(4.7793 0.96875)" fill="black"/>
<path d="M3.22644 0.101705C3.09174 -0.0335963 2.87112 -0.033901 2.73551 0.101705L1.66407 1.17254L0.592628 0.101705C0.457022 -0.033901 0.23731 -0.033901 0.101704 0.101705C-0.0339024 0.237311 -0.0339024 0.457328 0.101704 0.59263L1.17315 1.66346L0.101704 2.73429C-0.0339024 2.86959 -0.0339024 3.08961 0.101704 3.22522C0.169659 3.29317 0.258032 3.327 0.347318 3.327C0.436605 3.327 0.524978 3.29317 0.592933 3.22522L1.66438 2.15439L2.73582 3.22522C2.80377 3.29317 2.89306 3.327 2.98143 3.327C3.07072 3.327 3.15909 3.29317 3.22705 3.22522C3.36265 3.08961 3.36265 2.86959 3.22705 2.73429L2.1556 1.66346L3.22705 0.59263C3.36204 0.457328 3.36204 0.237311 3.22644 0.101705Z" transform="translate(20.96 6.54199)" fill="black"/>
<path d="M3.22644 0.101704C3.09083 -0.0335972 2.87112 -0.0339019 2.73551 0.101704L1.66407 1.17254L0.592629 0.101704C0.457023 -0.0339019 0.237311 -0.0339019 0.101705 0.101704C-0.0339014 0.23731 -0.0339014 0.457328 0.101705 0.592629L1.17315 1.66346L0.101705 2.73429C-0.0339014 2.86959 -0.0339014 3.08961 0.101705 3.22522C0.16966 3.29317 0.258033 3.327 0.347319 3.327C0.435692 3.327 0.524978 3.29317 0.592934 3.22522L1.66437 2.15438L2.73582 3.22522C2.80377 3.29317 2.89214 3.327 2.98143 3.327C3.0698 3.327 3.15909 3.29317 3.22705 3.22522C3.36265 3.08961 3.36265 2.86959 3.22705 2.73429L2.1556 1.66346L3.22705 0.592629C3.36204 0.457328 3.36204 0.23731 3.22644 0.101704Z" transform="translate(0.289062)" fill="black"/>
</svg>
