<svg width="21" height="22" viewBox="0 0 21 22" fill="none" xmlns="http://www.w3.org/2000/svg">
<path d="M18.3623 1.58091e-07H1.82276C0.820279 1.58091e-07 0 0.820637 0 1.82348V18.3623C0 19.134 0.486237 19.7957 1.16754 20.0608V21.0879C1.16754 21.5895 1.57768 22 2.07964 22H2.90313C3.40473 22 3.81523 21.5906 3.81523 21.0879V20.1851H16.3717V21.0879C16.3717 21.5895 16.7818 22 17.283 22H18.108C18.6088 22 19.0201 21.5906 19.0201 21.0879V20.0608C19.7003 19.7957 20.1869 19.1333 20.1869 18.3623V1.82312C20.1851 0.820637 19.3652 1.58091e-07 18.3623 1.58091e-07ZM14.3109 1.79525C14.3109 1.50051 14.5525 1.25936 14.8468 1.25936H16.7907C17.0851 1.25936 17.3266 1.50051 17.3266 1.79525V3.00853C17.3266 3.30327 17.0851 3.54442 16.7907 3.54442H14.8468C14.5525 3.54442 14.3109 3.30327 14.3109 3.00853V1.79525ZM2.85883 1.79525C2.85883 1.50051 3.09999 1.25936 3.39473 1.25936H12.4843C12.7786 1.25936 13.0202 1.50051 13.0202 1.79525V3.00853C13.0202 3.30327 12.7786 3.54442 12.4843 3.54442H3.39473C3.09999 3.54442 2.85883 3.30327 2.85883 3.00853V1.79525ZM1.77989 5.03171H9.24065L9.24136 9.77869C9.20921 10.2539 8.79335 10.6426 8.31676 10.6426H2.70449C2.22719 10.6426 1.81205 10.2539 1.77989 9.77869V5.03171ZM3.17894 17.8982C2.42726 17.8982 1.81741 17.2884 1.81741 16.5367C1.81741 15.7847 2.42726 15.1741 3.17894 15.1741C3.93098 15.1741 4.54119 15.784 4.54119 16.5367C4.54119 17.2884 3.93134 17.8982 3.17894 17.8982ZM13.9823 17.4488H6.20247V16.62H13.9823V17.4488ZM13.9823 15.7254H6.20247V14.8965H13.9823V15.7254ZM13.9823 14.0012H6.20247V13.1723H13.9823V14.0012ZM17.0058 17.8982C16.2541 17.8982 15.6443 17.2884 15.6443 16.5367C15.6443 15.7847 16.2541 15.1741 17.0058 15.1741C17.7578 15.1741 18.368 15.784 18.368 16.5367C18.3673 17.2884 17.7582 17.8982 17.0058 17.8982ZM17.481 10.6426H11.868C11.3914 10.6426 10.9762 10.2539 10.9441 9.77869V5.03171H18.4048L18.4056 9.77869C18.3734 10.2539 17.9576 10.6426 17.481 10.6426Z" fill="black"/>
</svg>
