<svg width="25" height="14" viewBox="0 0 25 14" fill="none" xmlns="http://www.w3.org/2000/svg">
<path d="M23.9696 9.87374C22.7424 12.0962 19.6635 12.4469 19.397 12.4729H16.8736V10.9823C18.0753 10.9823 18.8498 10.9823 18.8498 10.9823C18.8498 10.9823 22.5805 10.9694 21.769 8.58687C21.3453 7.34229 19.302 6.305 17.179 5.30668L15.4723 7.87876C15.367 8.03741 15.1533 8.08053 14.9944 7.97578C14.8363 7.87047 14.7929 7.65682 14.8982 7.49817L16.5483 5.01122C16.1215 4.81222 15.6987 4.6135 15.2904 4.41505L13.7501 6.73617C13.6448 6.89454 13.4314 6.93766 13.2728 6.83291C13.1141 6.7276 13.071 6.51423 13.176 6.35558L14.6694 4.10466C14.2346 3.88134 13.8275 3.65691 13.4643 3.42889L12.0282 5.59385C11.9232 5.75222 11.7092 5.79562 11.5506 5.69031C11.3922 5.58528 11.3491 5.37136 11.4541 5.21271L12.8966 3.0389C12.6797 2.87473 12.4876 2.70862 12.3311 2.53919C12.1722 2.367 12.0288 2.21056 11.8922 2.06104L10.3063 4.45098C10.201 4.60935 9.98734 4.65247 9.82869 4.54744C9.67032 4.44213 9.62721 4.22849 9.73223 4.06984L11.4152 1.53369C10.3585 0.354884 10.191 0.0848515 10.191 0.0848515L3.36504 8.43474e-08C3.36504 8.43474e-08 3.33879 3.01044 2.71028 5.9164C2.08287 8.82263 2.44937 10.9823 3.3656 10.9823C3.58809 10.9823 4.61654 10.9823 6.04492 10.9823V12.4732H3.96564C2.37059 12.4732 0.883341 10.8757 0.868416 10.8594L0.434485 11.2568L4.63911e-08 11.6537C0.0743489 11.7352 1.84739 13.6503 3.96564 13.6503H19.4459L19.4683 13.6487C19.6284 13.6365 23.4127 13.317 25 10.4431L23.9696 9.87374ZM15.8731 12.4732H7.04545V10.9823C9.7502 10.9823 13.3598 10.9823 15.8731 10.9823V12.4732Z" fill="black"/>
</svg>
