<svg width="20" height="11" viewBox="0 0 20 11" fill="none" xmlns="http://www.w3.org/2000/svg">
  <path d="M19.919 5.16788C19.8806 5.11563 19.8304 5.07326 19.7724 5.04427C19.7144 5.01529 19.6504 5.00051 19.5855 5.00118H0.414454C0.349639 5.00051 0.285597 5.01529 0.227622 5.04427C0.169646 5.07326 0.119403 5.11563 0.081044 5.16788C0.0438726 5.22046 0.0186443 5.28053 0.00712578 5.34388C-0.00439276 5.40723 -0.00192307 5.47234 0.0143619 5.53463L1.68141 10.5358C1.70666 10.6224 1.75931 10.6984 1.83145 10.7525C1.90359 10.8066 1.99133 10.8359 2.08151 10.8359H17.9185C18.0087 10.8359 18.0964 10.8066 18.1686 10.7525C18.2407 10.6984 18.2933 10.6224 18.3186 10.5358L19.9856 5.53463C20.0019 5.47234 20.0044 5.40723 19.9929 5.34388C19.9814 5.28053 19.9561 5.22046 19.919 5.16788Z"
    fill="#261A12" />
  <path d="M13.2673 2.68395C13.2281 2.62733 13.1758 2.58105 13.1149 2.54911C13.0539 2.51717 12.986 2.50051 12.9172 2.50058H3.74842C3.63789 2.50058 3.53189 2.54449 3.45373 2.62264C3.37557 2.7008 3.33166 2.80681 3.33166 2.91734V4.16763H14.2508L13.2673 2.68395Z"
    fill="#261A12" />
  <path d="M9.99987 0.416763C9.99987 0.30623 9.95596 0.200225 9.8778 0.122067C9.79964 0.0439089 9.69364 0 9.5831 0H6.249C6.13847 0 6.03246 0.0439089 5.95431 0.122067C5.87615 0.200225 5.83224 0.30623 5.83224 0.416763V1.66705H9.99987V0.416763Z"
    fill="#261A12" />
</svg>