<svg width="226" height="298" viewBox="0 0 226 298" version="1.1" xmlns="http://www.w3.org/2000/svg" xmlns:xlink="http://www.w3.org/1999/xlink">
<title>Pattern-Waves</title>
<desc>Created using Figma</desc>
<g id="Canvas" transform="translate(-9461 -4077)">
<g id="Pattern-Waves">
<use xlink:href="#path0_stroke" transform="matrix(1 0 0 -1 9461.65 4373.71)" fill="#3095BF"/>
</g>
</g>
<defs>
<path id="path0_stroke" d="M 168.481 262.175L 168.92 261.937L 168.915 261.928L 168.91 261.919L 168.481 262.175ZM 56.7889 262.175L 56.3596 261.919L 56.3544 261.928L 56.3496 261.937L 56.7889 262.175ZM 168.481 242.971L 168.92 242.732L 168.915 242.723L 168.91 242.714L 168.481 242.971ZM 56.7889 242.971L 56.3596 242.714L 56.3544 242.723L 56.3496 242.732L 56.7889 242.971ZM 168.481 223.766L 168.92 223.527L 168.915 223.519L 168.91 223.51L 168.481 223.766ZM 56.7889 223.766L 56.3596 223.51L 56.3544 223.519L 56.3496 223.527L 56.7889 223.766ZM 168.481 204.562L 168.92 204.323L 168.915 204.314L 168.91 204.305L 168.481 204.562ZM 56.7889 204.562L 56.3596 204.305L 56.3544 204.314L 56.3496 204.323L 56.7889 204.562ZM 168.481 185.357L 168.92 185.118L 168.915 185.109L 168.91 185.101L 168.481 185.357ZM 56.7889 185.357L 56.3596 185.101L 56.3544 185.109L 56.3496 185.118L 56.7889 185.357ZM 168.481 166.152L 168.92 165.914L 168.915 165.905L 168.91 165.896L 168.481 166.152ZM 56.7889 166.152L 56.3596 165.896L 56.3544 165.905L 56.3496 165.914L 56.7889 166.152ZM 168.481 146.948L 168.92 146.709L 168.915 146.7L 168.91 146.691L 168.481 146.948ZM 56.7889 146.948L 56.3596 146.691L 56.3544 146.7L 56.3496 146.709L 56.7889 146.948ZM 168.481 127.743L 168.92 127.505L 168.915 127.496L 168.91 127.487L 168.481 127.743ZM 56.7889 127.743L 56.3596 127.487L 56.3544 127.496L 56.3496 127.505L 56.7889 127.743ZM 168.481 108.539L 168.92 108.3L 168.915 108.291L 168.91 108.282L 168.481 108.539ZM 56.7889 108.539L 56.3596 108.282L 56.3544 108.291L 56.3496 108.3L 56.7889 108.539ZM 168.481 89.3341L 168.92 89.0953L 168.915 89.0864L 168.91 89.0777L 168.481 89.3341ZM 56.7889 89.3341L 56.3596 89.0777L 56.3544 89.0864L 56.3496 89.0953L 56.7889 89.3341ZM 168.481 70.1295L 168.92 69.8908L 168.915 69.8818L 168.91 69.8731L 168.481 70.1295ZM 56.7889 70.1295L 56.3596 69.8731L 56.3544 69.8818L 56.3496 69.8908L 56.7889 70.1295ZM 168.481 50.9249L 168.92 50.6862L 168.915 50.6772L 168.91 50.6685L 168.481 50.9249ZM 56.7889 50.9249L 56.3596 50.6685L 56.3544 50.6772L 56.3496 50.6862L 56.7889 50.9249ZM 168.481 31.7203L 168.92 31.4816L 168.915 31.4726L 168.91 31.4639L 168.481 31.7203ZM 56.7889 31.7203L 56.3596 31.4639L 56.3544 31.4726L 56.3496 31.4816L 56.7889 31.7203ZM 112.635 230.955C 136.187 230.955 156.792 243.579 168.051 262.432L 168.91 261.919C 157.478 242.776 136.554 229.955 112.635 229.955L 112.635 230.955ZM 225.27 294.955C 200.775 294.955 179.84 282.035 168.92 261.937L 168.041 262.414C 179.137 282.835 200.408 295.955 225.27 295.955L 225.27 294.955ZM 112.635 229.955C 88.7157 229.955 67.7917 242.776 56.3596 261.919L 57.2182 262.432C 68.4772 243.579 89.082 230.955 112.635 230.955L 112.635 229.955ZM 0 295.955C 24.8612 295.955 46.1328 282.835 57.2282 262.414L 56.3496 261.937C 45.4293 282.035 24.495 294.955 0 294.955L 0 295.955ZM 112.635 211.75C 136.187 211.75 156.792 224.374 168.051 243.227L 168.91 242.714C 157.478 223.572 136.554 210.75 112.635 210.75L 112.635 211.75ZM 225.27 275.75C 200.775 275.75 179.84 262.83 168.92 242.732L 168.041 243.209C 179.137 263.63 200.408 276.75 225.27 276.75L 225.27 275.75ZM 112.635 210.75C 88.7157 210.75 67.7917 223.572 56.3596 242.714L 57.2182 243.227C 68.4772 224.374 89.082 211.75 112.635 211.75L 112.635 210.75ZM 0 276.75C 24.8612 276.75 46.1328 263.63 57.2282 243.209L 56.3496 242.732C 45.4293 262.83 24.495 275.75 0 275.75L 0 276.75ZM 112.635 192.546C 136.187 192.546 156.792 205.17 168.051 224.023L 168.91 223.51C 157.478 204.367 136.554 191.546 112.635 191.546L 112.635 192.546ZM 225.27 256.546C 200.775 256.546 179.84 243.626 168.92 223.527L 168.041 224.005C 179.137 244.425 200.408 257.546 225.27 257.546L 225.27 256.546ZM 112.635 191.546C 88.7157 191.546 67.7917 204.367 56.3596 223.51L 57.2182 224.023C 68.4772 205.17 89.082 192.546 112.635 192.546L 112.635 191.546ZM 0 257.546C 24.8612 257.546 46.1328 244.425 57.2282 224.005L 56.3496 223.527C 45.4293 243.626 24.495 256.546 0 256.546L 0 257.546ZM 112.635 173.341C 136.187 173.341 156.792 185.965 168.051 204.818L 168.91 204.305C 157.478 185.163 136.554 172.341 112.635 172.341L 112.635 173.341ZM 225.27 237.341C 200.775 237.341 179.84 224.421 168.92 204.323L 168.041 204.8C 179.137 225.221 200.408 238.341 225.27 238.341L 225.27 237.341ZM 112.635 172.341C 88.7157 172.341 67.7917 185.163 56.3596 204.305L 57.2182 204.818C 68.4772 185.965 89.082 173.341 112.635 173.341L 112.635 172.341ZM 0 238.341C 24.8612 238.341 46.1328 225.221 57.2282 204.8L 56.3496 204.323C 45.4293 224.421 24.495 237.341 0 237.341L 0 238.341ZM 112.635 154.137C 136.187 154.137 156.792 166.76 168.051 185.613L 168.91 185.101C 157.478 165.958 136.554 153.137 112.635 153.137L 112.635 154.137ZM 225.27 218.137C 200.775 218.137 179.84 205.216 168.92 185.118L 168.041 185.596C 179.137 206.016 200.408 219.137 225.27 219.137L 225.27 218.137ZM 112.635 153.137C 88.7157 153.137 67.7917 165.958 56.3596 185.101L 57.2182 185.613C 68.4772 166.76 89.082 154.137 112.635 154.137L 112.635 153.137ZM 0 219.137C 24.8612 219.137 46.1328 206.016 57.2282 185.596L 56.3496 185.118C 45.4293 205.216 24.495 218.137 0 218.137L 0 219.137ZM 112.635 134.932C 136.187 134.932 156.792 147.556 168.051 166.409L 168.91 165.896C 157.478 146.753 136.554 133.932 112.635 133.932L 112.635 134.932ZM 225.27 198.932C 200.775 198.932 179.84 186.012 168.92 165.914L 168.041 166.391C 179.137 186.812 200.408 199.932 225.27 199.932L 225.27 198.932ZM 112.635 133.932C 88.7157 133.932 67.7917 146.753 56.3596 165.896L 57.2182 166.409C 68.4772 147.556 89.082 134.932 112.635 134.932L 112.635 133.932ZM 0 199.932C 24.8612 199.932 46.1328 186.812 57.2282 166.391L 56.3496 165.914C 45.4293 186.012 24.495 198.932 0 198.932L 0 199.932ZM 112.635 115.728C 136.187 115.728 156.792 128.351 168.051 147.204L 168.91 146.691C 157.478 127.549 136.554 114.728 112.635 114.728L 112.635 115.728ZM 225.27 179.728C 200.775 179.728 179.84 166.807 168.92 146.709L 168.041 147.187C 179.137 167.607 200.408 180.728 225.27 180.728L 225.27 179.728ZM 112.635 114.728C 88.7157 114.728 67.7917 127.549 56.3596 146.691L 57.2182 147.204C 68.4772 128.351 89.082 115.728 112.635 115.728L 112.635 114.728ZM 0 180.728C 24.8612 180.728 46.1328 167.607 57.2282 147.187L 56.3496 146.709C 45.4293 166.807 24.495 179.728 0 179.728L 0 180.728ZM 112.635 96.5229C 136.187 96.5229 156.792 109.147 168.051 128L 168.91 127.487C 157.478 108.344 136.554 95.5229 112.635 95.5229L 112.635 96.5229ZM 225.27 160.523C 200.775 160.523 179.84 147.603 168.92 127.505L 168.041 127.982C 179.137 148.402 200.408 161.523 225.27 161.523L 225.27 160.523ZM 112.635 95.5229C 88.7157 95.5229 67.7917 108.344 56.3596 127.487L 57.2182 128C 68.4772 109.147 89.082 96.5229 112.635 96.5229L 112.635 95.5229ZM 0 161.523C 24.8612 161.523 46.1328 148.402 57.2282 127.982L 56.3496 127.505C 45.4293 147.603 24.495 160.523 0 160.523L 0 161.523ZM 112.635 77.3184C 136.187 77.3184 156.792 89.9421 168.051 108.795L 168.91 108.282C 157.478 89.1397 136.554 76.3184 112.635 76.3184L 112.635 77.3184ZM 225.27 141.318C 200.775 141.318 179.84 128.398 168.92 108.3L 168.041 108.777C 179.137 129.198 200.408 142.318 225.27 142.318L 225.27 141.318ZM 112.635 76.3184C 88.7157 76.3184 67.7917 89.1397 56.3596 108.282L 57.2182 108.795C 68.4772 89.9421 89.082 77.3184 112.635 77.3184L 112.635 76.3184ZM 0 142.318C 24.8612 142.318 46.1328 129.198 57.2282 108.777L 56.3496 108.3C 45.4293 128.398 24.495 141.318 0 141.318L 0 142.318ZM 112.635 58.1138C 136.187 58.1138 156.792 70.7375 168.051 89.5904L 168.91 89.0777C 157.478 69.9351 136.554 57.1138 112.635 57.1138L 112.635 58.1138ZM 225.27 122.114C 200.775 122.114 179.84 109.193 168.92 89.0953L 168.041 89.5728C 179.137 109.993 200.408 123.114 225.27 123.114L 225.27 122.114ZM 112.635 57.1138C 88.7157 57.1138 67.7917 69.9351 56.3596 89.0777L 57.2182 89.5904C 68.4772 70.7375 89.082 58.1138 112.635 58.1138L 112.635 57.1138ZM 0 123.114C 24.8612 123.114 46.1328 109.993 57.2282 89.5728L 56.3496 89.0953C 45.4293 109.193 24.495 122.114 0 122.114L 0 123.114ZM 112.635 38.9092C 136.187 38.9092 156.792 51.5329 168.051 70.3858L 168.91 69.8731C 157.478 50.7305 136.554 37.9092 112.635 37.9092L 112.635 38.9092ZM 225.27 102.909C 200.775 102.909 179.84 89.9889 168.92 69.8908L 168.041 70.3682C 179.137 90.7887 200.408 103.909 225.27 103.909L 225.27 102.909ZM 112.635 37.9092C 88.7157 37.9092 67.7917 50.7305 56.3596 69.8731L 57.2182 70.3858C 68.4772 51.5329 89.082 38.9092 112.635 38.9092L 112.635 37.9092ZM 0 103.909C 24.8612 103.909 46.1328 90.7887 57.2282 70.3682L 56.3496 69.8908C 45.4293 89.9889 24.495 102.909 0 102.909L 0 103.909ZM 112.635 19.7046C 136.187 19.7046 156.792 32.3283 168.051 51.1812L 168.91 50.6685C 157.478 31.5259 136.554 18.7046 112.635 18.7046L 112.635 19.7046ZM 225.27 83.7046C 200.775 83.7046 179.84 70.7843 168.92 50.6862L 168.041 51.1636C 179.137 71.5841 200.408 84.7046 225.27 84.7046L 225.27 83.7046ZM 112.635 18.7046C 88.7157 18.7046 67.7917 31.5259 56.3596 50.6685L 57.2182 51.1812C 68.4772 32.3283 89.082 19.7046 112.635 19.7046L 112.635 18.7046ZM 0 84.7046C 24.8612 84.7046 46.1328 71.5841 57.2282 51.1636L 56.3496 50.6862C 45.4293 70.7843 24.495 83.7046 0 83.7046L 0 84.7046ZM 112.635 0.5C 136.187 0.5 156.792 13.1237 168.051 31.9767L 168.91 31.4639C 157.478 12.3213 136.554 -0.5 112.635 -0.5L 112.635 0.5ZM 225.27 64.5C 200.775 64.5 179.84 51.5797 168.92 31.4816L 168.041 31.959C 179.137 52.3795 200.408 65.5 225.27 65.5L 225.27 64.5ZM 112.635 -0.5C 88.7157 -0.5 67.7917 12.3213 56.3596 31.4639L 57.2182 31.9767C 68.4772 13.1237 89.082 0.5 112.635 0.5L 112.635 -0.5ZM 0 65.5C 24.8612 65.5 46.1328 52.3795 57.2282 31.959L 56.3496 31.4816C 45.4293 51.5797 24.495 64.5 0 64.5L 0 65.5Z"/>
</defs>
</svg>
