<svg width="241" height="1826" viewBox="0 0 241 1826" fill="none" xmlns="http://www.w3.org/2000/svg">
<path d="M103 178.5C103 140.884 82.8397 107.977 52.7355 89.9973C20.6324 72.5523 0 39.1091 0 0" transform="translate(119 18)" stroke="url(#paint0_linear)" stroke-width="5"/>
<path d="M0 0C0 37.6159 20.1603 70.5226 50.2645 88.5027C82.3676 105.948 103 139.391 103 178.5C103 217.609 82.3676 251.052 50.2645 268.497C20.1603 286.477 0 319.384 0 357C0 394.616 20.1603 427.523 50.2645 445.503C82.3676 462.948 103 496.391 103 535.5M103 890.5C103 851.391 82.3676 817.948 50.2645 800.503C20.1603 782.523 0 749.616 0 712C0 674.384 20.1603 641.477 50.2645 623.497C82.3676 606.052 103 572.609 103 533.5" transform="translate(18 553.5)" stroke="url(#paint1_linear)" stroke-width="5"/>
<path d="M0 103C39.1091 103 72.5523 82.3676 89.9973 50.2645C107.977 20.1603 140.884 0 178.5 0C216.116 0 249.023 20.1603 267.003 50.2645C284.448 82.3676 317.891 103 357 103" transform="translate(18 1444) scale(-1 1) rotate(90)" stroke="url(#paint2_linear)" stroke-width="5"/>
<path d="M103 0C103 39.1091 82.3676 72.5523 50.2645 89.9973C20.1603 107.977 0 140.884 0 178.5" transform="translate(16 375)" stroke="url(#paint3_linear)" stroke-width="5"/>
<path d="M103 0C103 37.6159 82.8397 70.5226 52.7355 88.5027C20.6324 105.948 0 139.391 0 178.5" transform="translate(119 196.5)" stroke="url(#paint4_linear)" stroke-width="5"/>
<circle cx="17.5" cy="17.5" r="15" transform="translate(101)" fill="white" stroke="#4EB96F" stroke-width="5"/>
<circle cx="17.5" cy="17.5" r="15" transform="translate(206 179)" fill="white" stroke="#945BA4" stroke-width="5"/>
<circle cx="17.5" cy="17.5" r="15" transform="translate(103 357)" fill="white" stroke="#EFC319" stroke-width="5"/>
<circle cx="17.5" cy="17.5" r="17.5" transform="translate(103 714)" fill="#D0656C"/>
<circle cx="17.5" cy="17.5" r="15" transform="translate(0 536)" fill="#F05A5A" stroke="#F05A5A" stroke-width="5"/>
<path d="M17.7623 10.768H19.1063L19.0823 23.128H22.7783V25H13.0103V23.128H16.9463L16.9703 13.936L13.7063 16.624L12.5063 15.136L17.7623 10.768Z" transform="translate(103 714)" fill="white"/>
<circle cx="17.5" cy="17.5" r="17.5" transform="translate(0 893)" fill="#A87181"/>
<circle cx="17.5" cy="17.5" r="17.5" transform="translate(0 1248)" fill="#5B88A9"/>
<circle cx="17.5" cy="17.5" r="15" transform="translate(0 1605)" fill="white" stroke="#00BDF2" stroke-width="5"/>
<circle cx="17.5" cy="17.5" r="15" transform="translate(101 1426)" fill="#3095BF" stroke="#3095BF" stroke-width="5"/>
<circle cx="17.5" cy="17.5" r="17.5" transform="translate(101 1071)" fill="#827D95"/>
<circle cx="17.5" cy="17.5" r="15" transform="translate(101 1791)" fill="#00BDF2" stroke="#00BDF2" stroke-width="5"/>
<path d="M11.7769 23.056C12.6249 22.272 13.6969 21.344 14.9929 20.272C15.2329 20.064 15.6649 19.696 16.2889 19.168C16.9129 18.64 17.4249 18.176 17.8249 17.776C18.4169 17.216 18.8569 16.688 19.1449 16.192C19.4329 15.696 19.5769 15.184 19.5769 14.656C19.5769 13.92 19.3209 13.352 18.8089 12.952C18.3129 12.536 17.6809 12.328 16.9129 12.328C16.3369 12.328 15.7449 12.456 15.1369 12.712C14.5449 12.968 14.0089 13.32 13.5289 13.768L12.1849 12.472C12.8729 11.768 13.6329 11.248 14.4649 10.912C15.3129 10.56 16.1849 10.384 17.0809 10.384C17.9609 10.384 18.7609 10.552 19.4809 10.888C20.2169 11.224 20.8009 11.704 21.2329 12.328C21.6649 12.952 21.8809 13.688 21.8809 14.536C21.8809 15.24 21.6489 15.952 21.1849 16.672C20.7209 17.376 20.0569 18.128 19.1929 18.928C18.6169 19.488 17.6249 20.344 16.2169 21.496C15.9449 21.72 15.6409 21.968 15.3049 22.24C14.9849 22.512 14.6409 22.808 14.2729 23.128H20.3929L21.6169 21.184L23.1529 22.024L21.4249 25H12.4009L11.7769 23.056Z" transform="translate(0 893)" fill="white"/>
<path d="M17.3114 16.792C18.0474 16.792 18.6314 16.576 19.0634 16.144C19.5114 15.696 19.7354 15.112 19.7354 14.392C19.7354 13.768 19.4954 13.272 19.0154 12.904C18.5514 12.52 17.9274 12.328 17.1434 12.328C16.5194 12.328 15.9034 12.448 15.2954 12.688C14.7034 12.928 14.2154 13.24 13.8314 13.624L12.4154 12.256C12.9754 11.68 13.6714 11.24 14.5034 10.936C15.3514 10.632 16.2714 10.48 17.2634 10.48C18.6874 10.48 19.8234 10.832 20.6714 11.536C21.5194 12.24 21.9434 13.168 21.9434 14.32C21.9434 15.088 21.7274 15.784 21.2954 16.408C20.8634 17.032 20.2954 17.472 19.5914 17.728C20.4874 17.904 21.2154 18.296 21.7754 18.904C22.3354 19.512 22.6154 20.24 22.6154 21.088C22.6154 22.384 22.1274 23.424 21.1514 24.208C20.1914 24.992 18.9114 25.384 17.3114 25.384C16.1754 25.384 15.1914 25.24 14.3594 24.952C13.5274 24.664 12.7914 24.232 12.1514 23.656L13.4954 22.096C14.1674 22.608 14.7834 22.976 15.3434 23.2C15.9034 23.408 16.5674 23.512 17.3354 23.512C18.2314 23.512 18.9514 23.296 19.4954 22.864C20.0554 22.416 20.3354 21.824 20.3354 21.088C20.3354 20.352 20.0154 19.76 19.3754 19.312C18.7514 18.864 17.9194 18.64 16.8794 18.64H15.6794V16.792H17.3114Z" transform="translate(101 1071)" fill="white"/>
<path d="M16.0997 25V23.128H18.7158V21.016H11.4438L11.4198 19.792L16.4597 10.048L18.1877 11.032L13.9397 19.216H18.7158V13.144H20.8758V19.216L23.0118 19.192V21.016H20.8758V23.128H22.9158V25H16.0997Z" transform="translate(0 1248)" fill="white"/>
<path d="M15.2976 16.312C16.1296 15.768 17.0496 15.496 18.0576 15.496C19.4176 15.496 20.5296 15.904 21.3936 16.72C22.2736 17.536 22.7136 18.68 22.7136 20.152C22.7136 21.848 22.2416 23.144 21.2976 24.04C20.3536 24.936 19.0096 25.384 17.2656 25.384C16.3216 25.384 15.4176 25.208 14.5536 24.856C13.6896 24.504 12.9696 24 12.3936 23.344L13.9296 22.12C14.3616 22.584 14.8656 22.944 15.4416 23.2C16.0336 23.44 16.6656 23.56 17.3376 23.56C18.3616 23.56 19.1376 23.288 19.6656 22.744C20.2096 22.184 20.4816 21.392 20.4816 20.368C20.4816 19.408 20.1856 18.656 19.5936 18.112C19.0016 17.568 18.2736 17.296 17.4096 17.296C16.8816 17.296 16.3536 17.408 15.8256 17.632C15.3136 17.856 14.8496 18.184 14.4336 18.616L13.1616 18.04V10.864H21.6576V12.76H15.2976V16.312Z" transform="translate(101 1426)" fill="white"/>
<path d="M21.5237 13.168C20.4037 12.608 19.4597 12.328 18.6917 12.328C17.2678 12.328 16.2198 12.856 15.5477 13.912C14.8917 14.968 14.5477 16.224 14.5157 17.68C14.9158 17.216 15.4518 16.832 16.1237 16.528C16.8118 16.208 17.5478 16.048 18.3318 16.048C19.7237 16.048 20.8677 16.408 21.7638 17.128C22.6758 17.832 23.1318 19.024 23.1318 20.704C23.1318 21.392 22.9718 22.096 22.6518 22.816C22.3318 23.52 21.7717 24.128 20.9717 24.64C20.1877 25.136 19.1317 25.384 17.8037 25.384C14.1077 25.384 12.2598 22.936 12.2598 18.04C12.2598 16.632 12.5157 15.352 13.0277 14.2C13.5557 13.048 14.2997 12.144 15.2598 11.488C16.2358 10.816 17.3637 10.48 18.6437 10.48C19.2517 10.48 19.8198 10.56 20.3477 10.72C20.8918 10.864 21.3398 11.024 21.6917 11.2C22.0597 11.376 22.2917 11.504 22.3878 11.584L21.5237 13.168ZM18.1877 17.824C17.3717 17.824 16.6357 17.968 15.9798 18.256C15.3237 18.544 14.8517 18.936 14.5638 19.432C14.6758 21.032 15.0358 22.12 15.6438 22.696C16.2677 23.272 17.0437 23.56 17.9717 23.56C18.6118 23.56 19.1478 23.424 19.5797 23.152C20.0277 22.864 20.3637 22.504 20.5877 22.072C20.8117 21.624 20.9237 21.168 20.9237 20.704C20.9237 19.76 20.6917 19.048 20.2278 18.568C19.7637 18.072 19.0837 17.824 18.1877 17.824Z" transform="translate(101 1791)" fill="white"/>
<defs>
<linearGradient id="paint0_linear" x2="1" gradientUnits="userSpaceOnUse" gradientTransform="translate(34.4295) scale(68.859 179) rotate(90)">
<stop stop-color="#53B36C"/>
<stop offset="1" stop-color="#945BA4"/>
</linearGradient>
<linearGradient id="paint1_linear" x2="1" gradientUnits="userSpaceOnUse" gradientTransform="translate(103) scale(103 890.5) rotate(90)">
<stop stop-color="#F05A5A"/>
<stop offset="1" stop-color="#3095BF"/>
</linearGradient>
<linearGradient id="paint2_linear" x2="1" gradientUnits="userSpaceOnUse" gradientTransform="translate(3.74897e-06 -515.684) scale(357 1237.37)">
<stop stop-color="#3095BF"/>
<stop offset="1" stop-color="#00BDF2"/>
</linearGradient>
<linearGradient id="paint3_linear" x2="1" gradientUnits="userSpaceOnUse" gradientTransform="translate(137.333) scale(68.6667 178.5) rotate(90)">
<stop stop-color="#EFC319"/>
<stop offset="1" stop-color="#F05A5A"/>
</linearGradient>
<linearGradient id="paint4_linear" x2="1" gradientUnits="userSpaceOnUse" gradientTransform="translate(34.2372 0.5) scale(68.4743 178) rotate(90)">
<stop stop-color="#945BA4"/>
<stop offset="1" stop-color="#EFC319"/>
</linearGradient>
</defs>
</svg>
