<svg width="241" height="1826" viewBox="0 0 241 1826" version="1.1" xmlns="http://www.w3.org/2000/svg" xmlns:xlink="http://www.w3.org/1999/xlink">
  <g id="Canvas" fill="none">
    <g id="Timeline">
      <g id="Vector">
        <path d="M 103 178.5C 103 140.884 82.8397 107.977 52.7355 89.9973C 20.6324 72.5523 0 39.1091 0 0" stroke-width="5" transform="translate(119 18)"
          stroke="url(#paint0_linear)" />
      </g>
      <g id="Vector_2">
        <path d="M 0 0C 0 37.6159 20.1603 70.5226 50.2645 88.5027C 82.3676 105.948 103 139.391 103 178.5C 103 217.609 82.3676 251.052 50.2645 268.497C 20.1603 286.477 0 319.384 0 357C 0 394.616 20.1603 427.523 50.2645 445.503C 82.3676 462.948 103 496.391 103 535.5M 103 890.5C 103 851.391 82.3676 817.948 50.2645 800.503C 20.1603 782.523 0 749.616 0 712C 0 674.384 20.1603 641.477 50.2645 623.497C 82.3676 606.052 103 572.609 103 533.5"
          stroke-width="5" transform="translate(18 553.5)" stroke="url(#paint1_linear)" />
      </g>
      <g id="Vector_3">
        <path d="M 0 103C 39.1091 103 72.5523 82.3676 89.9973 50.2645C 107.977 20.1603 140.884 0 178.5 0C 216.116 0 249.023 20.1603 267.003 50.2645C 284.448 82.3676 317.891 103 357 103"
          stroke-width="5" transform="matrix(0 1 1 0 18 1444)" stroke="url(#paint2_linear)" />
      </g>
      <g id="Vector_4">
        <path d="M 103 0C 103 39.1091 82.3676 72.5523 50.2645 89.9973C 20.1603 107.977 0 140.884 0 178.5" stroke-width="5" transform="translate(16 375)"
          stroke="url(#paint3_linear)" />
      </g>
      <g id="Vector_5">
        <path d="M 103 0C 103 37.6159 82.8397 70.5226 52.7355 88.5027C 20.6324 105.948 0 139.391 0 178.5" stroke-width="5" transform="translate(119 196.5)"
          stroke="url(#paint4_linear)" />
      </g>
      <g id="Ellipse 2.3">
        <circle cx="17.5" cy="17.5" r="17.5" transform="translate(101 0)" fill="white" />
        <circle cx="17.5" cy="17.5" r="15" stroke-width="5" transform="translate(101 0)" stroke="#4EB96F" />
      </g>
      <g id="Ellipse 2.11">
        <circle cx="17.5" cy="17.5" r="17.5" transform="translate(206 179)" fill="white" />
        <circle cx="17.5" cy="17.5" r="15" stroke-width="5" transform="translate(206 179)" stroke="#945BA4" />
      </g>
      <g id="Ellipse 2.12">
        <circle cx="17.5" cy="17.5" r="17.5" transform="translate(103 357)" fill="white" />
        <circle cx="17.5" cy="17.5" r="15" stroke-width="5" transform="translate(103 357)" stroke="#EFC319" />
      </g>
      <g id="Ellipse 2.13">
        <circle cx="17.5" cy="17.5" r="17.5" transform="translate(103 714)" fill="#3095BF" />
        <circle cx="17.5" cy="17.5" r="15" stroke-width="5" transform="translate(103 714)" stroke="#3095BF" />
      </g>
      <g id="Ellipse 2.14">
        <circle cx="17.5" cy="17.5" r="17.5" transform="translate(0 536)" fill="#F05A5A" />
        <circle cx="17.5" cy="17.5" r="15" stroke-width="5" transform="translate(0 536)" stroke="#F05A5A" />
      </g>
      <g id="1.">
        <path d="M 6.80137 6.768L 8.14538 6.768L 8.12137 19.128L 11.8174 19.128L 11.8174 21L 2.04937 21L 2.04937 19.128L 5.98538 19.128L 6.00937 9.936L 2.74538 12.624L 1.54538 11.136L 6.80137 6.768ZM 15.2288 18.168C 15.6448 18.168 16.0128 18.336 16.3327 18.672C 16.6687 18.992 16.8367 19.368 16.8367 19.8C 16.8367 20.232 16.6767 20.608 16.3568 20.928C 16.0368 21.232 15.6608 21.384 15.2288 21.384C 14.7807 21.384 14.3967 21.232 14.0768 20.928C 13.7728 20.608 13.6208 20.232 13.6208 19.8C 13.6208 19.368 13.7808 18.992 14.1008 18.672C 14.4208 18.336 14.7968 18.168 15.2288 18.168Z"
          transform="translate(112 718)" fill="white" />
      </g>
      <g id="Ellipse 2.15">
        <circle cx="17.5" cy="17.5" r="17.5" transform="translate(0 893)" fill="#3095BF" />
        <circle cx="17.5" cy="17.5" r="15" stroke-width="5" transform="translate(0 893)" stroke="#3095BF" />
      </g>
      <g id="2.">
        <path d="M 1.20663 19.056C 2.05462 18.272 3.12662 17.344 4.42262 16.272C 4.66262 16.064 5.09462 15.696 5.71863 15.168C 6.34263 14.64 6.85463 14.176 7.25463 13.776C 7.84663 13.216 8.28663 12.688 8.57462 12.192C 8.86262 11.696 9.00662 11.184 9.00662 10.656C 9.00662 9.92 8.75062 9.352 8.23862 8.952C 7.74262 8.536 7.11063 8.328 6.34262 8.328C 5.76662 8.328 5.17462 8.456 4.56662 8.712C 3.97462 8.968 3.43862 9.32 2.95863 9.768L 1.61462 8.472C 2.30262 7.768 3.06262 7.248 3.89462 6.912C 4.74262 6.56 5.61462 6.384 6.51062 6.384C 7.39062 6.384 8.19062 6.552 8.91062 6.888C 9.64662 7.224 10.2306 7.704 10.6626 8.328C 11.0946 8.952 11.3106 9.688 11.3106 10.536C 11.3106 11.24 11.0786 11.952 10.6146 12.672C 10.1506 13.376 9.48663 14.128 8.62262 14.928C 8.04663 15.488 7.05463 16.344 5.64662 17.496C 5.37463 17.72 5.07063 17.968 4.73462 18.24C 4.41462 18.512 4.07062 18.808 3.70262 19.128L 9.82263 19.128L 11.0466 17.184L 12.5826 18.024L 10.8546 21L 1.83062 21L 1.20663 19.056ZM 16.2288 18.168C 16.6448 18.168 17.0128 18.336 17.3327 18.672C 17.6687 18.992 17.8367 19.368 17.8367 19.8C 17.8367 20.232 17.6767 20.608 17.3568 20.928C 17.0368 21.232 16.6608 21.384 16.2288 21.384C 15.7807 21.384 15.3967 21.232 15.0768 20.928C 14.7728 20.608 14.6208 20.232 14.6208 19.8C 14.6208 19.368 14.7808 18.992 15.1008 18.672C 15.4208 18.336 15.7968 18.168 16.2288 18.168Z"
          transform="translate(8 897)" fill="white" />
      </g>
      <g id="Ellipse 2.17">
        <circle cx="17.5" cy="17.5" r="17.5" transform="translate(0 1248)" fill="#3095BF" />
        <circle cx="17.5" cy="17.5" r="15" stroke-width="5" transform="translate(0 1248)" stroke="#3095BF" />
      </g>
      <g id="Ellipse 2.20">
        <circle cx="17.5" cy="17.5" r="17.5" transform="translate(0 1605)" fill="white" />
        <circle cx="17.5" cy="17.5" r="15" stroke-width="5" transform="translate(0 1605)" stroke="#00BDF2" />
      </g>
      <g id="4.">
        <path d="M 5.41225 21L 5.41225 19.128L 8.02825 19.128L 8.02825 17.016L 0.75625 17.016L 0.73225 15.792L 5.77225 6.048L 7.50025 7.032L 3.25225 15.216L 8.02825 15.216L 8.02825 9.144L 10.1883 9.144L 10.1883 15.216L 12.3243 15.192L 12.3243 17.016L 10.1883 17.016L 10.1883 19.128L 12.2283 19.128L 12.2283 21L 5.41225 21ZM 16.2288 18.168C 16.6448 18.168 17.0128 18.336 17.3327 18.672C 17.6687 18.992 17.8367 19.368 17.8367 19.8C 17.8367 20.232 17.6767 20.608 17.3568 20.928C 17.0368 21.232 16.6608 21.384 16.2288 21.384C 15.7807 21.384 15.3967 21.232 15.0768 20.928C 14.7728 20.608 14.6208 20.232 14.6208 19.8C 14.6208 19.368 14.7808 18.992 15.1008 18.672C 15.4208 18.336 15.7968 18.168 16.2288 18.168Z"
          transform="translate(8 1252)" fill="white" />
      </g>
      <g id="Ellipse 2.18">
        <circle cx="17.5" cy="17.5" r="17.5" transform="translate(101 1426)" fill="#3095BF" />
        <circle cx="17.5" cy="17.5" r="15" stroke-width="5" transform="translate(101 1426)" stroke="#3095BF" />
      </g>
      <g id="5.">
        <path d="M 4.032 12.312C 4.864 11.768 5.784 11.496 6.792 11.496C 8.152 11.496 9.264 11.904 10.128 12.72C 11.008 13.536 11.448 14.68 11.448 16.152C 11.448 17.848 10.976 19.144 10.032 20.04C 9.088 20.936 7.744 21.384 6 21.384C 5.056 21.384 4.152 21.208 3.288 20.856C 2.424 20.504 1.704 20 1.128 19.344L 2.664 18.12C 3.096 18.584 3.6 18.944 4.176 19.2C 4.768 19.44 5.4 19.56 6.072 19.56C 7.096 19.56 7.872 19.288 8.4 18.744C 8.944 18.184 9.216 17.392 9.216 16.368C 9.216 15.408 8.92 14.656 8.328 14.112C 7.736 13.568 7.008 13.296 6.144 13.296C 5.616 13.296 5.088 13.408 4.56 13.632C 4.048 13.856 3.584 14.184 3.168 14.616L 1.896 14.04L 1.896 6.864L 10.392 6.864L 10.392 8.76L 4.032 8.76L 4.032 12.312ZM 15.2288 18.168C 15.6448 18.168 16.0128 18.336 16.3327 18.672C 16.6687 18.992 16.8367 19.368 16.8367 19.8C 16.8367 20.232 16.6767 20.608 16.3568 20.928C 16.0368 21.232 15.6608 21.384 15.2288 21.384C 14.7807 21.384 14.3967 21.232 14.0768 20.928C 13.7728 20.608 13.6208 20.232 13.6208 19.8C 13.6208 19.368 13.7808 18.992 14.1008 18.672C 14.4208 18.336 14.7968 18.168 15.2288 18.168Z"
          transform="translate(110 1430)" fill="white" />
      </g>
      <g id="Ellipse 2.16">
        <circle cx="17.5" cy="17.5" r="17.5" transform="translate(101 1071)" fill="#3095BF" />
        <circle cx="17.5" cy="17.5" r="15" stroke-width="5" transform="translate(101 1071)" stroke="#3095BF" />
      </g>
      <g id="3.">
        <path d="M 6.1395 12.792C 6.8755 12.792 7.4595 12.576 7.8915 12.144C 8.3395 11.696 8.5635 11.112 8.5635 10.392C 8.5635 9.768 8.3235 9.272 7.8435 8.904C 7.3795 8.52 6.7555 8.328 5.9715 8.328C 5.3475 8.328 4.7315 8.448 4.1235 8.688C 3.5315 8.928 3.0435 9.24 2.6595 9.624L 1.2435 8.256C 1.8035 7.68 2.4995 7.24 3.3315 6.936C 4.1795 6.632 5.0995 6.48 6.0915 6.48C 7.5155 6.48 8.6515 6.832 9.4995 7.536C 10.3475 8.24 10.7715 9.168 10.7715 10.32C 10.7715 11.088 10.5555 11.784 10.1235 12.408C 9.6915 13.032 9.1235 13.472 8.4195 13.728C 9.3155 13.904 10.0435 14.296 10.6035 14.904C 11.1635 15.512 11.4435 16.24 11.4435 17.088C 11.4435 18.384 10.9555 19.424 9.9795 20.208C 9.0195 20.992 7.7395 21.384 6.1395 21.384C 5.0035 21.384 4.0195 21.24 3.1875 20.952C 2.3555 20.664 1.6195 20.232 0.9795 19.656L 2.3235 18.096C 2.9955 18.608 3.6115 18.976 4.1715 19.2C 4.7315 19.408 5.3955 19.512 6.1635 19.512C 7.0595 19.512 7.7795 19.296 8.3235 18.864C 8.8835 18.416 9.1635 17.824 9.1635 17.088C 9.1635 16.352 8.8435 15.76 8.2035 15.312C 7.5795 14.864 6.7475 14.64 5.7075 14.64L 4.5075 14.64L 4.5075 12.792L 6.1395 12.792ZM 15.2288 18.168C 15.6448 18.168 16.0128 18.336 16.3327 18.672C 16.6687 18.992 16.8367 19.368 16.8367 19.8C 16.8367 20.232 16.6767 20.608 16.3568 20.928C 16.0368 21.232 15.6608 21.384 15.2288 21.384C 14.7807 21.384 14.3967 21.232 14.0768 20.928C 13.7728 20.608 13.6208 20.232 13.6208 19.8C 13.6208 19.368 13.7808 18.992 14.1008 18.672C 14.4208 18.336 14.7968 18.168 15.2288 18.168Z"
          transform="translate(110 1075)" fill="white" />
      </g>
      <g id="Ellipse 2.19">
        <circle cx="17.5" cy="17.5" r="17.5" transform="translate(101 1791)" fill="#00BDF2" />
        <circle cx="17.5" cy="17.5" r="15" stroke-width="5" transform="translate(101 1791)" stroke="#00BDF2" />
      </g>
    </g>
  </g>
  <defs>

    <linearGradient id="paint0_linear" x2="1" gradientUnits="userSpaceOnUse" gradientTransform="matrix(0 179 -68.859 0 34.4295 0)">
      <stop stop-color="#53B36C" />
      <stop offset="1" stop-color="#945BA4" />
    </linearGradient>
    <linearGradient id="paint1_linear" x2="1" gradientUnits="userSpaceOnUse" gradientTransform="matrix(0 890.5 -103 0 103 0)">
      <stop stop-color="#F05A5A" />
      <stop offset="1" stop-color="#3095BF" />
    </linearGradient>
    <linearGradient id="paint2_linear" x2="1" gradientUnits="userSpaceOnUse" gradientTransform="matrix(357 0 -7.49795e-06 1237.37 3.74897e-06 -515.684)">
      <stop stop-color="#3095BF" />
      <stop offset="1" stop-color="#00BDF2" />
    </linearGradient>
    <linearGradient id="paint3_linear" x2="1" gradientUnits="userSpaceOnUse" gradientTransform="matrix(0 178.5 -68.6667 0 137.333 0)">
      <stop stop-color="#EFC319" />
      <stop offset="1" stop-color="#F05A5A" />
    </linearGradient>
    <linearGradient id="paint4_linear" x2="1" gradientUnits="userSpaceOnUse" gradientTransform="matrix(0 178 -68.4743 0 34.2372 0.5)">
      <stop stop-color="#945BA4" />
      <stop offset="1" stop-color="#EFC319" />
    </linearGradient>

  </defs>
</svg>